<?xml version="1.0" standalone="no"?>
<!DOCTYPE svg PUBLIC "-//W3C//DTD SVG 1.1//EN"
  "http://www.w3.org/Graphics/SVG/1.1/DTD/svg11.dtd">
<svg width="240.94px" height="205.51px" version="1.1"
    xmlns="http://www.w3.org/2000/svg"
    xmlns:xlink="http://www.w3.org/1999/xlink">
<desc>Veusz output document</desc>
<defs>
<clipPath id="c0">
<path d="m0,0l240.94,0l0,205.51l-240.94,0l0,-205.51"/>
</clipPath>
<clipPath id="c1">
<path d="m45.17,16.83l17.71,0l0,9.74l-17.71,0l0,-9.74"/>
</clipPath>
<clipPath id="c2">
<path d="m45.17,26.57l17.71,0l0,9.74l-17.71,0l0,-9.74"/>
</clipPath>
<clipPath id="c3">
<path d="m35.43,7.08l198.42,0l0,170.07l-198.42,0l0,-170.07"/>
</clipPath>
</defs>
<g stroke-linejoin="bevel" stroke-linecap="square" stroke="#000000" fill-rule="evenodd">
<g clip-path="url(#c0)">
<g fill="#ffffff" stroke-width="0.62">
<path d="m35.43,7.08l198.42,0l0,170.07l-198.42,0l0,-170.07"/>
</g>
<g fill="none" stroke-linecap="butt" stroke-width="0.62">
<path d="M35.43,177.16l0,-170.07"/>
<path d="M35.43,171.09l1.87,0M35.43,165.01l1.87,0M35.43,158.94l1.87,0M35.43,152.86l1.87,0M35.43,146.79l1.87,0M35.43,140.71l1.87,0M35.43,134.64l1.87,0M35.43,128.57l1.87,0M35.43,122.49l1.87,0M35.43,116.42l1.87,0M35.43,110.34l1.87,0M35.43,104.27l1.87,0M35.43,98.2l1.87,0M35.43,92.12l1.87,0M35.43,86.05l1.87,0M35.43,79.97l1.87,0M35.43,73.9l1.87,0M35.43,67.82l1.87,0M35.43,61.75l1.87,0M35.43,55.68l1.87,0M35.43,49.6l1.87,0M35.43,43.53l1.87,0M35.43,37.45l1.87,0M35.43,31.38l1.87,0M35.43,25.3l1.87,0M35.43,19.23l1.87,0M35.43,13.16l1.87,0"/>
<path d="M35.43,152.86l3.75,0M35.43,122.49l3.75,0M35.43,92.12l3.75,0M35.43,61.75l3.75,0M35.43,31.38l3.75,0"/>
</g>
<g fill="none" stroke-width="0.1">
<g transform="matrix(0 -1 1 0 10.73 145.9)">
<path d="m3.6,0l-2.25,-4.9l0,3.89c0,0.35,0.03,0.58,0.11,0.67c0.1,0.12,0.27,0.18,0.5,0.18l0.2,0l0,0.15l-2.02,0l0,-0.15l0.2,0c0.24,0,0.42,-0.07,0.52,-0.22c0.06,-0.09,0.09,-0.3,0.09,-0.62l0,-3.8c0,-0.25,-0.02,-0.44,-0.08,-0.55c-0.04,-0.08,-0.11,-0.15,-0.22,-0.2c-0.1,-0.05,-0.28,-0.08,-0.51,-0.08l0,-0.15l1.65,0l2.11,4.55l2.07,-4.55l1.65,0l0,0.15l-0.2,0c-0.24,0,-0.42,0.07,-0.52,0.22c-0.06,0.09,-0.09,0.3,-0.09,0.62l0,3.8c0,0.35,0.04,0.58,0.12,0.67c0.1,0.12,0.27,0.18,0.5,0.18l0.2,0l0,0.15l-2.47,0l0,-0.15l0.2,0c0.24,0,0.42,-0.07,0.52,-0.22c0.06,-0.09,0.09,-0.3,0.09,-0.62l0,-3.89l-2.24,4.9l-0.14,0m6.72,-0.56c-0.4,0.31,-0.65,0.49,-0.76,0.54c-0.15,0.07,-0.31,0.1,-0.49,0.1c-0.27,0,-0.49,-0.09,-0.67,-0.27c-0.17,-0.18,-0.26,-0.43,-0.26,-0.73c0,-0.19,0.04,-0.35,0.12,-0.49c0.11,-0.19,0.32,-0.37,0.61,-0.55c0.29,-0.17,0.77,-0.38,1.45,-0.62l0,-0.15c0,-0.39,-0.06,-0.66,-0.18,-0.8c-0.12,-0.14,-0.3,-0.21,-0.54,-0.21c-0.18,0,-0.32,0.04,-0.42,0.14c-0.1,0.09,-0.16,0.2,-0.16,0.33l0,0.24c0,0.13,-0.03,0.23,-0.1,0.3c-0.06,0.07,-0.15,0.1,-0.26,0.1c-0.1,0,-0.19,-0.03,-0.26,-0.11c-0.06,-0.07,-0.1,-0.17,-0.1,-0.3c0,-0.24,0.12,-0.47,0.37,-0.67c0.25,-0.2,0.6,-0.3,1.06,-0.3c0.34,0,0.63,0.05,0.85,0.17c0.16,0.08,0.29,0.22,0.37,0.41c0.05,0.12,0.07,0.37,0.07,0.75l0,1.33c0,0.37,0,0.6,0.02,0.68c0.01,0.08,0.03,0.14,0.07,0.16c0.03,0.02,0.07,0.04,0.11,0.04c0.04,0,0.08,-0.01,0.12,-0.03c0.06,-0.03,0.17,-0.14,0.34,-0.31l0,0.24c-0.32,0.42,-0.62,0.64,-0.91,0.64c-0.14,0,-0.25,-0.04,-0.33,-0.14c-0.08,-0.09,-0.12,-0.26,-0.12,-0.49m0,-0.27l0,-1.49c-0.43,0.17,-0.71,0.29,-0.83,0.36c-0.22,0.12,-0.38,0.25,-0.48,0.39c-0.09,0.13,-0.14,0.28,-0.14,0.45c0,0.2,0.06,0.37,0.18,0.51c0.12,0.13,0.26,0.2,0.42,0.2c0.21,0,0.5,-0.14,0.85,-0.42m2.72,-0.58c-0.24,-0.11,-0.42,-0.28,-0.55,-0.49c-0.12,-0.21,-0.19,-0.44,-0.19,-0.69c0,-0.38,0.14,-0.72,0.44,-1c0.29,-0.28,0.66,-0.42,1.12,-0.42c0.37,0,0.7,0.09,0.97,0.27l0.83,0c0.12,0,0.19,0,0.21,0.01c0.02,0,0.03,0.01,0.04,0.03c0.01,0.02,0.02,0.07,0.02,0.13c0,0.07,0,0.12,-0.02,0.15c0,0.01,-0.02,0.02,-0.04,0.03c-0.02,0,-0.09,0.01,-0.21,0.01l-0.51,0c0.16,0.2,0.24,0.46,0.24,0.79c0,0.36,-0.14,0.68,-0.42,0.94c-0.28,0.26,-0.65,0.39,-1.13,0.39c-0.19,0,-0.39,-0.02,-0.59,-0.08c-0.12,0.1,-0.21,0.2,-0.25,0.28c-0.04,0.08,-0.06,0.15,-0.06,0.2c0,0.04,0.02,0.09,0.07,0.14c0.04,0.04,0.13,0.07,0.27,0.09c0.08,0.01,0.28,0.02,0.6,0.03c0.59,0.01,0.97,0.03,1.14,0.06c0.26,0.03,0.47,0.13,0.63,0.29c0.15,0.16,0.23,0.35,0.23,0.59c0,0.32,-0.15,0.62,-0.45,0.91c-0.44,0.41,-1.02,0.62,-1.74,0.62c-0.55,0,-1.01,-0.12,-1.4,-0.37c-0.21,-0.14,-0.32,-0.29,-0.32,-0.44c0,-0.06,0.01,-0.13,0.04,-0.2c0.04,-0.1,0.14,-0.25,0.3,-0.44c0.02,-0.02,0.16,-0.18,0.43,-0.46c-0.14,-0.08,-0.25,-0.16,-0.31,-0.23c-0.06,-0.07,-0.09,-0.14,-0.09,-0.23c0,-0.1,0.04,-0.21,0.12,-0.35c0.08,-0.13,0.27,-0.32,0.56,-0.57m0.74,-2.41c-0.21,0,-0.38,0.08,-0.53,0.25c-0.14,0.16,-0.21,0.42,-0.21,0.77c0,0.45,0.09,0.8,0.29,1.05c0.14,0.18,0.33,0.28,0.56,0.28c0.21,0,0.39,-0.08,0.53,-0.24c0.14,-0.16,0.21,-0.41,0.21,-0.76c0,-0.45,-0.09,-0.81,-0.29,-1.06c-0.14,-0.18,-0.33,-0.28,-0.56,-0.28m-0.79,3.84c-0.13,0.14,-0.23,0.28,-0.3,0.4c-0.06,0.12,-0.1,0.24,-0.1,0.34c0,0.13,0.08,0.25,0.24,0.36c0.28,0.17,0.7,0.26,1.24,0.26c0.51,0,0.89,-0.09,1.14,-0.27c0.24,-0.18,0.36,-0.37,0.36,-0.58c0,-0.14,-0.07,-0.25,-0.21,-0.31c-0.14,-0.06,-0.44,-0.1,-0.88,-0.11c-0.64,-0.01,-1.14,-0.05,-1.48,-0.09m4.53,-3.21c0.46,-0.55,0.9,-0.83,1.31,-0.83c0.21,0,0.39,0.05,0.55,0.16c0.15,0.1,0.27,0.28,0.36,0.53c0.06,0.17,0.09,0.43,0.09,0.79l0,1.68c0,0.24,0.02,0.41,0.06,0.5c0.03,0.07,0.08,0.12,0.15,0.16c0.07,0.04,0.19,0.06,0.38,0.06l0,0.15l-1.94,0l0,-0.15l0.08,0c0.18,0,0.31,-0.02,0.38,-0.08c0.07,-0.05,0.12,-0.13,0.15,-0.24c0.01,-0.04,0.01,-0.17,0.01,-0.4l0,-1.61c0,-0.35,-0.04,-0.61,-0.13,-0.77c-0.09,-0.16,-0.24,-0.24,-0.47,-0.24c-0.34,0,-0.68,0.18,-1.01,0.55l0,2.07c0,0.26,0.01,0.43,0.04,0.49c0.04,0.08,0.09,0.14,0.16,0.18c0.07,0.03,0.21,0.05,0.42,0.05l0,0.15l-1.94,0l0,-0.15l0.08,0c0.2,0,0.33,-0.05,0.4,-0.15c0.07,-0.1,0.1,-0.29,0.1,-0.58l0,-1.46c0,-0.47,-0.01,-0.76,-0.03,-0.86c-0.02,-0.1,-0.05,-0.17,-0.09,-0.21c-0.04,-0.03,-0.1,-0.05,-0.17,-0.05c-0.08,0,-0.17,0.02,-0.28,0.06l-0.06,-0.15l1.18,-0.48l0.18,0l0,0.83m3.91,0.76c0,0.58,0.13,1.04,0.42,1.37c0.28,0.33,0.62,0.49,1,0.49c0.25,0,0.48,-0.07,0.67,-0.21c0.19,-0.14,0.35,-0.38,0.47,-0.72l0.13,0.08c-0.06,0.39,-0.23,0.74,-0.52,1.07c-0.28,0.32,-0.65,0.48,-1.08,0.48c-0.47,0,-0.87,-0.18,-1.21,-0.55c-0.33,-0.36,-0.5,-0.86,-0.5,-1.48c0,-0.67,0.17,-1.19,0.51,-1.57c0.34,-0.37,0.77,-0.56,1.29,-0.56c0.44,0,0.8,0.14,1.08,0.43c0.28,0.29,0.42,0.67,0.42,1.16l-2.71,0m0,-0.24l1.82,0c-0.01,-0.25,-0.04,-0.42,-0.09,-0.53c-0.07,-0.16,-0.17,-0.28,-0.32,-0.37c-0.14,-0.09,-0.29,-0.13,-0.44,-0.13c-0.23,0,-0.45,0.09,-0.63,0.27c-0.18,0.18,-0.29,0.44,-0.32,0.77m4.38,-2.52l0,1.29l0.91,0l0,0.3l-0.91,0l0,2.55c0,0.25,0.03,0.42,0.1,0.51c0.07,0.08,0.16,0.13,0.28,0.13c0.09,0,0.18,-0.02,0.27,-0.08c0.08,-0.05,0.15,-0.14,0.2,-0.26l0.16,0c-0.1,0.28,-0.24,0.49,-0.42,0.63c-0.18,0.14,-0.37,0.21,-0.56,0.21c-0.13,0,-0.26,-0.03,-0.38,-0.1c-0.12,-0.07,-0.21,-0.17,-0.27,-0.31c-0.06,-0.13,-0.09,-0.34,-0.09,-0.62l0,-2.64l-0.62,0l0,-0.14c0.15,-0.06,0.31,-0.16,0.48,-0.32c0.16,-0.15,0.31,-0.32,0.44,-0.53c0.06,-0.1,0.15,-0.3,0.27,-0.59l0.13,0m2.3,-0.88c0.12,0,0.22,0.04,0.3,0.12c0.08,0.08,0.12,0.18,0.12,0.3c0,0.12,-0.04,0.22,-0.12,0.3c-0.08,0.08,-0.18,0.12,-0.3,0.12c-0.12,0,-0.22,-0.04,-0.3,-0.12c-0.08,-0.08,-0.12,-0.18,-0.12,-0.3c0,-0.12,0.04,-0.22,0.12,-0.3c0.08,-0.08,0.18,-0.12,0.31,-0.12m0.35,2.05l0,3.16c0,0.24,0.01,0.41,0.05,0.49c0.03,0.08,0.08,0.14,0.15,0.18c0.07,0.04,0.19,0.06,0.38,0.06l0,0.15l-1.91,0l0,-0.15c0.19,0,0.32,-0.01,0.38,-0.05c0.06,-0.03,0.11,-0.09,0.15,-0.18c0.03,-0.08,0.05,-0.25,0.05,-0.49l0,-1.51c0,-0.42,-0.01,-0.7,-0.03,-0.82c-0.02,-0.09,-0.05,-0.15,-0.09,-0.19c-0.04,-0.03,-0.1,-0.05,-0.17,-0.05c-0.08,0,-0.17,0.02,-0.29,0.06l-0.06,-0.15l1.18,-0.48l0.18,0m4.5,2.84l-0.04,1.2l-3.47,0l0,-0.15l2.61,-3.48l-1.28,0c-0.27,0,-0.45,0.01,-0.54,0.05c-0.08,0.03,-0.15,0.1,-0.21,0.2c-0.07,0.14,-0.12,0.32,-0.13,0.53l-0.17,0l0.02,-1.09l3.3,0l0,0.15l-2.63,3.48l1.43,0c0.3,0,0.5,-0.02,0.61,-0.07c0.1,-0.05,0.19,-0.13,0.26,-0.26c0.04,-0.09,0.08,-0.28,0.11,-0.58l0.14,0m2.71,0.64c-0.4,0.31,-0.65,0.49,-0.76,0.54c-0.15,0.07,-0.31,0.1,-0.49,0.1c-0.27,0,-0.49,-0.09,-0.67,-0.27c-0.17,-0.18,-0.26,-0.43,-0.26,-0.73c0,-0.19,0.04,-0.35,0.12,-0.49c0.11,-0.19,0.32,-0.37,0.61,-0.55c0.29,-0.17,0.77,-0.38,1.45,-0.62l0,-0.15c0,-0.39,-0.06,-0.66,-0.18,-0.8c-0.12,-0.14,-0.3,-0.21,-0.54,-0.21c-0.18,0,-0.32,0.04,-0.42,0.14c-0.1,0.09,-0.16,0.2,-0.16,0.33l0,0.24c0,0.13,-0.03,0.23,-0.1,0.3c-0.06,0.07,-0.15,0.1,-0.26,0.1c-0.1,0,-0.19,-0.03,-0.26,-0.11c-0.06,-0.07,-0.1,-0.17,-0.1,-0.3c0,-0.24,0.12,-0.47,0.37,-0.67c0.25,-0.2,0.6,-0.3,1.06,-0.3c0.34,0,0.63,0.05,0.85,0.17c0.16,0.08,0.29,0.22,0.37,0.41c0.05,0.12,0.07,0.37,0.07,0.75l0,1.33c0,0.37,0,0.6,0.02,0.68c0.01,0.08,0.03,0.14,0.07,0.16c0.03,0.02,0.07,0.04,0.11,0.04c0.04,0,0.08,-0.01,0.12,-0.03c0.06,-0.03,0.17,-0.14,0.34,-0.31l0,0.24c-0.32,0.42,-0.62,0.64,-0.91,0.64c-0.14,0,-0.25,-0.04,-0.33,-0.14c-0.08,-0.09,-0.12,-0.26,-0.12,-0.49m0,-0.27l0,-1.49c-0.43,0.17,-0.71,0.29,-0.83,0.36c-0.22,0.12,-0.38,0.25,-0.48,0.39c-0.09,0.13,-0.14,0.28,-0.14,0.45c0,0.2,0.06,0.37,0.18,0.51c0.12,0.13,0.26,0.2,0.42,0.2c0.21,0,0.5,-0.14,0.85,-0.42m2.81,-4.38l0,1.29l0.91,0l0,0.3l-0.91,0l0,2.55c0,0.25,0.03,0.42,0.1,0.51c0.07,0.08,0.16,0.13,0.28,0.13c0.09,0,0.18,-0.02,0.27,-0.08c0.08,-0.05,0.15,-0.14,0.2,-0.26l0.16,0c-0.1,0.28,-0.24,0.49,-0.42,0.63c-0.18,0.14,-0.37,0.21,-0.56,0.21c-0.13,0,-0.26,-0.03,-0.38,-0.1c-0.12,-0.07,-0.21,-0.17,-0.27,-0.31c-0.06,-0.13,-0.09,-0.34,-0.09,-0.62l0,-2.64l-0.62,0l0,-0.14c0.15,-0.06,0.31,-0.16,0.48,-0.32c0.16,-0.15,0.31,-0.32,0.44,-0.53c0.06,-0.1,0.15,-0.3,0.27,-0.59l0.13,0m2.3,-0.88c0.12,0,0.22,0.04,0.3,0.12c0.08,0.08,0.12,0.18,0.12,0.3c0,0.12,-0.04,0.22,-0.12,0.3c-0.08,0.08,-0.18,0.12,-0.3,0.12c-0.12,0,-0.22,-0.04,-0.3,-0.12c-0.08,-0.08,-0.12,-0.18,-0.12,-0.3c0,-0.12,0.04,-0.22,0.12,-0.3c0.08,-0.08,0.18,-0.12,0.31,-0.12m0.35,2.05l0,3.16c0,0.24,0.01,0.41,0.05,0.49c0.03,0.08,0.08,0.14,0.15,0.18c0.07,0.04,0.19,0.06,0.38,0.06l0,0.15l-1.91,0l0,-0.15c0.19,0,0.32,-0.01,0.38,-0.05c0.06,-0.03,0.11,-0.09,0.15,-0.18c0.03,-0.08,0.05,-0.25,0.05,-0.49l0,-1.51c0,-0.42,-0.01,-0.7,-0.03,-0.82c-0.02,-0.09,-0.05,-0.15,-0.09,-0.19c-0.04,-0.03,-0.1,-0.05,-0.17,-0.05c-0.08,0,-0.17,0.02,-0.29,0.06l-0.06,-0.15l1.18,-0.48l0.18,0m3.01,0c0.59,0,1.07,0.22,1.43,0.67c0.3,0.38,0.45,0.83,0.45,1.33c0,0.35,-0.08,0.7,-0.25,1.06c-0.16,0.36,-0.4,0.63,-0.69,0.81c-0.29,0.18,-0.62,0.27,-0.99,0.27c-0.59,0,-1.06,-0.23,-1.41,-0.7c-0.29,-0.39,-0.44,-0.84,-0.44,-1.34c0,-0.36,0.08,-0.71,0.26,-1.07c0.17,-0.35,0.41,-0.62,0.7,-0.79c0.29,-0.17,0.6,-0.25,0.92,-0.25m-0.13,0.27c-0.15,0,-0.3,0.04,-0.45,0.13c-0.15,0.09,-0.27,0.24,-0.37,0.47c-0.09,0.22,-0.14,0.51,-0.14,0.87c0,0.57,0.11,1.06,0.34,1.48c0.22,0.41,0.52,0.62,0.9,0.62c0.27,0,0.5,-0.11,0.68,-0.34c0.18,-0.22,0.27,-0.62,0.27,-1.18c0,-0.69,-0.15,-1.24,-0.45,-1.65c-0.2,-0.27,-0.46,-0.41,-0.77,-0.41m3.75,0.55c0.46,-0.55,0.9,-0.83,1.31,-0.83c0.21,0,0.39,0.05,0.55,0.16c0.15,0.1,0.27,0.28,0.36,0.53c0.06,0.17,0.09,0.43,0.09,0.79l0,1.68c0,0.24,0.02,0.41,0.06,0.5c0.03,0.07,0.08,0.12,0.15,0.16c0.07,0.04,0.19,0.06,0.38,0.06l0,0.15l-1.94,0l0,-0.15l0.08,0c0.18,0,0.31,-0.02,0.38,-0.08c0.07,-0.05,0.12,-0.13,0.15,-0.24c0.01,-0.04,0.01,-0.17,0.01,-0.4l0,-1.61c0,-0.35,-0.04,-0.61,-0.13,-0.77c-0.09,-0.16,-0.24,-0.24,-0.47,-0.24c-0.34,0,-0.68,0.18,-1.01,0.55l0,2.07c0,0.26,0.01,0.43,0.04,0.49c0.04,0.08,0.09,0.14,0.16,0.18c0.07,0.03,0.21,0.05,0.42,0.05l0,0.15l-1.94,0l0,-0.15l0.08,0c0.2,0,0.33,-0.05,0.4,-0.15c0.07,-0.1,0.1,-0.29,0.1,-0.58l0,-1.46c0,-0.47,-0.01,-0.76,-0.03,-0.86c-0.02,-0.1,-0.05,-0.17,-0.09,-0.21c-0.04,-0.03,-0.1,-0.05,-0.17,-0.05c-0.08,0,-0.17,0.02,-0.28,0.06l-0.06,-0.15l1.18,-0.48l0.18,0l0,0.83m3.45,4.68l0,-0.18c0.29,-0.09,0.52,-0.24,0.68,-0.45c0.16,-0.2,0.24,-0.42,0.24,-0.65c0,-0.05,-0.01,-0.1,-0.03,-0.13c-0.02,-0.02,-0.04,-0.03,-0.06,-0.03c-0.03,0,-0.1,0.02,-0.2,0.08c-0.05,0.02,-0.1,0.03,-0.16,0.03c-0.14,0,-0.25,-0.04,-0.33,-0.12c-0.08,-0.08,-0.12,-0.19,-0.12,-0.34c0,-0.14,0.05,-0.26,0.16,-0.36c0.1,-0.1,0.23,-0.15,0.39,-0.15c0.18,0,0.35,0.08,0.5,0.24c0.14,0.16,0.22,0.38,0.22,0.65c0,0.29,-0.1,0.56,-0.3,0.82c-0.2,0.25,-0.52,0.45,-0.97,0.59m7.52,-1.46l-2.25,-4.9l0,3.89c0,0.35,0.03,0.58,0.11,0.67c0.1,0.12,0.27,0.18,0.5,0.18l0.2,0l0,0.15l-2.02,0l0,-0.15l0.2,0c0.24,0,0.42,-0.07,0.52,-0.22c0.06,-0.09,0.09,-0.3,0.09,-0.62l0,-3.8c0,-0.25,-0.02,-0.44,-0.08,-0.55c-0.04,-0.08,-0.11,-0.15,-0.22,-0.2c-0.1,-0.05,-0.28,-0.08,-0.51,-0.08l0,-0.15l1.65,0l2.11,4.55l2.07,-4.55l1.65,0l0,0.15l-0.2,0c-0.24,0,-0.42,0.07,-0.52,0.22c-0.06,0.09,-0.09,0.3,-0.09,0.62l0,3.8c0,0.35,0.04,0.58,0.12,0.67c0.1,0.12,0.27,0.18,0.5,0.18l0.2,0l0,0.15l-2.47,0l0,-0.15l0.2,0c0.24,0,0.42,-0.07,0.52,-0.22c0.06,-0.09,0.09,-0.3,0.09,-0.62l0,-3.89l-2.24,4.9l-0.14,0" fill="#000000" stroke="none" fill-opacity="1"/>
<path d="m65.94,-1.4l1.51,-1.51l-1.51,-1.51l0.24,-0.24l1.51,1.51l1.51,-1.51l0.24,0.24l-1.51,1.51l1.52,1.52l-0.24,0.24l-1.52,-1.52l-1.51,1.51l-0.24,-0.24m7.48,-3.84l1.41,-0.69l0.14,0l0,4.91c0,0.32,0.01,0.52,0.04,0.61c0.02,0.08,0.08,0.14,0.16,0.18c0.08,0.04,0.26,0.06,0.52,0.07l0,0.15l-2.19,0l0,-0.15c0.27,0,0.45,-0.02,0.53,-0.07c0.08,-0.04,0.13,-0.09,0.16,-0.16c0.03,-0.07,0.04,-0.28,0.04,-0.62l0,-3.14c0,-0.42,-0.01,-0.69,-0.04,-0.81c-0.02,-0.09,-0.05,-0.15,-0.1,-0.2c-0.05,-0.04,-0.11,-0.06,-0.19,-0.06c-0.1,0,-0.25,0.04,-0.44,0.13l-0.06,-0.13m3.68,2.37c0,-0.66,0.1,-1.23,0.3,-1.71c0.2,-0.47,0.46,-0.83,0.79,-1.07c0.25,-0.18,0.52,-0.27,0.79,-0.27c0.44,0,0.84,0.22,1.2,0.68c0.44,0.56,0.66,1.32,0.66,2.29c0,0.67,-0.09,1.25,-0.29,1.72c-0.19,0.47,-0.44,0.81,-0.74,1.02c-0.3,0.21,-0.59,0.32,-0.87,0.32c-0.55,0,-1.01,-0.32,-1.38,-0.98c-0.31,-0.55,-0.46,-1.21,-0.46,-1.99m0.84,0.1c0,0.8,0.09,1.45,0.29,1.96c0.16,0.42,0.4,0.64,0.73,0.64c0.15,0,0.31,-0.06,0.48,-0.2c0.16,-0.13,0.29,-0.37,0.37,-0.69c0.13,-0.49,0.19,-1.18,0.19,-2.08c0,-0.66,-0.06,-1.21,-0.2,-1.66c-0.1,-0.32,-0.23,-0.56,-0.39,-0.7c-0.11,-0.09,-0.25,-0.14,-0.42,-0.14c-0.19,0,-0.36,0.08,-0.51,0.26c-0.2,0.23,-0.34,0.61,-0.42,1.12c-0.07,0.5,-0.11,1.01,-0.11,1.5" fill="#000000" stroke="none" fill-opacity="1"/>
<path d="m83.57,-7.47l0,0.09c-0.22,0.02,-0.41,0.06,-0.55,0.13c-0.14,0.06,-0.28,0.17,-0.42,0.31c-0.14,0.13,-0.25,0.29,-0.34,0.46c-0.09,0.17,-0.16,0.37,-0.23,0.61c0.24,-0.17,0.49,-0.25,0.74,-0.25c0.23,0,0.44,0.09,0.62,0.28c0.17,0.19,0.26,0.44,0.26,0.74c0,0.29,-0.08,0.56,-0.26,0.8c-0.21,0.29,-0.49,0.43,-0.84,0.43c-0.23,0,-0.44,-0.07,-0.61,-0.23c-0.32,-0.3,-0.49,-0.7,-0.49,-1.2c0,-0.31,0.06,-0.61,0.18,-0.89c0.12,-0.28,0.3,-0.53,0.53,-0.75c0.23,-0.21,0.45,-0.36,0.67,-0.44c0.21,-0.07,0.41,-0.11,0.59,-0.11l0.15,0m-1.6,1.81c-0.03,0.23,-0.04,0.42,-0.04,0.56c0,0.16,0.03,0.34,0.09,0.53c0.06,0.19,0.15,0.34,0.27,0.46c0.08,0.08,0.19,0.12,0.32,0.12c0.15,0,0.28,-0.07,0.4,-0.21c0.11,-0.14,0.17,-0.34,0.17,-0.6c0,-0.29,-0.05,-0.55,-0.17,-0.76c-0.11,-0.21,-0.28,-0.32,-0.49,-0.32c-0.06,0,-0.13,0.01,-0.21,0.04c-0.07,0.02,-0.18,0.08,-0.33,0.17" fill="#000000" stroke="none" fill-opacity="1"/>
<path d="m88.78,1.72l0,0.15c-0.43,-0.21,-0.79,-0.47,-1.08,-0.76c-0.41,-0.41,-0.73,-0.9,-0.95,-1.46c-0.22,-0.56,-0.33,-1.15,-0.33,-1.75c0,-0.88,0.21,-1.69,0.65,-2.42c0.43,-0.73,1,-1.25,1.71,-1.57l0,0.18c-0.35,0.19,-0.64,0.46,-0.86,0.79c-0.22,0.33,-0.39,0.76,-0.5,1.28c-0.11,0.51,-0.16,1.05,-0.16,1.62c0,0.61,0.04,1.17,0.14,1.67c0.07,0.39,0.16,0.71,0.27,0.95c0.1,0.23,0.24,0.46,0.42,0.68c0.17,0.22,0.41,0.43,0.7,0.63m4.22,-3.67l-2.25,0l-0.39,0.91c-0.09,0.22,-0.14,0.39,-0.14,0.5c0,0.08,0.04,0.16,0.12,0.23c0.08,0.06,0.26,0.11,0.54,0.13l0,0.15l-1.83,0l0,-0.15c0.24,-0.04,0.4,-0.09,0.47,-0.16c0.14,-0.13,0.3,-0.41,0.48,-0.83l2.04,-4.79l0.15,0l2.02,4.84c0.16,0.38,0.31,0.64,0.44,0.75c0.13,0.11,0.31,0.18,0.55,0.19l0,0.15l-2.29,0l0,-0.15c0.23,-0.01,0.38,-0.05,0.47,-0.11c0.08,-0.06,0.12,-0.14,0.12,-0.24c0,-0.12,-0.05,-0.32,-0.17,-0.59l-0.35,-0.83m-0.12,-0.31l-0.98,-2.35l-1.01,2.35l2,0m4.91,-3.84l-2.1,6.23l-0.34,0l2.1,-6.23l0.34,0m1.42,2.89c0.28,-0.28,0.45,-0.45,0.5,-0.49c0.12,-0.1,0.26,-0.19,0.41,-0.25c0.14,-0.06,0.29,-0.09,0.44,-0.09c0.24,0,0.45,0.07,0.63,0.21c0.17,0.14,0.29,0.35,0.35,0.62c0.29,-0.34,0.54,-0.56,0.74,-0.67c0.2,-0.1,0.41,-0.16,0.62,-0.16c0.2,0,0.39,0.05,0.55,0.16c0.16,0.1,0.29,0.28,0.38,0.52c0.06,0.16,0.09,0.42,0.09,0.78l0,1.69c0,0.24,0.01,0.41,0.05,0.5c0.02,0.06,0.08,0.11,0.15,0.16c0.07,0.04,0.2,0.06,0.37,0.06l0,0.15l-1.94,0l0,-0.15l0.08,0c0.16,0,0.3,-0.03,0.39,-0.09c0.06,-0.04,0.11,-0.11,0.14,-0.21c0.01,-0.04,0.01,-0.18,0.01,-0.41l0,-1.69c0,-0.32,-0.03,-0.54,-0.11,-0.67c-0.11,-0.18,-0.29,-0.27,-0.53,-0.27c-0.15,0,-0.3,0.03,-0.45,0.11c-0.15,0.07,-0.33,0.21,-0.55,0.42l0,0.04l0,0.18l0,1.87c0,0.26,0.01,0.43,0.04,0.5c0.03,0.06,0.08,0.12,0.16,0.16c0.08,0.04,0.22,0.06,0.42,0.06l0,0.15l-1.98,0l0,-0.15c0.21,0,0.36,-0.02,0.44,-0.07c0.08,-0.05,0.13,-0.12,0.16,-0.23c0.01,-0.04,0.02,-0.19,0.02,-0.42l0,-1.69c0,-0.32,-0.04,-0.55,-0.14,-0.69c-0.12,-0.18,-0.3,-0.27,-0.52,-0.27c-0.15,0,-0.3,0.04,-0.45,0.12c-0.23,0.12,-0.42,0.26,-0.55,0.42l0,2.1c0,0.25,0.01,0.42,0.05,0.5c0.03,0.07,0.08,0.13,0.15,0.17c0.07,0.03,0.21,0.05,0.42,0.05l0,0.15l-1.94,0l0,-0.15c0.18,0,0.3,-0.01,0.37,-0.05c0.07,-0.03,0.12,-0.1,0.16,-0.18c0.03,-0.08,0.05,-0.24,0.05,-0.49l0,-1.5c0,-0.43,-0.01,-0.71,-0.03,-0.83c-0.02,-0.09,-0.05,-0.15,-0.09,-0.19c-0.04,-0.03,-0.1,-0.05,-0.17,-0.05c-0.08,0,-0.17,0.02,-0.28,0.06l-0.06,-0.15l1.18,-0.48l0.18,0l0,0.83m5.59,-2.71l0,-0.18c0.43,0.21,0.79,0.46,1.08,0.76c0.4,0.41,0.72,0.9,0.94,1.47c0.22,0.56,0.33,1.14,0.33,1.75c0,0.88,-0.21,1.69,-0.65,2.42c-0.43,0.73,-1,1.25,-1.71,1.57l0,-0.15c0.35,-0.19,0.64,-0.46,0.87,-0.8c0.22,-0.33,0.39,-0.76,0.5,-1.28c0.11,-0.51,0.16,-1.06,0.16,-1.62c0,-0.61,-0.04,-1.16,-0.14,-1.67c-0.07,-0.39,-0.16,-0.71,-0.26,-0.94c-0.1,-0.23,-0.24,-0.46,-0.42,-0.68c-0.17,-0.22,-0.41,-0.43,-0.7,-0.63" fill="#000000" stroke="none" fill-opacity="1"/>
</g>
<path d="m28.58,153.14l-4.63,0l0,-0.35l4.63,0l0,0.35m1.2,-2.5l1.41,-0.69l0.14,0l0,4.91c0,0.32,0.01,0.52,0.04,0.61c0.02,0.08,0.08,0.14,0.16,0.18c0.08,0.04,0.26,0.06,0.52,0.07l0,0.15l-2.19,0l0,-0.15c0.27,0,0.45,-0.02,0.53,-0.07c0.08,-0.04,0.13,-0.09,0.16,-0.16c0.03,-0.07,0.04,-0.28,0.04,-0.62l0,-3.14c0,-0.42,-0.01,-0.69,-0.04,-0.81c-0.02,-0.09,-0.05,-0.15,-0.1,-0.2c-0.05,-0.04,-0.11,-0.06,-0.19,-0.06c-0.1,0,-0.25,0.04,-0.44,0.13l-0.06,-0.13" fill="#000000" stroke="none" fill-opacity="1"/>
<path d="m21.98,122.77l-4.63,0l0,-0.35l4.63,0l0,0.35m0.48,-0.12c0,-0.66,0.1,-1.23,0.3,-1.71c0.2,-0.47,0.46,-0.83,0.79,-1.07c0.25,-0.18,0.52,-0.27,0.79,-0.27c0.44,0,0.84,0.22,1.2,0.68c0.44,0.56,0.66,1.32,0.66,2.29c0,0.67,-0.09,1.25,-0.29,1.72c-0.19,0.47,-0.44,0.81,-0.74,1.02c-0.3,0.21,-0.59,0.32,-0.87,0.32c-0.55,0,-1.01,-0.32,-1.38,-0.98c-0.31,-0.55,-0.46,-1.21,-0.46,-1.99m0.84,0.1c0,0.8,0.09,1.45,0.29,1.96c0.16,0.42,0.4,0.64,0.73,0.64c0.15,0,0.31,-0.06,0.48,-0.2c0.16,-0.13,0.29,-0.37,0.37,-0.69c0.13,-0.49,0.19,-1.18,0.19,-2.08c0,-0.66,-0.06,-1.21,-0.2,-1.66c-0.1,-0.32,-0.23,-0.56,-0.39,-0.7c-0.11,-0.09,-0.25,-0.14,-0.42,-0.14c-0.19,0,-0.36,0.08,-0.51,0.26c-0.2,0.23,-0.34,0.61,-0.42,1.12c-0.07,0.5,-0.11,1.01,-0.11,1.5m4.33,1.93c0.13,0,0.24,0.04,0.33,0.13c0.09,0.09,0.13,0.2,0.13,0.33c0,0.13,-0.04,0.24,-0.13,0.33c-0.09,0.09,-0.2,0.13,-0.33,0.13c-0.13,0,-0.24,-0.04,-0.33,-0.13c-0.09,-0.09,-0.13,-0.2,-0.13,-0.33c0,-0.13,0.04,-0.24,0.13,-0.33c0.09,-0.09,0.2,-0.13,0.33,-0.13m4.91,-4.99l-0.33,0.73l-1.75,0l-0.38,0.78c0.75,0.11,1.36,0.39,1.8,0.84c0.38,0.38,0.57,0.84,0.57,1.37c0,0.3,-0.06,0.59,-0.18,0.85c-0.12,0.26,-0.28,0.48,-0.47,0.66c-0.18,0.18,-0.39,0.33,-0.63,0.44c-0.32,0.15,-0.66,0.23,-1.01,0.23c-0.34,0,-0.6,-0.05,-0.76,-0.17c-0.15,-0.11,-0.23,-0.24,-0.23,-0.39c0,-0.08,0.03,-0.15,0.09,-0.21c0.06,-0.06,0.14,-0.09,0.24,-0.09c0.07,0,0.13,0.01,0.19,0.03c0.05,0.02,0.15,0.08,0.28,0.17c0.21,0.14,0.43,0.22,0.65,0.22c0.33,0,0.62,-0.12,0.88,-0.38c0.25,-0.25,0.38,-0.56,0.38,-0.92c0,-0.35,-0.11,-0.68,-0.33,-0.98c-0.22,-0.3,-0.53,-0.54,-0.93,-0.7c-0.31,-0.12,-0.73,-0.2,-1.27,-0.22l1.11,-2.26l2.08,0" fill="#000000" stroke="none" fill-opacity="1"/>
<path d="m29.07,92.27c0,-0.66,0.1,-1.23,0.3,-1.71c0.2,-0.47,0.46,-0.83,0.79,-1.07c0.25,-0.18,0.52,-0.27,0.79,-0.27c0.44,0,0.84,0.22,1.2,0.68c0.44,0.56,0.66,1.32,0.66,2.29c0,0.67,-0.09,1.25,-0.29,1.72c-0.19,0.47,-0.44,0.81,-0.74,1.02c-0.3,0.21,-0.59,0.32,-0.87,0.32c-0.55,0,-1.01,-0.32,-1.38,-0.98c-0.31,-0.55,-0.46,-1.21,-0.46,-1.99m0.84,0.1c0,0.8,0.09,1.45,0.29,1.96c0.16,0.42,0.4,0.64,0.73,0.64c0.15,0,0.31,-0.06,0.48,-0.2c0.16,-0.13,0.29,-0.37,0.37,-0.69c0.13,-0.49,0.19,-1.18,0.19,-2.08c0,-0.66,-0.06,-1.21,-0.2,-1.66c-0.1,-0.32,-0.23,-0.56,-0.39,-0.7c-0.11,-0.09,-0.25,-0.14,-0.42,-0.14c-0.19,0,-0.36,0.08,-0.51,0.26c-0.2,0.23,-0.34,0.61,-0.42,1.12c-0.07,0.5,-0.11,1.01,-0.11,1.5" fill="#000000" stroke="none" fill-opacity="1"/>
<path d="m22.47,61.9c0,-0.66,0.1,-1.23,0.3,-1.71c0.2,-0.47,0.46,-0.83,0.79,-1.07c0.25,-0.18,0.52,-0.27,0.79,-0.27c0.44,0,0.84,0.22,1.2,0.68c0.44,0.56,0.66,1.32,0.66,2.29c0,0.67,-0.09,1.25,-0.29,1.72c-0.19,0.47,-0.44,0.81,-0.74,1.02c-0.3,0.21,-0.59,0.32,-0.87,0.32c-0.55,0,-1.01,-0.32,-1.38,-0.98c-0.31,-0.55,-0.46,-1.21,-0.46,-1.99m0.84,0.1c0,0.8,0.09,1.45,0.29,1.96c0.16,0.42,0.4,0.64,0.73,0.64c0.15,0,0.31,-0.06,0.48,-0.2c0.16,-0.13,0.29,-0.37,0.37,-0.69c0.13,-0.49,0.19,-1.18,0.19,-2.08c0,-0.66,-0.06,-1.21,-0.2,-1.66c-0.1,-0.32,-0.23,-0.56,-0.39,-0.7c-0.11,-0.09,-0.25,-0.14,-0.42,-0.14c-0.19,0,-0.36,0.08,-0.51,0.26c-0.2,0.23,-0.34,0.61,-0.42,1.12c-0.07,0.5,-0.11,1.01,-0.11,1.5m4.33,1.93c0.13,0,0.24,0.04,0.33,0.13c0.09,0.09,0.13,0.2,0.13,0.33c0,0.13,-0.04,0.24,-0.13,0.33c-0.09,0.09,-0.2,0.13,-0.33,0.13c-0.13,0,-0.24,-0.04,-0.33,-0.13c-0.09,-0.09,-0.13,-0.2,-0.13,-0.33c0,-0.13,0.04,-0.24,0.13,-0.33c0.09,-0.09,0.2,-0.13,0.33,-0.13m4.91,-4.99l-0.33,0.73l-1.75,0l-0.38,0.78c0.75,0.11,1.36,0.39,1.8,0.84c0.38,0.38,0.57,0.84,0.57,1.37c0,0.3,-0.06,0.59,-0.18,0.85c-0.12,0.26,-0.28,0.48,-0.47,0.66c-0.18,0.18,-0.39,0.33,-0.63,0.44c-0.32,0.15,-0.66,0.23,-1.01,0.23c-0.34,0,-0.6,-0.05,-0.76,-0.17c-0.15,-0.11,-0.23,-0.24,-0.23,-0.39c0,-0.08,0.03,-0.15,0.09,-0.21c0.06,-0.06,0.14,-0.09,0.24,-0.09c0.07,0,0.13,0.01,0.19,0.03c0.05,0.02,0.15,0.08,0.28,0.17c0.21,0.14,0.43,0.22,0.65,0.22c0.33,0,0.62,-0.12,0.88,-0.38c0.25,-0.25,0.38,-0.56,0.38,-0.92c0,-0.35,-0.11,-0.68,-0.33,-0.98c-0.22,-0.3,-0.53,-0.54,-0.93,-0.7c-0.31,-0.12,-0.73,-0.2,-1.27,-0.22l1.11,-2.26l2.08,0" fill="#000000" stroke="none" fill-opacity="1"/>
<path d="m29.78,29.15l1.41,-0.69l0.14,0l0,4.91c0,0.32,0.01,0.52,0.04,0.61c0.02,0.08,0.08,0.14,0.16,0.18c0.08,0.04,0.26,0.06,0.52,0.07l0,0.15l-2.19,0l0,-0.15c0.27,0,0.45,-0.02,0.53,-0.07c0.08,-0.04,0.13,-0.09,0.16,-0.16c0.03,-0.07,0.04,-0.28,0.04,-0.62l0,-3.14c0,-0.42,-0.01,-0.69,-0.04,-0.81c-0.02,-0.09,-0.05,-0.15,-0.1,-0.2c-0.05,-0.04,-0.11,-0.06,-0.19,-0.06c-0.1,0,-0.25,0.04,-0.44,0.13l-0.06,-0.13" fill="#000000" stroke="none" fill-opacity="1"/>
</g>
<g fill="none" stroke-linecap="butt" stroke-width="0.62">
<path d="M35.43,177.16l198.42,0"/>
<path d="M47.1,177.16l0,-1.87M61.69,177.16l0,-1.87M76.28,177.16l0,-1.87M90.87,177.16l0,-1.87M105.46,177.16l0,-1.87M120.05,177.16l0,-1.87M134.64,177.16l0,-1.87M149.23,177.16l0,-1.87M163.82,177.16l0,-1.87M178.41,177.16l0,-1.87M193,177.16l0,-1.87M207.59,177.16l0,-1.87M222.18,177.16l0,-1.87"/>
<path d="M47.1,177.16l0,-3.75M76.28,177.16l0,-3.75M105.46,177.16l0,-3.75M134.64,177.16l0,-3.75M163.82,177.16l0,-3.75M193,177.16l0,-3.75M222.18,177.16l0,-3.75"/>
</g>
<g fill="none" stroke-width="0.1">
<path d="m83.85,199.67l-2.25,-4.9l0,3.89c0,0.35,0.03,0.58,0.11,0.67c0.1,0.12,0.27,0.18,0.5,0.18l0.2,0l0,0.15l-2.02,0l0,-0.15l0.2,0c0.24,0,0.42,-0.07,0.52,-0.22c0.06,-0.09,0.09,-0.3,0.09,-0.62l0,-3.8c0,-0.25,-0.02,-0.44,-0.08,-0.55c-0.04,-0.08,-0.11,-0.15,-0.22,-0.2c-0.1,-0.05,-0.28,-0.08,-0.51,-0.08l0,-0.15l1.65,0l2.11,4.55l2.07,-4.55l1.65,0l0,0.15l-0.2,0c-0.24,0,-0.42,0.07,-0.52,0.22c-0.06,0.09,-0.09,0.3,-0.09,0.62l0,3.8c0,0.35,0.04,0.58,0.12,0.67c0.1,0.12,0.27,0.18,0.5,0.18l0.2,0l0,0.15l-2.47,0l0,-0.15l0.2,0c0.24,0,0.42,-0.07,0.52,-0.22c0.06,-0.09,0.09,-0.3,0.09,-0.62l0,-3.89l-2.24,4.9l-0.14,0m6.72,-0.56c-0.4,0.31,-0.65,0.49,-0.76,0.54c-0.15,0.07,-0.31,0.1,-0.49,0.1c-0.27,0,-0.49,-0.09,-0.67,-0.27c-0.17,-0.18,-0.26,-0.43,-0.26,-0.73c0,-0.19,0.04,-0.35,0.12,-0.49c0.11,-0.19,0.32,-0.37,0.61,-0.55c0.29,-0.17,0.77,-0.38,1.45,-0.62l0,-0.15c0,-0.39,-0.06,-0.66,-0.18,-0.8c-0.12,-0.14,-0.3,-0.21,-0.54,-0.21c-0.18,0,-0.32,0.04,-0.42,0.14c-0.1,0.09,-0.16,0.2,-0.16,0.33l0,0.24c0,0.13,-0.03,0.23,-0.1,0.3c-0.06,0.07,-0.15,0.1,-0.26,0.1c-0.1,0,-0.19,-0.03,-0.26,-0.11c-0.06,-0.07,-0.1,-0.17,-0.1,-0.3c0,-0.24,0.12,-0.47,0.37,-0.67c0.25,-0.2,0.6,-0.3,1.06,-0.3c0.34,0,0.63,0.05,0.85,0.17c0.16,0.08,0.29,0.22,0.37,0.41c0.05,0.12,0.07,0.37,0.07,0.75l0,1.33c0,0.37,0,0.6,0.02,0.68c0.01,0.08,0.03,0.14,0.07,0.16c0.03,0.02,0.07,0.04,0.11,0.04c0.04,0,0.08,-0.01,0.12,-0.03c0.06,-0.03,0.17,-0.14,0.34,-0.31l0,0.24c-0.32,0.42,-0.62,0.64,-0.91,0.64c-0.14,0,-0.25,-0.04,-0.33,-0.14c-0.08,-0.09,-0.12,-0.26,-0.12,-0.49m0,-0.27l0,-1.49c-0.43,0.17,-0.71,0.29,-0.83,0.36c-0.22,0.12,-0.38,0.25,-0.48,0.39c-0.09,0.13,-0.14,0.28,-0.14,0.45c0,0.2,0.06,0.37,0.18,0.51c0.12,0.13,0.26,0.2,0.42,0.2c0.21,0,0.5,-0.14,0.85,-0.42m2.72,-0.58c-0.24,-0.11,-0.42,-0.28,-0.55,-0.49c-0.12,-0.21,-0.19,-0.44,-0.19,-0.69c0,-0.38,0.14,-0.72,0.44,-1c0.29,-0.28,0.66,-0.42,1.12,-0.42c0.37,0,0.7,0.09,0.97,0.27l0.83,0c0.12,0,0.19,0,0.21,0.01c0.02,0,0.03,0.01,0.04,0.03c0.01,0.02,0.02,0.07,0.02,0.13c0,0.07,0,0.12,-0.02,0.15c0,0.01,-0.02,0.02,-0.04,0.03c-0.02,0,-0.09,0.01,-0.21,0.01l-0.51,0c0.16,0.2,0.24,0.46,0.24,0.79c0,0.36,-0.14,0.68,-0.42,0.94c-0.28,0.26,-0.65,0.39,-1.13,0.39c-0.19,0,-0.39,-0.02,-0.59,-0.08c-0.12,0.1,-0.21,0.2,-0.25,0.28c-0.04,0.08,-0.06,0.15,-0.06,0.2c0,0.04,0.02,0.09,0.07,0.14c0.04,0.04,0.13,0.07,0.27,0.09c0.08,0.01,0.28,0.02,0.6,0.03c0.59,0.01,0.97,0.03,1.14,0.06c0.26,0.03,0.47,0.13,0.63,0.29c0.15,0.16,0.23,0.35,0.23,0.59c0,0.32,-0.15,0.62,-0.45,0.91c-0.44,0.41,-1.02,0.62,-1.74,0.62c-0.55,0,-1.01,-0.12,-1.4,-0.37c-0.21,-0.14,-0.32,-0.29,-0.32,-0.44c0,-0.06,0.01,-0.13,0.04,-0.2c0.04,-0.1,0.14,-0.25,0.3,-0.44c0.02,-0.02,0.16,-0.18,0.43,-0.46c-0.14,-0.08,-0.25,-0.16,-0.31,-0.23c-0.06,-0.07,-0.09,-0.14,-0.09,-0.23c0,-0.1,0.04,-0.21,0.12,-0.35c0.08,-0.13,0.27,-0.32,0.56,-0.57m0.74,-2.41c-0.21,0,-0.38,0.08,-0.53,0.25c-0.14,0.16,-0.21,0.42,-0.21,0.77c0,0.45,0.09,0.8,0.29,1.05c0.14,0.18,0.33,0.28,0.56,0.28c0.21,0,0.39,-0.08,0.53,-0.24c0.14,-0.16,0.21,-0.41,0.21,-0.76c0,-0.45,-0.09,-0.81,-0.29,-1.06c-0.14,-0.18,-0.33,-0.28,-0.56,-0.28m-0.79,3.84c-0.13,0.14,-0.23,0.28,-0.3,0.4c-0.06,0.12,-0.1,0.24,-0.1,0.34c0,0.13,0.08,0.25,0.24,0.36c0.28,0.17,0.7,0.26,1.24,0.26c0.51,0,0.89,-0.09,1.14,-0.27c0.24,-0.18,0.36,-0.37,0.36,-0.58c0,-0.14,-0.07,-0.25,-0.21,-0.31c-0.14,-0.06,-0.44,-0.1,-0.88,-0.11c-0.64,-0.01,-1.14,-0.05,-1.48,-0.09m4.53,-3.21c0.46,-0.55,0.9,-0.83,1.31,-0.83c0.21,0,0.39,0.05,0.55,0.16c0.15,0.1,0.27,0.28,0.36,0.53c0.06,0.17,0.09,0.43,0.09,0.79l0,1.68c0,0.24,0.02,0.41,0.06,0.5c0.03,0.07,0.08,0.12,0.15,0.16c0.07,0.04,0.19,0.06,0.38,0.06l0,0.15l-1.94,0l0,-0.15l0.08,0c0.18,0,0.31,-0.02,0.38,-0.08c0.07,-0.05,0.12,-0.13,0.15,-0.24c0.01,-0.04,0.01,-0.17,0.01,-0.4l0,-1.61c0,-0.35,-0.04,-0.61,-0.13,-0.77c-0.09,-0.16,-0.24,-0.24,-0.47,-0.24c-0.34,0,-0.68,0.18,-1.01,0.55l0,2.07c0,0.26,0.01,0.43,0.04,0.49c0.04,0.08,0.09,0.14,0.16,0.18c0.07,0.03,0.21,0.05,0.42,0.05l0,0.15l-1.94,0l0,-0.15l0.08,0c0.2,0,0.33,-0.05,0.4,-0.15c0.07,-0.1,0.1,-0.29,0.1,-0.58l0,-1.46c0,-0.47,-0.01,-0.76,-0.03,-0.86c-0.02,-0.1,-0.05,-0.17,-0.09,-0.21c-0.04,-0.03,-0.1,-0.05,-0.17,-0.05c-0.08,0,-0.17,0.02,-0.28,0.06l-0.06,-0.15l1.18,-0.48l0.18,0l0,0.83m3.91,0.76c0,0.58,0.13,1.04,0.42,1.37c0.28,0.33,0.62,0.49,1,0.49c0.25,0,0.48,-0.07,0.67,-0.21c0.19,-0.14,0.35,-0.38,0.47,-0.72l0.13,0.08c-0.06,0.39,-0.23,0.74,-0.52,1.07c-0.28,0.32,-0.65,0.48,-1.08,0.48c-0.47,0,-0.87,-0.18,-1.21,-0.55c-0.33,-0.36,-0.5,-0.86,-0.5,-1.48c0,-0.67,0.17,-1.19,0.51,-1.57c0.34,-0.37,0.77,-0.56,1.29,-0.56c0.44,0,0.8,0.14,1.08,0.43c0.28,0.29,0.42,0.67,0.42,1.16l-2.71,0m0,-0.24l1.82,0c-0.01,-0.25,-0.04,-0.42,-0.09,-0.53c-0.07,-0.16,-0.17,-0.28,-0.32,-0.37c-0.14,-0.09,-0.29,-0.13,-0.44,-0.13c-0.23,0,-0.45,0.09,-0.63,0.27c-0.18,0.18,-0.29,0.44,-0.32,0.77m4.38,-2.52l0,1.29l0.91,0l0,0.3l-0.91,0l0,2.55c0,0.25,0.03,0.42,0.1,0.51c0.07,0.08,0.16,0.13,0.28,0.13c0.09,0,0.18,-0.02,0.27,-0.08c0.08,-0.05,0.15,-0.14,0.2,-0.26l0.16,0c-0.1,0.28,-0.24,0.49,-0.42,0.63c-0.18,0.14,-0.37,0.21,-0.56,0.21c-0.13,0,-0.26,-0.03,-0.38,-0.1c-0.12,-0.07,-0.21,-0.17,-0.27,-0.31c-0.06,-0.13,-0.09,-0.34,-0.09,-0.62l0,-2.64l-0.62,0l0,-0.14c0.15,-0.06,0.31,-0.16,0.48,-0.32c0.16,-0.15,0.31,-0.32,0.44,-0.53c0.06,-0.1,0.15,-0.3,0.27,-0.59l0.13,0m2.3,-0.88c0.12,0,0.22,0.04,0.3,0.12c0.08,0.08,0.12,0.18,0.12,0.3c0,0.12,-0.04,0.22,-0.12,0.3c-0.08,0.08,-0.18,0.12,-0.3,0.12c-0.12,0,-0.22,-0.04,-0.3,-0.12c-0.08,-0.08,-0.12,-0.18,-0.12,-0.3c0,-0.12,0.04,-0.22,0.12,-0.3c0.08,-0.08,0.18,-0.12,0.31,-0.12m0.35,2.05l0,3.16c0,0.24,0.01,0.41,0.05,0.49c0.03,0.08,0.08,0.14,0.15,0.18c0.07,0.04,0.19,0.06,0.38,0.06l0,0.15l-1.91,0l0,-0.15c0.19,0,0.32,-0.01,0.38,-0.05c0.06,-0.03,0.11,-0.09,0.15,-0.18c0.03,-0.08,0.05,-0.25,0.05,-0.49l0,-1.51c0,-0.42,-0.01,-0.7,-0.03,-0.82c-0.02,-0.09,-0.05,-0.15,-0.09,-0.19c-0.04,-0.03,-0.1,-0.05,-0.17,-0.05c-0.08,0,-0.17,0.02,-0.29,0.06l-0.06,-0.15l1.18,-0.48l0.18,0m4.42,2.55c-0.1,0.51,-0.31,0.91,-0.62,1.19c-0.3,0.27,-0.65,0.41,-1.02,0.41c-0.44,0,-0.83,-0.18,-1.16,-0.56c-0.33,-0.37,-0.49,-0.88,-0.49,-1.52c0,-0.61,0.18,-1.12,0.55,-1.5c0.36,-0.38,0.81,-0.58,1.32,-0.58c0.38,0,0.7,0.1,0.95,0.3c0.24,0.2,0.37,0.41,0.37,0.63c0,0.1,-0.03,0.19,-0.1,0.26c-0.07,0.06,-0.16,0.1,-0.29,0.1c-0.16,0,-0.29,-0.05,-0.38,-0.16c-0.04,-0.06,-0.08,-0.17,-0.09,-0.34c-0.01,-0.16,-0.07,-0.29,-0.17,-0.38c-0.1,-0.08,-0.23,-0.12,-0.41,-0.12c-0.28,0,-0.51,0.1,-0.69,0.31c-0.23,0.28,-0.34,0.65,-0.34,1.11c0,0.46,0.11,0.88,0.34,1.24c0.23,0.35,0.54,0.53,0.93,0.53c0.28,0,0.53,-0.09,0.75,-0.28c0.15,-0.13,0.31,-0.37,0.45,-0.71l0.12,0.06m4.28,-4.01l0,2.29l1.06,0c0.24,0,0.42,-0.05,0.53,-0.16c0.11,-0.1,0.18,-0.32,0.22,-0.63l0.15,0l0,1.97l-0.15,0c0,-0.22,-0.03,-0.39,-0.08,-0.49c-0.05,-0.1,-0.13,-0.18,-0.23,-0.23c-0.09,-0.05,-0.24,-0.07,-0.44,-0.07l-1.06,0l0,1.83c0,0.29,0.01,0.48,0.05,0.58c0.02,0.07,0.08,0.13,0.18,0.18c0.12,0.06,0.25,0.1,0.39,0.1l0.21,0l0,0.15l-2.5,0l0,-0.15l0.2,0c0.24,0,0.41,-0.07,0.52,-0.21c0.06,-0.09,0.1,-0.31,0.1,-0.66l0,-3.76c0,-0.29,-0.01,-0.48,-0.05,-0.58c-0.02,-0.07,-0.08,-0.13,-0.17,-0.18c-0.12,-0.06,-0.25,-0.1,-0.39,-0.1l-0.2,0l0,-0.15l4.33,0l0.05,1.28l-0.15,0c-0.07,-0.27,-0.16,-0.47,-0.26,-0.59c-0.09,-0.12,-0.22,-0.21,-0.36,-0.27c-0.14,-0.05,-0.36,-0.08,-0.67,-0.08l-1.28,0m4.36,-0.6c0.12,0,0.22,0.04,0.3,0.12c0.08,0.08,0.12,0.18,0.12,0.3c0,0.12,-0.04,0.22,-0.12,0.3c-0.08,0.08,-0.18,0.12,-0.3,0.12c-0.12,0,-0.22,-0.04,-0.3,-0.12c-0.08,-0.08,-0.12,-0.18,-0.12,-0.3c0,-0.12,0.04,-0.22,0.12,-0.3c0.08,-0.08,0.18,-0.12,0.31,-0.12m0.35,2.05l0,3.16c0,0.24,0.01,0.41,0.05,0.49c0.03,0.08,0.08,0.14,0.15,0.18c0.07,0.04,0.19,0.06,0.38,0.06l0,0.15l-1.91,0l0,-0.15c0.19,0,0.32,-0.01,0.38,-0.05c0.06,-0.03,0.11,-0.09,0.15,-0.18c0.03,-0.08,0.05,-0.25,0.05,-0.49l0,-1.51c0,-0.42,-0.01,-0.7,-0.03,-0.82c-0.02,-0.09,-0.05,-0.15,-0.09,-0.19c-0.04,-0.03,-0.1,-0.05,-0.17,-0.05c-0.08,0,-0.17,0.02,-0.29,0.06l-0.06,-0.15l1.18,-0.48l0.18,0m1.74,1.59c0,0.58,0.13,1.04,0.42,1.37c0.28,0.33,0.62,0.49,1,0.49c0.25,0,0.48,-0.07,0.67,-0.21c0.19,-0.14,0.35,-0.38,0.47,-0.72l0.13,0.08c-0.06,0.39,-0.23,0.74,-0.52,1.07c-0.28,0.32,-0.65,0.48,-1.08,0.48c-0.47,0,-0.87,-0.18,-1.21,-0.55c-0.33,-0.36,-0.5,-0.86,-0.5,-1.48c0,-0.67,0.17,-1.19,0.51,-1.57c0.34,-0.37,0.77,-0.56,1.29,-0.56c0.44,0,0.8,0.14,1.08,0.43c0.28,0.29,0.42,0.67,0.42,1.16l-2.71,0m0,-0.24l1.82,0c-0.01,-0.25,-0.04,-0.42,-0.09,-0.53c-0.07,-0.16,-0.17,-0.28,-0.32,-0.37c-0.14,-0.09,-0.29,-0.13,-0.44,-0.13c-0.23,0,-0.45,0.09,-0.63,0.27c-0.18,0.18,-0.29,0.44,-0.32,0.77m4.59,-3.4l0,5.22c0,0.24,0.01,0.4,0.05,0.48c0.03,0.08,0.09,0.14,0.16,0.18c0.07,0.04,0.21,0.06,0.41,0.06l0,0.15l-1.92,0l0,-0.15c0.18,0,0.3,-0.01,0.36,-0.05c0.06,-0.03,0.11,-0.09,0.15,-0.18c0.03,-0.08,0.05,-0.25,0.05,-0.49l0,-3.57c0,-0.44,-0.01,-0.71,-0.03,-0.81c-0.02,-0.1,-0.05,-0.17,-0.09,-0.2c-0.04,-0.03,-0.1,-0.05,-0.16,-0.05c-0.07,0,-0.16,0.02,-0.28,0.06l-0.07,-0.15l1.17,-0.48l0.19,0m3.87,5.66c-0.19,0.2,-0.37,0.34,-0.56,0.43c-0.18,0.08,-0.38,0.13,-0.59,0.13c-0.42,0,-0.8,-0.17,-1.12,-0.53c-0.32,-0.35,-0.48,-0.82,-0.48,-1.38c0,-0.56,0.17,-1.08,0.53,-1.54c0.35,-0.46,0.81,-0.7,1.37,-0.7c0.34,0,0.63,0.11,0.85,0.33l0,-0.72c0,-0.44,-0.01,-0.72,-0.03,-0.82c-0.02,-0.1,-0.05,-0.17,-0.1,-0.21c-0.04,-0.03,-0.1,-0.05,-0.17,-0.05c-0.07,0,-0.17,0.02,-0.29,0.06l-0.05,-0.15l1.17,-0.48l0.19,0l0,4.55c0,0.46,0.01,0.74,0.03,0.84c0.02,0.1,0.05,0.17,0.1,0.21c0.04,0.04,0.1,0.06,0.16,0.06c0.07,0,0.18,-0.02,0.3,-0.07l0.04,0.15l-1.16,0.48l-0.19,0l0,-0.56m0,-0.3l0,-2.02c-0.01,-0.19,-0.06,-0.37,-0.15,-0.53c-0.08,-0.16,-0.19,-0.28,-0.34,-0.36c-0.14,-0.08,-0.28,-0.12,-0.41,-0.12c-0.25,0,-0.47,0.11,-0.67,0.33c-0.26,0.29,-0.39,0.73,-0.39,1.3c0,0.57,0.12,1.02,0.37,1.32c0.25,0.3,0.53,0.46,0.84,0.46c0.26,0,0.51,-0.13,0.75,-0.39m1.81,2.2l0,-0.18c0.29,-0.09,0.52,-0.24,0.68,-0.45c0.16,-0.2,0.24,-0.42,0.24,-0.65c0,-0.05,-0.01,-0.1,-0.03,-0.13c-0.02,-0.02,-0.04,-0.03,-0.06,-0.03c-0.03,0,-0.1,0.02,-0.2,0.08c-0.05,0.02,-0.1,0.03,-0.16,0.03c-0.14,0,-0.25,-0.04,-0.33,-0.12c-0.08,-0.08,-0.12,-0.19,-0.12,-0.34c0,-0.14,0.05,-0.26,0.16,-0.36c0.1,-0.1,0.23,-0.15,0.39,-0.15c0.18,0,0.35,0.08,0.5,0.24c0.14,0.16,0.22,0.38,0.22,0.65c0,0.29,-0.1,0.56,-0.3,0.82c-0.2,0.25,-0.52,0.45,-0.97,0.59m5.73,-4.58l2.7,0l0,-1.66c0,-0.29,-0.01,-0.49,-0.05,-0.58c-0.02,-0.07,-0.08,-0.13,-0.18,-0.18c-0.12,-0.06,-0.25,-0.1,-0.39,-0.1l-0.2,0l0,-0.15l2.49,0l0,0.15l-0.2,0c-0.13,0,-0.26,0.03,-0.39,0.09c-0.09,0.04,-0.15,0.11,-0.18,0.2c-0.03,0.09,-0.04,0.28,-0.04,0.56l0,3.75c0,0.29,0.01,0.48,0.05,0.58c0.02,0.07,0.08,0.13,0.17,0.18c0.12,0.06,0.25,0.1,0.39,0.1l0.2,0l0,0.15l-2.49,0l0,-0.15l0.2,0c0.23,0,0.41,-0.07,0.51,-0.21c0.07,-0.09,0.1,-0.31,0.1,-0.66l0,-1.77l-2.7,0l0,1.77c0,0.29,0.01,0.48,0.05,0.58c0.02,0.07,0.08,0.13,0.18,0.18c0.12,0.06,0.25,0.1,0.39,0.1l0.21,0l0,0.15l-2.49,0l0,-0.15l0.2,0c0.24,0,0.41,-0.07,0.52,-0.21c0.06,-0.09,0.1,-0.31,0.1,-0.66l0,-3.75c0,-0.29,-0.01,-0.49,-0.05,-0.58c-0.02,-0.07,-0.08,-0.13,-0.17,-0.18c-0.12,-0.06,-0.25,-0.1,-0.39,-0.1l-0.2,0l0,-0.15l2.49,0l0,0.15l-0.21,0c-0.13,0,-0.26,0.03,-0.39,0.09c-0.08,0.04,-0.15,0.11,-0.18,0.2c-0.03,0.09,-0.05,0.28,-0.05,0.56l0,1.66" fill="#000000" stroke="none" fill-opacity="1"/>
<path d="m147.42,198.26l1.51,-1.51l-1.51,-1.51l0.24,-0.24l1.51,1.51l1.51,-1.51l0.24,0.24l-1.51,1.51l1.52,1.52l-0.24,0.24l-1.52,-1.52l-1.51,1.51l-0.24,-0.24m7.48,-3.84l1.41,-0.69l0.14,0l0,4.91c0,0.32,0.01,0.52,0.04,0.61c0.02,0.08,0.08,0.14,0.16,0.18c0.08,0.04,0.26,0.06,0.52,0.07l0,0.15l-2.19,0l0,-0.15c0.27,0,0.45,-0.02,0.53,-0.07c0.08,-0.04,0.13,-0.09,0.16,-0.16c0.03,-0.07,0.04,-0.28,0.04,-0.62l0,-3.14c0,-0.42,-0.01,-0.69,-0.04,-0.81c-0.02,-0.09,-0.05,-0.15,-0.1,-0.2c-0.05,-0.04,-0.11,-0.06,-0.19,-0.06c-0.1,0,-0.25,0.04,-0.44,0.13l-0.06,-0.13m3.68,2.37c0,-0.66,0.1,-1.23,0.3,-1.71c0.2,-0.47,0.46,-0.83,0.79,-1.07c0.25,-0.18,0.52,-0.27,0.79,-0.27c0.44,0,0.84,0.22,1.2,0.68c0.44,0.56,0.66,1.32,0.66,2.29c0,0.67,-0.09,1.25,-0.29,1.72c-0.19,0.47,-0.44,0.81,-0.74,1.02c-0.3,0.21,-0.59,0.32,-0.87,0.32c-0.55,0,-1.01,-0.32,-1.38,-0.98c-0.31,-0.55,-0.46,-1.21,-0.46,-1.99m0.84,0.1c0,0.8,0.09,1.45,0.29,1.96c0.16,0.42,0.4,0.64,0.73,0.64c0.15,0,0.31,-0.06,0.48,-0.2c0.16,-0.13,0.29,-0.37,0.37,-0.69c0.13,-0.49,0.19,-1.18,0.19,-2.08c0,-0.66,-0.06,-1.21,-0.2,-1.66c-0.1,-0.32,-0.23,-0.56,-0.39,-0.7c-0.11,-0.09,-0.25,-0.14,-0.42,-0.14c-0.19,0,-0.36,0.08,-0.51,0.26c-0.2,0.23,-0.34,0.61,-0.42,1.12c-0.07,0.5,-0.11,1.01,-0.11,1.5" fill="#000000" stroke="none" fill-opacity="1"/>
<path d="m162.95,192.93c0.1,-0.23,0.22,-0.41,0.37,-0.54c0.15,-0.12,0.34,-0.19,0.57,-0.19c0.28,0,0.49,0.09,0.64,0.27c0.11,0.13,0.17,0.28,0.17,0.43c0,0.25,-0.16,0.51,-0.48,0.79c0.21,0.08,0.37,0.2,0.48,0.36c0.11,0.15,0.16,0.34,0.16,0.55c0,0.3,-0.09,0.56,-0.28,0.78c-0.25,0.28,-0.61,0.43,-1.09,0.43c-0.23,0,-0.39,-0.02,-0.48,-0.08c-0.08,-0.05,-0.12,-0.12,-0.12,-0.18c0,-0.05,0.02,-0.09,0.06,-0.13c0.04,-0.03,0.08,-0.05,0.14,-0.05c0.04,0,0.08,0,0.13,0.02c0.02,0,0.09,0.04,0.19,0.09c0.1,0.05,0.17,0.08,0.21,0.09c0.06,0.01,0.13,0.02,0.2,0.02c0.17,0,0.32,-0.06,0.45,-0.2c0.13,-0.13,0.19,-0.29,0.19,-0.48c0,-0.13,-0.03,-0.26,-0.09,-0.39c-0.04,-0.09,-0.09,-0.16,-0.14,-0.22c-0.07,-0.06,-0.17,-0.13,-0.3,-0.18c-0.12,-0.05,-0.26,-0.08,-0.39,-0.08l-0.08,0l0,-0.07c0.13,-0.01,0.27,-0.06,0.41,-0.14c0.13,-0.08,0.23,-0.17,0.29,-0.29c0.06,-0.11,0.09,-0.23,0.09,-0.37c0,-0.17,-0.05,-0.32,-0.16,-0.43c-0.11,-0.1,-0.24,-0.16,-0.41,-0.16c-0.26,0,-0.49,0.14,-0.67,0.42l-0.08,-0.04" fill="#000000" stroke="none" fill-opacity="1"/>
<path d="m170.26,201.39l0,0.15c-0.43,-0.21,-0.79,-0.47,-1.08,-0.76c-0.41,-0.41,-0.73,-0.9,-0.95,-1.46c-0.22,-0.56,-0.33,-1.15,-0.33,-1.75c0,-0.88,0.21,-1.69,0.65,-2.42c0.43,-0.73,1,-1.25,1.71,-1.57l0,0.18c-0.35,0.19,-0.64,0.46,-0.86,0.79c-0.22,0.33,-0.39,0.76,-0.5,1.28c-0.11,0.51,-0.16,1.05,-0.16,1.62c0,0.61,0.04,1.17,0.14,1.67c0.07,0.39,0.16,0.71,0.27,0.95c0.1,0.23,0.24,0.46,0.42,0.68c0.17,0.22,0.41,0.43,0.7,0.63m4.22,-3.67l-2.25,0l-0.39,0.91c-0.09,0.22,-0.14,0.39,-0.14,0.5c0,0.08,0.04,0.16,0.12,0.23c0.08,0.06,0.26,0.11,0.54,0.13l0,0.15l-1.83,0l0,-0.15c0.24,-0.04,0.4,-0.09,0.47,-0.16c0.14,-0.13,0.3,-0.41,0.48,-0.83l2.04,-4.79l0.15,0l2.02,4.84c0.16,0.38,0.31,0.64,0.44,0.75c0.13,0.11,0.31,0.18,0.55,0.19l0,0.15l-2.29,0l0,-0.15c0.23,-0.01,0.38,-0.05,0.47,-0.11c0.08,-0.06,0.12,-0.14,0.12,-0.24c0,-0.12,-0.05,-0.32,-0.17,-0.59l-0.35,-0.83m-0.12,-0.31l-0.98,-2.35l-1.01,2.35l2,0m4.91,-3.84l-2.1,6.23l-0.34,0l2.1,-6.23l0.34,0m1.42,2.89c0.28,-0.28,0.45,-0.45,0.5,-0.49c0.12,-0.1,0.26,-0.19,0.41,-0.25c0.14,-0.06,0.29,-0.09,0.44,-0.09c0.24,0,0.45,0.07,0.63,0.21c0.17,0.14,0.29,0.35,0.35,0.62c0.29,-0.34,0.54,-0.56,0.74,-0.67c0.2,-0.1,0.41,-0.16,0.62,-0.16c0.2,0,0.39,0.05,0.55,0.16c0.16,0.1,0.29,0.28,0.38,0.52c0.06,0.16,0.09,0.42,0.09,0.78l0,1.69c0,0.24,0.01,0.41,0.05,0.5c0.02,0.06,0.08,0.11,0.15,0.16c0.07,0.04,0.2,0.06,0.37,0.06l0,0.15l-1.94,0l0,-0.15l0.08,0c0.16,0,0.3,-0.03,0.39,-0.09c0.06,-0.04,0.11,-0.11,0.14,-0.21c0.01,-0.04,0.01,-0.18,0.01,-0.41l0,-1.69c0,-0.32,-0.03,-0.54,-0.11,-0.67c-0.11,-0.18,-0.29,-0.27,-0.53,-0.27c-0.15,0,-0.3,0.03,-0.45,0.11c-0.15,0.07,-0.33,0.21,-0.55,0.42l0,0.04l0,0.18l0,1.87c0,0.26,0.01,0.43,0.04,0.5c0.03,0.06,0.08,0.12,0.16,0.16c0.08,0.04,0.22,0.06,0.42,0.06l0,0.15l-1.98,0l0,-0.15c0.21,0,0.36,-0.02,0.44,-0.07c0.08,-0.05,0.13,-0.12,0.16,-0.23c0.01,-0.04,0.02,-0.19,0.02,-0.42l0,-1.69c0,-0.32,-0.04,-0.55,-0.14,-0.69c-0.12,-0.18,-0.3,-0.27,-0.52,-0.27c-0.15,0,-0.3,0.04,-0.45,0.12c-0.23,0.12,-0.42,0.26,-0.55,0.42l0,2.1c0,0.25,0.01,0.42,0.05,0.5c0.03,0.07,0.08,0.13,0.15,0.17c0.07,0.03,0.21,0.05,0.42,0.05l0,0.15l-1.94,0l0,-0.15c0.18,0,0.3,-0.01,0.37,-0.05c0.07,-0.03,0.12,-0.1,0.16,-0.18c0.03,-0.08,0.05,-0.24,0.05,-0.49l0,-1.5c0,-0.43,-0.01,-0.71,-0.03,-0.83c-0.02,-0.09,-0.05,-0.15,-0.09,-0.19c-0.04,-0.03,-0.1,-0.05,-0.17,-0.05c-0.08,0,-0.17,0.02,-0.28,0.06l-0.06,-0.15l1.18,-0.48l0.18,0l0,0.83m5.59,-2.71l0,-0.18c0.43,0.21,0.79,0.46,1.08,0.76c0.4,0.41,0.72,0.9,0.94,1.47c0.22,0.56,0.33,1.14,0.33,1.75c0,0.88,-0.21,1.69,-0.65,2.42c-0.43,0.73,-1,1.25,-1.71,1.57l0,-0.15c0.35,-0.19,0.64,-0.46,0.87,-0.8c0.22,-0.33,0.39,-0.76,0.5,-1.28c0.11,-0.51,0.16,-1.06,0.16,-1.62c0,-0.61,-0.04,-1.16,-0.14,-1.67c-0.07,-0.39,-0.16,-0.71,-0.26,-0.94c-0.1,-0.23,-0.24,-0.46,-0.42,-0.68c-0.17,-0.22,-0.41,-0.43,-0.7,-0.63" fill="#000000" stroke="none" fill-opacity="1"/>
<path d="m43.91,184.53l-4.63,0l0,-0.35l4.63,0l0,0.35m1.2,-2.5l1.41,-0.69l0.14,0l0,4.91c0,0.32,0.01,0.52,0.04,0.61c0.02,0.08,0.08,0.14,0.16,0.18c0.08,0.04,0.26,0.06,0.52,0.07l0,0.15l-2.19,0l0,-0.15c0.27,0,0.45,-0.02,0.53,-0.07c0.08,-0.04,0.13,-0.09,0.16,-0.16c0.03,-0.07,0.04,-0.28,0.04,-0.62l0,-3.14c0,-0.42,-0.01,-0.69,-0.04,-0.81c-0.02,-0.09,-0.05,-0.15,-0.1,-0.2c-0.05,-0.04,-0.11,-0.06,-0.19,-0.06c-0.1,0,-0.25,0.04,-0.44,0.13l-0.06,-0.13m4.46,4.42c0.13,0,0.24,0.04,0.33,0.13c0.09,0.09,0.13,0.2,0.13,0.33c0,0.13,-0.04,0.24,-0.13,0.33c-0.09,0.09,-0.2,0.13,-0.33,0.13c-0.13,0,-0.24,-0.04,-0.33,-0.13c-0.09,-0.09,-0.13,-0.2,-0.13,-0.33c0,-0.13,0.04,-0.24,0.13,-0.33c0.09,-0.09,0.2,-0.13,0.33,-0.13m4.91,-4.99l-0.33,0.73l-1.75,0l-0.38,0.78c0.75,0.11,1.36,0.39,1.8,0.84c0.38,0.38,0.57,0.84,0.57,1.37c0,0.3,-0.06,0.59,-0.18,0.85c-0.12,0.26,-0.28,0.48,-0.47,0.66c-0.18,0.18,-0.39,0.33,-0.63,0.44c-0.32,0.15,-0.66,0.23,-1.01,0.23c-0.34,0,-0.6,-0.05,-0.76,-0.17c-0.15,-0.11,-0.23,-0.25,-0.23,-0.39c0,-0.08,0.03,-0.15,0.09,-0.21c0.06,-0.06,0.14,-0.09,0.24,-0.09c0.07,0,0.13,0.01,0.19,0.03c0.05,0.02,0.15,0.08,0.28,0.17c0.21,0.14,0.43,0.22,0.65,0.22c0.33,0,0.62,-0.12,0.88,-0.38c0.25,-0.25,0.38,-0.56,0.38,-0.92c0,-0.35,-0.11,-0.68,-0.33,-0.98c-0.22,-0.3,-0.53,-0.54,-0.93,-0.7c-0.31,-0.12,-0.73,-0.2,-1.27,-0.22l1.11,-2.26l2.08,0" fill="#000000" stroke="none" fill-opacity="1"/>
<path d="m76.39,184.53l-4.63,0l0,-0.35l4.63,0l0,0.35m1.2,-2.5l1.41,-0.69l0.14,0l0,4.91c0,0.32,0.01,0.52,0.04,0.61c0.02,0.08,0.08,0.14,0.16,0.18c0.08,0.04,0.26,0.06,0.52,0.07l0,0.15l-2.19,0l0,-0.15c0.27,0,0.45,-0.02,0.53,-0.07c0.08,-0.04,0.13,-0.09,0.16,-0.16c0.03,-0.07,0.04,-0.28,0.04,-0.62l0,-3.14c0,-0.42,-0.01,-0.69,-0.04,-0.81c-0.02,-0.09,-0.05,-0.15,-0.1,-0.2c-0.05,-0.04,-0.11,-0.06,-0.19,-0.06c-0.1,0,-0.25,0.04,-0.44,0.13l-0.06,-0.13" fill="#000000" stroke="none" fill-opacity="1"/>
<path d="m102.27,184.53l-4.63,0l0,-0.35l4.63,0l0,0.35m0.48,-0.12c0,-0.66,0.1,-1.23,0.3,-1.71c0.2,-0.47,0.46,-0.83,0.79,-1.07c0.25,-0.18,0.52,-0.27,0.79,-0.27c0.44,0,0.84,0.22,1.2,0.68c0.44,0.56,0.66,1.32,0.66,2.29c0,0.67,-0.09,1.25,-0.29,1.72c-0.19,0.47,-0.44,0.81,-0.74,1.02c-0.3,0.21,-0.59,0.32,-0.87,0.32c-0.55,0,-1.01,-0.32,-1.38,-0.98c-0.31,-0.55,-0.46,-1.21,-0.46,-1.99m0.84,0.1c0,0.8,0.09,1.45,0.29,1.96c0.16,0.42,0.4,0.64,0.73,0.64c0.15,0,0.31,-0.06,0.48,-0.2c0.16,-0.13,0.29,-0.37,0.37,-0.69c0.13,-0.49,0.19,-1.18,0.19,-2.08c0,-0.66,-0.06,-1.21,-0.2,-1.66c-0.1,-0.32,-0.23,-0.56,-0.39,-0.7c-0.11,-0.09,-0.25,-0.14,-0.42,-0.14c-0.19,0,-0.36,0.08,-0.51,0.26c-0.2,0.23,-0.34,0.61,-0.42,1.12c-0.07,0.5,-0.11,1.01,-0.11,1.5m4.33,1.93c0.13,0,0.24,0.04,0.33,0.13c0.09,0.09,0.13,0.2,0.13,0.33c0,0.13,-0.04,0.24,-0.13,0.33c-0.09,0.09,-0.2,0.13,-0.33,0.13c-0.13,0,-0.24,-0.04,-0.33,-0.13c-0.09,-0.09,-0.13,-0.2,-0.13,-0.33c0,-0.13,0.04,-0.24,0.13,-0.33c0.09,-0.09,0.2,-0.13,0.33,-0.13m4.91,-4.99l-0.33,0.73l-1.75,0l-0.38,0.78c0.75,0.11,1.36,0.39,1.8,0.84c0.38,0.38,0.57,0.84,0.57,1.37c0,0.3,-0.06,0.59,-0.18,0.85c-0.12,0.26,-0.28,0.48,-0.47,0.66c-0.18,0.18,-0.39,0.33,-0.63,0.44c-0.32,0.15,-0.66,0.23,-1.01,0.23c-0.34,0,-0.6,-0.05,-0.76,-0.17c-0.15,-0.11,-0.23,-0.25,-0.23,-0.39c0,-0.08,0.03,-0.15,0.09,-0.21c0.06,-0.06,0.14,-0.09,0.24,-0.09c0.07,0,0.13,0.01,0.19,0.03c0.05,0.02,0.15,0.08,0.28,0.17c0.21,0.14,0.43,0.22,0.65,0.22c0.33,0,0.62,-0.12,0.88,-0.38c0.25,-0.25,0.38,-0.56,0.38,-0.92c0,-0.35,-0.11,-0.68,-0.33,-0.98c-0.22,-0.3,-0.53,-0.54,-0.93,-0.7c-0.31,-0.12,-0.73,-0.2,-1.27,-0.22l1.11,-2.26l2.08,0" fill="#000000" stroke="none" fill-opacity="1"/>
<path d="m132.76,184.4c0,-0.66,0.1,-1.23,0.3,-1.71c0.2,-0.47,0.46,-0.83,0.79,-1.07c0.25,-0.18,0.52,-0.27,0.79,-0.27c0.44,0,0.84,0.22,1.2,0.68c0.44,0.56,0.66,1.32,0.66,2.29c0,0.67,-0.09,1.25,-0.29,1.72c-0.19,0.47,-0.44,0.81,-0.74,1.02c-0.3,0.21,-0.59,0.32,-0.87,0.32c-0.55,0,-1.01,-0.32,-1.38,-0.98c-0.31,-0.55,-0.46,-1.21,-0.46,-1.99m0.84,0.1c0,0.8,0.09,1.45,0.29,1.96c0.16,0.42,0.4,0.64,0.73,0.64c0.15,0,0.31,-0.06,0.48,-0.2c0.16,-0.13,0.29,-0.37,0.37,-0.69c0.13,-0.49,0.19,-1.18,0.19,-2.08c0,-0.66,-0.06,-1.21,-0.2,-1.66c-0.1,-0.32,-0.23,-0.56,-0.39,-0.7c-0.11,-0.09,-0.25,-0.14,-0.42,-0.14c-0.19,0,-0.36,0.08,-0.51,0.26c-0.2,0.23,-0.34,0.61,-0.42,1.12c-0.07,0.5,-0.11,1.01,-0.11,1.5" fill="#000000" stroke="none" fill-opacity="1"/>
<path d="m158.64,184.4c0,-0.66,0.1,-1.23,0.3,-1.71c0.2,-0.47,0.46,-0.83,0.79,-1.07c0.25,-0.18,0.52,-0.27,0.79,-0.27c0.44,0,0.84,0.22,1.2,0.68c0.44,0.56,0.66,1.32,0.66,2.29c0,0.67,-0.09,1.25,-0.29,1.72c-0.19,0.47,-0.44,0.81,-0.74,1.02c-0.3,0.21,-0.59,0.32,-0.87,0.32c-0.55,0,-1.01,-0.32,-1.38,-0.98c-0.31,-0.55,-0.46,-1.21,-0.46,-1.99m0.84,0.1c0,0.8,0.09,1.45,0.29,1.96c0.16,0.42,0.4,0.64,0.73,0.64c0.15,0,0.31,-0.06,0.48,-0.2c0.16,-0.13,0.29,-0.37,0.37,-0.69c0.13,-0.49,0.19,-1.18,0.19,-2.08c0,-0.66,-0.06,-1.21,-0.2,-1.66c-0.1,-0.32,-0.23,-0.56,-0.39,-0.7c-0.11,-0.09,-0.25,-0.14,-0.42,-0.14c-0.19,0,-0.36,0.08,-0.51,0.26c-0.2,0.23,-0.34,0.61,-0.42,1.12c-0.07,0.5,-0.11,1.01,-0.11,1.5m4.33,1.93c0.13,0,0.24,0.04,0.33,0.13c0.09,0.09,0.13,0.2,0.13,0.33c0,0.13,-0.04,0.24,-0.13,0.33c-0.09,0.09,-0.2,0.13,-0.33,0.13c-0.13,0,-0.24,-0.04,-0.33,-0.13c-0.09,-0.09,-0.13,-0.2,-0.13,-0.33c0,-0.13,0.04,-0.24,0.13,-0.33c0.09,-0.09,0.2,-0.13,0.33,-0.13m4.91,-4.99l-0.33,0.73l-1.75,0l-0.38,0.78c0.75,0.11,1.36,0.39,1.8,0.84c0.38,0.38,0.57,0.84,0.57,1.37c0,0.3,-0.06,0.59,-0.18,0.85c-0.12,0.26,-0.28,0.48,-0.47,0.66c-0.18,0.18,-0.39,0.33,-0.63,0.44c-0.32,0.15,-0.66,0.23,-1.01,0.23c-0.34,0,-0.6,-0.05,-0.76,-0.17c-0.15,-0.11,-0.23,-0.25,-0.23,-0.39c0,-0.08,0.03,-0.15,0.09,-0.21c0.06,-0.06,0.14,-0.09,0.24,-0.09c0.07,0,0.13,0.01,0.19,0.03c0.05,0.02,0.15,0.08,0.28,0.17c0.21,0.14,0.43,0.22,0.65,0.22c0.33,0,0.62,-0.12,0.88,-0.38c0.25,-0.25,0.38,-0.56,0.38,-0.92c0,-0.35,-0.11,-0.68,-0.33,-0.98c-0.22,-0.3,-0.53,-0.54,-0.93,-0.7c-0.31,-0.12,-0.73,-0.2,-1.27,-0.22l1.11,-2.26l2.08,0" fill="#000000" stroke="none" fill-opacity="1"/>
<path d="m191.83,182.02l1.41,-0.69l0.14,0l0,4.91c0,0.32,0.01,0.52,0.04,0.61c0.02,0.08,0.08,0.14,0.16,0.18c0.08,0.04,0.26,0.06,0.52,0.07l0,0.15l-2.19,0l0,-0.15c0.27,0,0.45,-0.02,0.53,-0.07c0.08,-0.04,0.13,-0.09,0.16,-0.16c0.03,-0.07,0.04,-0.28,0.04,-0.62l0,-3.14c0,-0.42,-0.01,-0.69,-0.04,-0.81c-0.02,-0.09,-0.05,-0.15,-0.1,-0.2c-0.05,-0.04,-0.11,-0.06,-0.19,-0.06c-0.1,0,-0.25,0.04,-0.44,0.13l-0.06,-0.13" fill="#000000" stroke="none" fill-opacity="1"/>
<path d="m217.71,182.02l1.41,-0.69l0.14,0l0,4.91c0,0.32,0.01,0.52,0.04,0.61c0.02,0.08,0.08,0.14,0.16,0.18c0.08,0.04,0.26,0.06,0.52,0.07l0,0.15l-2.19,0l0,-0.15c0.27,0,0.45,-0.02,0.53,-0.07c0.08,-0.04,0.13,-0.09,0.16,-0.16c0.03,-0.07,0.04,-0.28,0.04,-0.62l0,-3.14c0,-0.42,-0.01,-0.69,-0.04,-0.81c-0.02,-0.09,-0.05,-0.15,-0.1,-0.2c-0.05,-0.04,-0.11,-0.06,-0.19,-0.06c-0.1,0,-0.25,0.04,-0.44,0.13l-0.06,-0.13m4.46,4.42c0.13,0,0.24,0.04,0.33,0.13c0.09,0.09,0.13,0.2,0.13,0.33c0,0.13,-0.04,0.24,-0.13,0.33c-0.09,0.09,-0.2,0.13,-0.33,0.13c-0.13,0,-0.24,-0.04,-0.33,-0.13c-0.09,-0.09,-0.13,-0.2,-0.13,-0.33c0,-0.13,0.04,-0.24,0.13,-0.33c0.09,-0.09,0.2,-0.13,0.33,-0.13m4.91,-4.99l-0.33,0.73l-1.75,0l-0.38,0.78c0.75,0.11,1.36,0.39,1.8,0.84c0.38,0.38,0.57,0.84,0.57,1.37c0,0.3,-0.06,0.59,-0.18,0.85c-0.12,0.26,-0.28,0.48,-0.47,0.66c-0.18,0.18,-0.39,0.33,-0.63,0.44c-0.32,0.15,-0.66,0.23,-1.01,0.23c-0.34,0,-0.6,-0.05,-0.76,-0.17c-0.15,-0.11,-0.23,-0.25,-0.23,-0.39c0,-0.08,0.03,-0.15,0.09,-0.21c0.06,-0.06,0.14,-0.09,0.24,-0.09c0.07,0,0.13,0.01,0.19,0.03c0.05,0.02,0.15,0.08,0.28,0.17c0.21,0.14,0.43,0.22,0.65,0.22c0.33,0,0.62,-0.12,0.88,-0.38c0.25,-0.25,0.38,-0.56,0.38,-0.92c0,-0.35,-0.11,-0.68,-0.33,-0.98c-0.22,-0.3,-0.53,-0.54,-0.93,-0.7c-0.31,-0.12,-0.73,-0.2,-1.27,-0.22l1.11,-2.26l2.08,0" fill="#000000" stroke="none" fill-opacity="1"/>
</g>
</g>
<g clip-path="url(#c1)">
<g fill="none" stroke-width="0.62">
<path d="M54.03,21.7l0,0"/>
</g>
<g fill="#ffffff" stroke-linejoin="miter" stroke-width="0.62">
<g transform="translate(54.03,21.7)">
<path d="m1.25,0c0,0.69,-0.55,1.25,-1.25,1.25c-0.69,0,-1.25,-0.55,-1.25,-1.25c0,-0.69,0.55,-1.25,1.25,-1.25c0.69,0,1.25,0.55,1.25,1.25" id="p0"/>
</g>
</g>
</g>
<g clip-path="url(#c0)">
<g fill="none" stroke-width="0.1">
<path d="m74.47,19.16l0,2.3l1.28,0c0.33,0,0.55,-0.05,0.66,-0.15c0.14,-0.13,0.23,-0.36,0.24,-0.69l0.15,0l0,2.02l-0.15,0c-0.04,-0.28,-0.08,-0.46,-0.12,-0.54c-0.05,-0.1,-0.13,-0.17,-0.25,-0.23c-0.11,-0.05,-0.29,-0.08,-0.54,-0.08l-1.28,0l0,1.92c0,0.25,0.01,0.41,0.03,0.47c0.02,0.05,0.06,0.1,0.12,0.13c0.05,0.03,0.16,0.04,0.32,0.04l0.98,0c0.32,0,0.56,-0.02,0.71,-0.06c0.14,-0.04,0.29,-0.13,0.42,-0.27c0.17,-0.17,0.35,-0.44,0.54,-0.8l0.17,0l-0.5,1.46l-4.49,0l0,-0.15l0.2,0c0.13,0,0.26,-0.03,0.39,-0.09c0.09,-0.04,0.15,-0.11,0.18,-0.2c0.03,-0.09,0.04,-0.27,0.04,-0.56l0,-3.78c0,-0.36,-0.03,-0.59,-0.11,-0.68c-0.1,-0.11,-0.27,-0.17,-0.51,-0.17l-0.2,0l0,-0.15l4.49,0l0.06,1.27l-0.16,0c-0.06,-0.3,-0.12,-0.51,-0.19,-0.63c-0.07,-0.11,-0.18,-0.2,-0.32,-0.26c-0.11,-0.04,-0.31,-0.06,-0.6,-0.06l-1.59,0m3.65,1.57l1.85,0l0,0.15c-0.11,0,-0.19,0.02,-0.24,0.06c-0.04,0.04,-0.07,0.09,-0.07,0.15c0,0.06,0.05,0.17,0.15,0.31c0.03,0.04,0.07,0.11,0.14,0.21l0.27,0.44l0.32,-0.44c0.2,-0.28,0.3,-0.46,0.3,-0.53c0,-0.06,-0.02,-0.11,-0.07,-0.15c-0.04,-0.04,-0.12,-0.06,-0.23,-0.06l0,-0.15l1.33,0l0,0.15c-0.14,0,-0.26,0.04,-0.36,0.11c-0.14,0.09,-0.33,0.3,-0.57,0.63l-0.53,0.71l0.97,1.4c0.24,0.34,0.41,0.55,0.51,0.62c0.1,0.07,0.23,0.1,0.39,0.11l0,0.15l-1.85,0l0,-0.15c0.12,0,0.22,-0.02,0.3,-0.08c0.05,-0.04,0.08,-0.09,0.08,-0.15c0,-0.06,-0.09,-0.23,-0.27,-0.49l-0.57,-0.84l-0.63,0.84c-0.19,0.26,-0.29,0.41,-0.29,0.46c0,0.06,0.03,0.13,0.09,0.18c0.06,0.05,0.16,0.08,0.29,0.09l0,0.15l-1.28,0l0,-0.15c0.1,-0.01,0.19,-0.05,0.27,-0.1c0.1,-0.08,0.29,-0.29,0.55,-0.63l0.82,-1.09l-0.74,-1.08c-0.21,-0.3,-0.37,-0.5,-0.49,-0.58c-0.11,-0.07,-0.26,-0.11,-0.43,-0.11l0,-0.15m4.27,0.39l1.21,-0.48l0.16,0l0,0.91c0.2,-0.34,0.4,-0.58,0.61,-0.72c0.2,-0.13,0.42,-0.2,0.64,-0.2c0.39,0,0.72,0.15,0.98,0.46c0.32,0.37,0.48,0.87,0.48,1.47c0,0.67,-0.19,1.24,-0.58,1.68c-0.32,0.36,-0.72,0.54,-1.21,0.54c-0.21,0,-0.39,-0.03,-0.55,-0.09c-0.11,-0.04,-0.24,-0.12,-0.38,-0.25l0,1.19c0,0.26,0.01,0.44,0.04,0.51c0.03,0.07,0.09,0.13,0.17,0.17c0.08,0.04,0.22,0.06,0.44,0.06l0,0.15l-2.06,0l0,-0.15l0.1,0c0.15,0,0.29,-0.02,0.4,-0.09c0.05,-0.03,0.09,-0.08,0.12,-0.15c0.03,-0.07,0.04,-0.24,0.04,-0.53l0,-3.72c0,-0.25,-0.01,-0.41,-0.03,-0.48c-0.02,-0.06,-0.05,-0.12,-0.1,-0.15c-0.05,-0.03,-0.11,-0.05,-0.2,-0.05c-0.06,0,-0.15,0.02,-0.26,0.06l-0.05,-0.13m1.37,0.68l0,1.46c0,0.31,0.01,0.52,0.03,0.62c0.04,0.16,0.13,0.31,0.29,0.43c0.15,0.12,0.35,0.18,0.59,0.18c0.28,0,0.51,-0.11,0.69,-0.33c0.23,-0.29,0.34,-0.7,0.34,-1.23c0,-0.6,-0.13,-1.06,-0.39,-1.38c-0.18,-0.22,-0.4,-0.33,-0.65,-0.33c-0.13,0,-0.27,0.03,-0.4,0.1c-0.1,0.05,-0.27,0.2,-0.51,0.46m3.97,0.4c0,0.58,0.13,1.04,0.42,1.37c0.28,0.33,0.62,0.49,1,0.49c0.25,0,0.48,-0.07,0.67,-0.21c0.19,-0.14,0.35,-0.38,0.47,-0.72l0.13,0.08c-0.06,0.39,-0.23,0.74,-0.52,1.07c-0.28,0.32,-0.65,0.48,-1.08,0.48c-0.47,0,-0.87,-0.18,-1.21,-0.55c-0.33,-0.36,-0.5,-0.86,-0.5,-1.48c0,-0.67,0.17,-1.19,0.51,-1.57c0.34,-0.37,0.77,-0.56,1.29,-0.56c0.44,0,0.8,0.14,1.08,0.43c0.28,0.29,0.42,0.67,0.42,1.16l-2.71,0m0,-0.24l1.82,0c-0.01,-0.25,-0.04,-0.42,-0.09,-0.53c-0.07,-0.16,-0.17,-0.28,-0.32,-0.37c-0.14,-0.09,-0.29,-0.13,-0.44,-0.13c-0.23,0,-0.45,0.09,-0.63,0.27c-0.18,0.18,-0.29,0.44,-0.32,0.77m4.39,-1.34l0,0.88c0.32,-0.59,0.66,-0.88,1.01,-0.88c0.15,0,0.28,0.04,0.39,0.14c0.1,0.09,0.15,0.2,0.15,0.33c0,0.11,-0.03,0.2,-0.11,0.28c-0.07,0.07,-0.16,0.11,-0.26,0.11c-0.1,0,-0.21,-0.04,-0.33,-0.14c-0.12,-0.09,-0.21,-0.14,-0.27,-0.14c-0.05,0,-0.1,0.02,-0.16,0.08c-0.12,0.11,-0.26,0.31,-0.39,0.58l0,1.88c0,0.21,0.02,0.38,0.08,0.49c0.03,0.07,0.1,0.14,0.19,0.19c0.09,0.05,0.23,0.07,0.4,0.07l0,0.15l-2.01,0l0,-0.15c0.2,0,0.34,-0.03,0.44,-0.09c0.07,-0.04,0.12,-0.11,0.15,-0.21c0.01,-0.04,0.02,-0.18,0.02,-0.41l0,-1.52c0,-0.45,0,-0.73,-0.02,-0.81c-0.01,-0.08,-0.05,-0.15,-0.1,-0.19c-0.05,-0.04,-0.11,-0.06,-0.18,-0.06c-0.08,0,-0.18,0.02,-0.3,0.06l-0.04,-0.15l1.19,-0.48l0.18,0m2.77,-2.05c0.12,0,0.22,0.04,0.3,0.12c0.08,0.08,0.12,0.18,0.12,0.3c0,0.12,-0.04,0.22,-0.12,0.3c-0.08,0.08,-0.18,0.12,-0.3,0.12c-0.12,0,-0.22,-0.04,-0.3,-0.12c-0.08,-0.08,-0.12,-0.18,-0.12,-0.3c0,-0.12,0.04,-0.22,0.12,-0.3c0.08,-0.08,0.18,-0.12,0.31,-0.12m0.35,2.05l0,3.16c0,0.24,0.01,0.41,0.05,0.49c0.03,0.08,0.08,0.14,0.15,0.18c0.07,0.04,0.19,0.06,0.38,0.06l0,0.15l-1.91,0l0,-0.15c0.19,0,0.32,-0.01,0.38,-0.05c0.06,-0.03,0.11,-0.09,0.15,-0.18c0.03,-0.08,0.05,-0.25,0.05,-0.49l0,-1.51c0,-0.42,-0.01,-0.7,-0.03,-0.82c-0.02,-0.09,-0.05,-0.15,-0.09,-0.19c-0.04,-0.03,-0.1,-0.05,-0.17,-0.05c-0.08,0,-0.17,0.02,-0.29,0.06l-0.06,-0.15l1.18,-0.48l0.18,0m2.25,0.83c0.28,-0.28,0.45,-0.45,0.5,-0.49c0.12,-0.1,0.26,-0.19,0.41,-0.25c0.14,-0.06,0.29,-0.09,0.44,-0.09c0.24,0,0.45,0.07,0.63,0.21c0.17,0.14,0.29,0.35,0.35,0.62c0.29,-0.34,0.54,-0.56,0.74,-0.67c0.2,-0.1,0.41,-0.16,0.62,-0.16c0.2,0,0.39,0.05,0.55,0.16c0.16,0.1,0.29,0.28,0.38,0.52c0.06,0.16,0.09,0.42,0.09,0.78l0,1.69c0,0.24,0.01,0.41,0.05,0.5c0.02,0.06,0.08,0.11,0.15,0.16c0.07,0.04,0.2,0.06,0.37,0.06l0,0.15l-1.94,0l0,-0.15l0.08,0c0.16,0,0.3,-0.03,0.39,-0.09c0.06,-0.04,0.11,-0.11,0.14,-0.21c0.01,-0.04,0.01,-0.18,0.01,-0.41l0,-1.69c0,-0.32,-0.03,-0.54,-0.11,-0.67c-0.11,-0.18,-0.29,-0.27,-0.53,-0.27c-0.15,0,-0.3,0.03,-0.45,0.11c-0.15,0.07,-0.33,0.21,-0.55,0.42l0,0.04l0,0.18l0,1.87c0,0.26,0.01,0.43,0.04,0.5c0.03,0.06,0.08,0.12,0.16,0.16c0.08,0.04,0.22,0.06,0.42,0.06l0,0.15l-1.98,0l0,-0.15c0.21,0,0.36,-0.02,0.44,-0.07c0.08,-0.05,0.13,-0.12,0.16,-0.23c0.01,-0.04,0.02,-0.19,0.02,-0.42l0,-1.69c0,-0.32,-0.04,-0.55,-0.14,-0.69c-0.12,-0.18,-0.3,-0.27,-0.52,-0.27c-0.15,0,-0.3,0.04,-0.45,0.12c-0.23,0.12,-0.42,0.26,-0.55,0.42l0,2.1c0,0.25,0.01,0.42,0.05,0.5c0.03,0.07,0.08,0.13,0.15,0.17c0.07,0.03,0.21,0.05,0.42,0.05l0,0.15l-1.94,0l0,-0.15c0.18,0,0.3,-0.01,0.37,-0.05c0.07,-0.03,0.12,-0.1,0.16,-0.18c0.03,-0.08,0.05,-0.24,0.05,-0.49l0,-1.5c0,-0.43,-0.01,-0.71,-0.03,-0.83c-0.02,-0.09,-0.05,-0.15,-0.09,-0.19c-0.04,-0.03,-0.1,-0.05,-0.17,-0.05c-0.08,0,-0.17,0.02,-0.28,0.06l-0.06,-0.15l1.18,-0.48l0.18,0l0,0.83m6.33,0.76c0,0.58,0.13,1.04,0.42,1.37c0.28,0.33,0.62,0.49,1,0.49c0.25,0,0.48,-0.07,0.67,-0.21c0.19,-0.14,0.35,-0.38,0.47,-0.72l0.13,0.08c-0.06,0.39,-0.23,0.74,-0.52,1.07c-0.28,0.32,-0.65,0.48,-1.08,0.48c-0.47,0,-0.87,-0.18,-1.21,-0.55c-0.33,-0.36,-0.5,-0.86,-0.5,-1.48c0,-0.67,0.17,-1.19,0.51,-1.57c0.34,-0.37,0.77,-0.56,1.29,-0.56c0.44,0,0.8,0.14,1.08,0.43c0.28,0.29,0.42,0.67,0.42,1.16l-2.71,0m0,-0.24l1.82,0c-0.01,-0.25,-0.04,-0.42,-0.09,-0.53c-0.07,-0.16,-0.17,-0.28,-0.32,-0.37c-0.14,-0.09,-0.29,-0.13,-0.44,-0.13c-0.23,0,-0.45,0.09,-0.63,0.27c-0.18,0.18,-0.29,0.44,-0.32,0.77m4.39,-0.51c0.46,-0.55,0.9,-0.83,1.31,-0.83c0.21,0,0.39,0.05,0.55,0.16c0.15,0.1,0.27,0.28,0.36,0.53c0.06,0.17,0.09,0.43,0.09,0.79l0,1.68c0,0.24,0.02,0.41,0.06,0.5c0.03,0.07,0.08,0.12,0.15,0.16c0.07,0.04,0.19,0.06,0.38,0.06l0,0.15l-1.94,0l0,-0.15l0.08,0c0.18,0,0.31,-0.02,0.38,-0.08c0.07,-0.05,0.12,-0.13,0.15,-0.24c0.01,-0.04,0.01,-0.17,0.01,-0.4l0,-1.61c0,-0.35,-0.04,-0.61,-0.13,-0.77c-0.09,-0.16,-0.24,-0.24,-0.47,-0.24c-0.34,0,-0.68,0.18,-1.01,0.55l0,2.07c0,0.26,0.01,0.43,0.04,0.49c0.04,0.08,0.09,0.14,0.16,0.18c0.07,0.03,0.21,0.05,0.42,0.05l0,0.15l-1.94,0l0,-0.15l0.08,0c0.2,0,0.33,-0.05,0.4,-0.15c0.07,-0.1,0.1,-0.29,0.1,-0.58l0,-1.46c0,-0.47,-0.01,-0.76,-0.03,-0.86c-0.02,-0.1,-0.05,-0.17,-0.09,-0.21c-0.04,-0.03,-0.1,-0.05,-0.17,-0.05c-0.08,0,-0.17,0.02,-0.28,0.06l-0.06,-0.15l1.18,-0.48l0.18,0l0,0.83m4.39,-2.01l0,1.29l0.91,0l0,0.3l-0.91,0l0,2.55c0,0.25,0.03,0.42,0.1,0.51c0.07,0.08,0.16,0.13,0.28,0.13c0.09,0,0.18,-0.02,0.27,-0.08c0.08,-0.05,0.15,-0.14,0.2,-0.26l0.16,0c-0.1,0.28,-0.24,0.49,-0.42,0.63c-0.18,0.14,-0.37,0.21,-0.56,0.21c-0.13,0,-0.26,-0.03,-0.38,-0.1c-0.12,-0.07,-0.21,-0.17,-0.27,-0.31c-0.06,-0.13,-0.09,-0.34,-0.09,-0.62l0,-2.64l-0.62,0l0,-0.14c0.15,-0.06,0.31,-0.16,0.48,-0.32c0.16,-0.15,0.31,-0.32,0.44,-0.53c0.06,-0.1,0.15,-0.3,0.27,-0.59l0.13,0m3.53,4.66c-0.4,0.31,-0.65,0.49,-0.76,0.54c-0.15,0.07,-0.31,0.1,-0.49,0.1c-0.27,0,-0.49,-0.09,-0.67,-0.27c-0.17,-0.18,-0.26,-0.43,-0.26,-0.73c0,-0.19,0.04,-0.35,0.12,-0.49c0.11,-0.19,0.32,-0.37,0.61,-0.55c0.29,-0.17,0.77,-0.38,1.45,-0.62l0,-0.15c0,-0.39,-0.06,-0.66,-0.18,-0.8c-0.12,-0.14,-0.3,-0.21,-0.54,-0.21c-0.18,0,-0.32,0.04,-0.42,0.14c-0.1,0.09,-0.16,0.2,-0.16,0.33l0,0.24c0,0.13,-0.03,0.23,-0.1,0.3c-0.06,0.07,-0.15,0.1,-0.26,0.1c-0.1,0,-0.19,-0.03,-0.26,-0.11c-0.06,-0.07,-0.1,-0.17,-0.1,-0.3c0,-0.24,0.12,-0.47,0.37,-0.67c0.25,-0.2,0.6,-0.3,1.06,-0.3c0.34,0,0.63,0.05,0.85,0.17c0.16,0.08,0.29,0.22,0.37,0.41c0.05,0.12,0.07,0.37,0.07,0.75l0,1.33c0,0.37,0,0.6,0.02,0.68c0.01,0.08,0.03,0.14,0.07,0.16c0.03,0.02,0.07,0.04,0.11,0.04c0.04,0,0.08,-0.01,0.12,-0.03c0.06,-0.03,0.17,-0.14,0.34,-0.31l0,0.24c-0.32,0.42,-0.62,0.64,-0.91,0.64c-0.14,0,-0.25,-0.04,-0.33,-0.14c-0.08,-0.09,-0.12,-0.26,-0.12,-0.49m0,-0.27l0,-1.49c-0.43,0.17,-0.71,0.29,-0.83,0.36c-0.22,0.12,-0.38,0.25,-0.48,0.39c-0.09,0.13,-0.14,0.28,-0.14,0.45c0,0.2,0.06,0.37,0.18,0.51c0.12,0.13,0.26,0.2,0.42,0.2c0.21,0,0.5,-0.14,0.85,-0.42m3.02,-5.26l0,5.22c0,0.24,0.01,0.4,0.05,0.48c0.03,0.08,0.09,0.14,0.16,0.18c0.07,0.04,0.21,0.06,0.41,0.06l0,0.15l-1.92,0l0,-0.15c0.18,0,0.3,-0.01,0.36,-0.05c0.06,-0.03,0.11,-0.09,0.15,-0.18c0.03,-0.08,0.05,-0.25,0.05,-0.49l0,-3.57c0,-0.44,-0.01,-0.71,-0.03,-0.81c-0.02,-0.1,-0.05,-0.17,-0.09,-0.2c-0.04,-0.03,-0.1,-0.05,-0.16,-0.05c-0.07,0,-0.16,0.02,-0.28,0.06l-0.07,-0.15l1.17,-0.48l0.19,0m3.16,6.11l0,-0.15l0.21,0c0.24,0,0.42,-0.07,0.52,-0.23c0.06,-0.09,0.09,-0.3,0.09,-0.63l0,-3.76c0,-0.36,-0.04,-0.59,-0.12,-0.68c-0.11,-0.12,-0.27,-0.18,-0.49,-0.18l-0.21,0l0,-0.15l2.37,0c0.87,0,1.53,0.09,1.98,0.29c0.45,0.19,0.81,0.52,1.09,0.98c0.27,0.46,0.41,0.99,0.41,1.59c0,0.81,-0.24,1.48,-0.73,2.03c-0.55,0.6,-1.39,0.91,-2.52,0.91l-2.6,0m1.66,-0.42c0.36,0.08,0.66,0.12,0.91,0.12c0.66,0,1.21,-0.23,1.65,-0.7c0.43,-0.46,0.65,-1.1,0.65,-1.89c0,-0.8,-0.21,-1.43,-0.65,-1.9c-0.43,-0.46,-1,-0.69,-1.68,-0.69c-0.25,0,-0.55,0.04,-0.88,0.12l0,4.95m7.04,-0.14c-0.4,0.31,-0.65,0.49,-0.76,0.54c-0.15,0.07,-0.31,0.1,-0.49,0.1c-0.27,0,-0.49,-0.09,-0.67,-0.27c-0.17,-0.18,-0.26,-0.43,-0.26,-0.73c0,-0.19,0.04,-0.35,0.12,-0.49c0.11,-0.19,0.32,-0.37,0.61,-0.55c0.29,-0.17,0.77,-0.38,1.45,-0.62l0,-0.15c0,-0.39,-0.06,-0.66,-0.18,-0.8c-0.12,-0.14,-0.3,-0.21,-0.54,-0.21c-0.18,0,-0.32,0.04,-0.42,0.14c-0.1,0.09,-0.16,0.2,-0.16,0.33l0,0.24c0,0.13,-0.03,0.23,-0.1,0.3c-0.06,0.07,-0.15,0.1,-0.26,0.1c-0.1,0,-0.19,-0.03,-0.26,-0.11c-0.06,-0.07,-0.1,-0.17,-0.1,-0.3c0,-0.24,0.12,-0.47,0.37,-0.67c0.25,-0.2,0.6,-0.3,1.06,-0.3c0.34,0,0.63,0.05,0.85,0.17c0.16,0.08,0.29,0.22,0.37,0.41c0.05,0.12,0.07,0.37,0.07,0.75l0,1.33c0,0.37,0,0.6,0.02,0.68c0.01,0.08,0.03,0.14,0.07,0.16c0.03,0.02,0.07,0.04,0.11,0.04c0.04,0,0.08,-0.01,0.12,-0.03c0.06,-0.03,0.17,-0.14,0.34,-0.31l0,0.24c-0.32,0.42,-0.62,0.64,-0.91,0.64c-0.14,0,-0.25,-0.04,-0.33,-0.14c-0.08,-0.09,-0.12,-0.26,-0.12,-0.49m0,-0.27l0,-1.49c-0.43,0.17,-0.71,0.29,-0.83,0.36c-0.22,0.12,-0.38,0.25,-0.48,0.39c-0.09,0.13,-0.14,0.28,-0.14,0.45c0,0.2,0.06,0.37,0.18,0.51c0.12,0.13,0.26,0.2,0.42,0.2c0.21,0,0.5,-0.14,0.85,-0.42m2.81,-4.38l0,1.29l0.91,0l0,0.3l-0.91,0l0,2.55c0,0.25,0.03,0.42,0.1,0.51c0.07,0.08,0.16,0.13,0.28,0.13c0.09,0,0.18,-0.02,0.27,-0.08c0.08,-0.05,0.15,-0.14,0.2,-0.26l0.16,0c-0.1,0.28,-0.24,0.49,-0.42,0.63c-0.18,0.14,-0.37,0.21,-0.56,0.21c-0.13,0,-0.26,-0.03,-0.38,-0.1c-0.12,-0.07,-0.21,-0.17,-0.27,-0.31c-0.06,-0.13,-0.09,-0.34,-0.09,-0.62l0,-2.64l-0.62,0l0,-0.14c0.15,-0.06,0.31,-0.16,0.48,-0.32c0.16,-0.15,0.31,-0.32,0.44,-0.53c0.06,-0.1,0.15,-0.3,0.27,-0.59l0.13,0m3.53,4.66c-0.4,0.31,-0.65,0.49,-0.76,0.54c-0.15,0.07,-0.31,0.1,-0.49,0.1c-0.27,0,-0.49,-0.09,-0.67,-0.27c-0.17,-0.18,-0.26,-0.43,-0.26,-0.73c0,-0.19,0.04,-0.35,0.12,-0.49c0.11,-0.19,0.32,-0.37,0.61,-0.55c0.29,-0.17,0.77,-0.38,1.45,-0.62l0,-0.15c0,-0.39,-0.06,-0.66,-0.18,-0.8c-0.12,-0.14,-0.3,-0.21,-0.54,-0.21c-0.18,0,-0.32,0.04,-0.42,0.14c-0.1,0.09,-0.16,0.2,-0.16,0.33l0,0.24c0,0.13,-0.03,0.23,-0.1,0.3c-0.06,0.07,-0.15,0.1,-0.26,0.1c-0.1,0,-0.19,-0.03,-0.26,-0.11c-0.06,-0.07,-0.1,-0.17,-0.1,-0.3c0,-0.24,0.12,-0.47,0.37,-0.67c0.25,-0.2,0.6,-0.3,1.06,-0.3c0.34,0,0.63,0.05,0.85,0.17c0.16,0.08,0.29,0.22,0.37,0.41c0.05,0.12,0.07,0.37,0.07,0.75l0,1.33c0,0.37,0,0.6,0.02,0.68c0.01,0.08,0.03,0.14,0.07,0.16c0.03,0.02,0.07,0.04,0.11,0.04c0.04,0,0.08,-0.01,0.12,-0.03c0.06,-0.03,0.17,-0.14,0.34,-0.31l0,0.24c-0.32,0.42,-0.62,0.64,-0.91,0.64c-0.14,0,-0.25,-0.04,-0.33,-0.14c-0.08,-0.09,-0.12,-0.26,-0.12,-0.49m0,-0.27l0,-1.49c-0.43,0.17,-0.71,0.29,-0.83,0.36c-0.22,0.12,-0.38,0.25,-0.48,0.39c-0.09,0.13,-0.14,0.28,-0.14,0.45c0,0.2,0.06,0.37,0.18,0.51c0.12,0.13,0.26,0.2,0.42,0.2c0.21,0,0.5,-0.14,0.85,-0.42" fill="#000000" stroke="none" fill-opacity="1"/>
</g>
</g>
<g clip-path="url(#c2)">
<g fill="none" stroke-width="0.62">
<path d="M54.03,31.44l0,0"/>
<path d="M45.17,31.44l17.71,0"/>
</g>
</g>
<g clip-path="url(#c0)">
<g fill="none" stroke-width="0.1">
<path d="m73.51,28.74l0,-0.15l2.49,0l0,0.15l-0.21,0c-0.23,0,-0.41,0.07,-0.51,0.21c-0.06,0.09,-0.1,0.31,-0.1,0.66l0,2.84c0,0.43,-0.04,0.79,-0.14,1.06c-0.09,0.27,-0.26,0.5,-0.49,0.71c-0.23,0.2,-0.51,0.3,-0.85,0.3c-0.26,0,-0.48,-0.06,-0.63,-0.19c-0.15,-0.13,-0.23,-0.28,-0.23,-0.45c0,-0.14,0.03,-0.24,0.1,-0.31c0.09,-0.08,0.2,-0.13,0.33,-0.13c0.09,0,0.17,0.03,0.24,0.09c0.07,0.06,0.16,0.22,0.27,0.48c0.06,0.15,0.15,0.23,0.25,0.23c0.07,0,0.14,-0.04,0.21,-0.14c0.06,-0.09,0.1,-0.26,0.1,-0.5l0,-3.97c0,-0.29,-0.01,-0.48,-0.05,-0.58c-0.02,-0.07,-0.08,-0.13,-0.18,-0.18c-0.12,-0.06,-0.25,-0.1,-0.39,-0.1l-0.21,0m6.57,3.71l-2.25,0l-0.39,0.91c-0.09,0.22,-0.14,0.39,-0.14,0.5c0,0.08,0.04,0.16,0.12,0.23c0.08,0.06,0.26,0.11,0.54,0.13l0,0.15l-1.83,0l0,-0.15c0.24,-0.04,0.4,-0.09,0.47,-0.16c0.14,-0.13,0.3,-0.41,0.48,-0.83l2.04,-4.79l0.15,0l2.02,4.84c0.16,0.38,0.31,0.64,0.44,0.75c0.13,0.11,0.31,0.18,0.55,0.19l0,0.15l-2.29,0l0,-0.15c0.23,-0.01,0.38,-0.05,0.47,-0.11c0.08,-0.06,0.12,-0.14,0.12,-0.24c0,-0.12,-0.05,-0.32,-0.17,-0.59l-0.35,-0.83m-0.12,-0.31l-0.98,-2.35l-1.01,2.35l2,0m7.76,2.26l-2.25,-4.9l0,3.89c0,0.35,0.03,0.58,0.11,0.67c0.1,0.12,0.27,0.18,0.5,0.18l0.2,0l0,0.15l-2.02,0l0,-0.15l0.2,0c0.24,0,0.42,-0.07,0.52,-0.22c0.06,-0.09,0.09,-0.3,0.09,-0.62l0,-3.8c0,-0.25,-0.02,-0.44,-0.08,-0.55c-0.04,-0.08,-0.11,-0.15,-0.22,-0.2c-0.1,-0.05,-0.28,-0.08,-0.51,-0.08l0,-0.15l1.65,0l2.11,4.55l2.07,-4.55l1.65,0l0,0.15l-0.2,0c-0.24,0,-0.42,0.07,-0.52,0.22c-0.06,0.09,-0.09,0.3,-0.09,0.62l0,3.8c0,0.35,0.04,0.58,0.12,0.67c0.1,0.12,0.27,0.18,0.5,0.18l0.2,0l0,0.15l-2.47,0l0,-0.15l0.2,0c0.24,0,0.42,-0.07,0.52,-0.22c0.06,-0.09,0.09,-0.3,0.09,-0.62l0,-3.89l-2.24,4.9l-0.14,0m6.42,-4.05c0.59,0,1.07,0.22,1.43,0.67c0.3,0.38,0.45,0.83,0.45,1.33c0,0.35,-0.08,0.7,-0.25,1.06c-0.16,0.36,-0.4,0.63,-0.69,0.81c-0.29,0.18,-0.62,0.27,-0.99,0.27c-0.59,0,-1.06,-0.23,-1.41,-0.7c-0.29,-0.39,-0.44,-0.84,-0.44,-1.34c0,-0.36,0.08,-0.71,0.26,-1.07c0.17,-0.35,0.41,-0.62,0.7,-0.79c0.29,-0.17,0.6,-0.25,0.92,-0.25m-0.13,0.27c-0.15,0,-0.3,0.04,-0.45,0.13c-0.15,0.09,-0.27,0.24,-0.37,0.47c-0.09,0.22,-0.14,0.51,-0.14,0.87c0,0.57,0.11,1.06,0.34,1.48c0.22,0.41,0.52,0.62,0.9,0.62c0.27,0,0.5,-0.11,0.68,-0.34c0.18,-0.22,0.27,-0.62,0.27,-1.18c0,-0.69,-0.15,-1.24,-0.45,-1.65c-0.2,-0.27,-0.46,-0.41,-0.77,-0.41m5.38,3.33c-0.19,0.2,-0.37,0.34,-0.56,0.43c-0.18,0.08,-0.38,0.13,-0.59,0.13c-0.42,0,-0.8,-0.17,-1.12,-0.53c-0.32,-0.35,-0.48,-0.82,-0.48,-1.38c0,-0.56,0.17,-1.08,0.53,-1.54c0.35,-0.46,0.81,-0.7,1.37,-0.7c0.34,0,0.63,0.11,0.85,0.33l0,-0.72c0,-0.44,-0.01,-0.72,-0.03,-0.82c-0.02,-0.1,-0.05,-0.17,-0.1,-0.21c-0.04,-0.03,-0.1,-0.05,-0.17,-0.05c-0.07,0,-0.17,0.02,-0.29,0.06l-0.05,-0.15l1.17,-0.48l0.19,0l0,4.55c0,0.46,0.01,0.74,0.03,0.84c0.02,0.1,0.05,0.17,0.1,0.21c0.04,0.04,0.1,0.06,0.16,0.06c0.07,0,0.18,-0.02,0.3,-0.07l0.04,0.15l-1.16,0.48l-0.19,0l0,-0.56m0,-0.3l0,-2.02c-0.01,-0.19,-0.06,-0.37,-0.15,-0.53c-0.08,-0.16,-0.19,-0.28,-0.34,-0.36c-0.14,-0.08,-0.28,-0.12,-0.41,-0.12c-0.25,0,-0.47,0.11,-0.67,0.33c-0.26,0.29,-0.39,0.73,-0.39,1.3c0,0.57,0.12,1.02,0.37,1.32c0.25,0.3,0.53,0.46,0.84,0.46c0.26,0,0.51,-0.13,0.75,-0.39m2.28,-1.71c0,0.58,0.13,1.04,0.42,1.37c0.28,0.33,0.62,0.49,1,0.49c0.25,0,0.48,-0.07,0.67,-0.21c0.19,-0.14,0.35,-0.38,0.47,-0.72l0.13,0.08c-0.06,0.39,-0.23,0.74,-0.52,1.07c-0.28,0.32,-0.65,0.48,-1.08,0.48c-0.47,0,-0.87,-0.18,-1.21,-0.55c-0.33,-0.36,-0.5,-0.86,-0.5,-1.48c0,-0.67,0.17,-1.19,0.51,-1.57c0.34,-0.37,0.77,-0.56,1.29,-0.56c0.44,0,0.8,0.14,1.08,0.43c0.28,0.29,0.42,0.67,0.42,1.16l-2.71,0m0,-0.24l1.82,0c-0.01,-0.25,-0.04,-0.42,-0.09,-0.53c-0.07,-0.16,-0.17,-0.28,-0.32,-0.37c-0.14,-0.09,-0.29,-0.13,-0.44,-0.13c-0.23,0,-0.45,0.09,-0.63,0.27c-0.18,0.18,-0.29,0.44,-0.32,0.77m4.59,-3.4l0,5.22c0,0.24,0.01,0.4,0.05,0.48c0.03,0.08,0.09,0.14,0.16,0.18c0.07,0.04,0.21,0.06,0.41,0.06l0,0.15l-1.92,0l0,-0.15c0.18,0,0.3,-0.01,0.36,-0.05c0.06,-0.03,0.11,-0.09,0.15,-0.18c0.03,-0.08,0.05,-0.25,0.05,-0.49l0,-3.57c0,-0.44,-0.01,-0.71,-0.03,-0.81c-0.02,-0.1,-0.05,-0.17,-0.09,-0.2c-0.04,-0.03,-0.1,-0.05,-0.16,-0.05c-0.07,0,-0.16,0.02,-0.28,0.06l-0.07,-0.15l1.17,-0.48l0.19,0" fill="#000000" stroke="none" fill-opacity="1"/>
</g>
</g>
<g clip-path="url(#c3)">
<g fill="none" stroke-width="0.62">
<polyline fill="none" points="134.64,135.41 134.88,133.72 135.12,131.83 135.37,129.7 135.61,127.32 135.85,124.62 136.09,121.58 136.33,118.15 136.57,114.34 136.81,110.15 137.06,105.68 137.3,101.06 137.54,96.46 137.78,92.04 138.02,87.89 138.26,84.06 138.5,80.56 138.74,77.36 138.99,74.45 139.23,71.78 139.47,69.33 139.71,67.08 139.95,64.99 140.19,63.06 140.43,61.27 140.67,59.6 140.91,58.04 141.16,56.57 141.4,55.2 141.64,53.91 141.88,52.69 142.12,51.54 142.36,50.45 142.6,49.42 142.84,48.45 143.08,47.52 143.32,46.64 143.56,45.8 143.8,45 144.04,44.24 144.28,43.51 144.52,42.82 144.76,42.16 145,41.52 145.24,40.92 145.48,40.33 145.72,39.78 145.96,39.24 146.2,38.73 146.44,38.23 146.68,37.76 146.92,37.3 147.16,36.87 147.4,36.44 147.64,36.04 147.88,35.65 148.11,35.27 148.35,34.91 148.59,34.56 148.83,34.22 149.07,33.89 149.31,33.58 149.55,33.28 149.79,32.98 150.02,32.7 150.26,32.42 150.5,32.16 150.74,31.9 150.97,31.65 151.21,31.41 151.45,31.18 151.69,30.95 151.92,30.73 152.16,30.52 152.4,30.32 152.64,30.12 152.87,29.92 153.11,29.74 153.35,29.56 153.58,29.37 153.82,29.2 154.05,29.04 154.29,28.88 154.53,28.72 154.76,28.57 155,28.41 155.23,28.27 155.47,28.13 155.7,28 155.94,27.86 156.17,27.73 156.41,27.61 156.64,27.49 156.88,27.36 157.11,27.25 157.35,27.13 157.58,27.02 157.81,26.91 158.05,26.8 158.28,26.71 158.51,26.6 158.75,26.51 158.98,26.41 159.21,26.32 159.45,26.23 159.68,26.14 159.91,26.05 160.14,25.97 160.37,25.88 160.61,25.8 160.84,25.72 161.07,25.64 161.3,25.57 161.53,25.49 161.76,25.42 161.99,25.35 162.22,25.28 162.45,25.21 162.68,25.15 162.91,25.09 163.14,25.02 163.37,24.96 163.6,24.9 163.83,24.84 164.06,24.78 164.29,24.72 164.52,24.66 164.75,24.61 164.97,24.55 165.2,24.5 165.43,24.45 165.66,24.39 165.89,24.34 166.11,24.3 166.34,24.25 166.57,24.2 166.79,24.15 167.02,24.11 167.24,24.07 167.47,24.02 167.7,23.97 167.92,23.93 168.15,23.89 168.37,23.85 168.6,23.81 168.82,23.77 169.04,23.73 169.27,23.69 169.49,23.65 169.72,23.62 169.94,23.58 170.16,23.54 170.38,23.51 170.61,23.47 170.83,23.43 171.05,23.4 171.27,23.37 171.49,23.34 171.72,23.31 171.94,23.27 172.16,23.24 172.38,23.21 172.6,23.18 172.82,23.15 173.04,23.12 173.26,23.09 173.48,23.06 173.7,23.03 173.91,23 174.13,22.98 174.35,22.95 174.57,22.92 174.79,22.9 175,22.87 175.22,22.84 175.44,22.82 175.65,22.8 175.87,22.77 176.09,22.75 176.3,22.72 176.52,22.7 176.73,22.67 176.95,22.65 177.16,22.63 177.37,22.61 177.59,22.58 177.8,22.56 178.02,22.54 178.23,22.52 178.44,22.5 178.65,22.47 178.87,22.46 179.08,22.43 179.29,22.41 179.5,22.39 179.71,22.38 179.92,22.35 180.13,22.33 180.34,22.32 180.55,22.3 180.76,22.28 180.97,22.26 181.18,22.24 181.39,22.22 181.59,22.21 181.8,22.19 182.01,22.17 182.22,22.15 182.42,22.14 182.63,22.12 182.84,22.1 183.04,22.09 183.25,22.07 183.45,22.05 183.66,22.04 183.86,22.02 184.06,22.01 184.27,21.99 184.47,21.98 184.67,21.96 184.88,21.95 185.08,21.93 185.28,21.91 185.48,21.9 185.69,21.89 185.89,21.87 186.09,21.86 186.29,21.85 186.49,21.83 186.69,21.82 186.89,21.81 187.08,21.79 187.28,21.78 187.48,21.76 187.68,21.75 187.88,21.74 188.07,21.73 188.27,21.71 188.47,21.7 188.66,21.69 188.86,21.68 189.05,21.67 189.25,21.65 189.44,21.64 189.64,21.63 189.83,21.62 190.02,21.61 190.22,21.59 190.41,21.58 190.6,21.57 190.79,21.56 190.98,21.55 191.17,21.54 191.37,21.53 191.56,21.51 191.75,21.51 191.93,21.5 192.12,21.48 192.31,21.47 192.5,21.47 192.69,21.45 192.88,21.44 193.07,21.44 193.25,21.42 193.43,21.42 193.62,21.4 193.81,21.39 193.99,21.39 194.17,21.37 194.36,21.37 194.55,21.36 194.73,21.35 194.91,21.34 195.1,21.33 195.28,21.32 195.46,21.31 195.64,21.3 195.82,21.3 196,21.28 196.18,21.28 196.36,21.27 196.54,21.26 196.72,21.25 196.9,21.24 197.07,21.23 197.25,21.22 197.43,21.22 197.61,21.21 197.78,21.2 197.96,21.19 198.13,21.19 198.31,21.17 198.48,21.17 198.66,21.16 198.83,21.16 199.01,21.14 199.18,21.14 199.35,21.13 199.52,21.13 199.7,21.12 199.86,21.11 200.03,21.1 200.2,21.09 200.37,21.09 200.54,21.08 200.71,21.07 200.88,21.06 201.05,21.06 201.21,21.05 201.38,21.05 201.55,21.04 201.71,21.03 201.88,21.03 202.05,21.02 202.21,21.01 202.37,21 202.54,21 202.7,20.99 202.86,20.99 203.03,20.98 203.18,20.97 203.35,20.97 203.51,20.96 203.67,20.96 203.83,20.95 203.99,20.94 204.15,20.94 204.31,20.93 204.46,20.92 204.62,20.92 204.78,20.91 204.94,20.91 205.09,20.9 205.25,20.89 205.4,20.89 205.56,20.89 205.71,20.88 205.86,20.88 206.02,20.87 206.17,20.86 206.32,20.86 206.48,20.85 206.63,20.85 206.78,20.84 206.93,20.84 207.08,20.83 207.23,20.83 207.38,20.82 207.52,20.82 207.67,20.81 207.82,20.81 207.96,20.8 208.11,20.8 208.26,20.79 208.4,20.79 208.55,20.79 208.69,20.78 208.83,20.77 208.98,20.77 209.12,20.76 209.27,20.76 209.41,20.75 209.55,20.75 209.69,20.74 209.83,20.74 209.97,20.74 210.11,20.73 210.25,20.72 210.38,20.72 210.52,20.72 210.66,20.71 210.8,20.71 210.93,20.71 211.06,20.7 211.2,20.7 211.33,20.69 211.47,20.69 211.6,20.69 211.73,20.68 211.87,20.68 212,20.68 212.13,20.67 212.26,20.66 212.39,20.66 212.52,20.66 212.65,20.65 212.78,20.65 212.91,20.65 213.04,20.64 213.16,20.64 213.29,20.63 213.42,20.63 213.54,20.63 213.66,20.62 213.79,20.62 213.91,20.62 214.03,20.62 214.16,20.61 214.28,20.61 214.4,20.6 214.52,20.6 214.64,20.6 214.76,20.59 214.88,20.59 215,20.58 215.12,20.58 215.24,20.58 215.35,20.58 215.47,20.57 215.59,20.57 215.7,20.57 215.81,20.56 215.93,20.56 216.05,20.55 216.16,20.55 216.27,20.55 216.38,20.55 216.5,20.54 216.61,20.54 216.72,20.54 216.82,20.54 216.93,20.53 217.05,20.53 217.15,20.52 217.26,20.52 217.37,20.52 217.47,20.52 217.58,20.52 217.69,20.51 217.79,20.51 217.89,20.51 218,20.51 218.1,20.5 218.2,20.5 218.31,20.49 218.41,20.49 218.5,20.49 218.61,20.49 218.71,20.49 218.81,20.48 218.91,20.48 219,20.48 219.1,20.48 219.2,20.48 219.29,20.47 219.39,20.47 219.48,20.47 219.58,20.46 219.67,20.46 219.77,20.46 219.86,20.46 219.95,20.46 220.04,20.45 220.13,20.45 220.22,20.45 220.31,20.44 220.4,20.44 220.49,20.44 220.58,20.44 220.66,20.44 220.75,20.43 220.84,20.43 220.93,20.43 221.01,20.43 221.1,20.43 221.18,20.43 221.26,20.42 221.35,20.42 221.43,20.42 221.51,20.41 221.59,20.41 221.67,20.41 221.75,20.41 221.83,20.41 221.91,20.41 221.98,20.4 222.06,20.4 222.14,20.4 222.22,20.4 222.29,20.4 222.36,20.4 222.44,20.4 222.51,20.39 222.58,20.39 222.66,20.39 222.73,20.39 222.8,20.38 222.87,20.38 222.94,20.38 223.01,20.38 223.08,20.38 223.15,20.38 223.21,20.38 223.28,20.37 223.35,20.37 223.42,20.37 223.48,20.37 223.55,20.37 223.61,20.37 223.68,20.37 223.73,20.37 223.8,20.37 223.86,20.36 223.92,20.36 223.98,20.36 224.04,20.36 224.1,20.35 224.16,20.35 224.22,20.35 224.28,20.35 224.33,20.35 224.39,20.35 224.44,20.35 224.5,20.35 224.55,20.35 224.6,20.35 224.66,20.34 224.71,20.34 224.76,20.34 224.81,20.34 224.87,20.34 224.91,20.34 224.97,20.34 225.01,20.34 225.06,20.34 225.11,20.34 225.15,20.34 225.2,20.33 225.25,20.33 225.29,20.33 225.33,20.33 225.38,20.33 225.42,20.33 225.46,20.32 225.51,20.32 225.55,20.32 225.59,20.32 225.63,20.32 225.67,20.32 225.71,20.32 225.74,20.32 225.78,20.32 225.82,20.32 225.85,20.32 225.89,20.32 225.92,20.32 225.96,20.32 225.99,20.31 226.03,20.31 226.06,20.31 226.09,20.31 226.12,20.31 226.15,20.31 226.18,20.31 226.21,20.31 226.24,20.31 226.27,20.31 226.3,20.31 226.32,20.31 226.35,20.31 226.37,20.31 226.4,20.31 226.42,20.31 226.45,20.31 226.47,20.31 226.49,20.31 226.51,20.31 226.53,20.31 226.56,20.3 226.58,20.3 226.59,20.3 226.61,20.3 226.63,20.3 226.65,20.3 226.66,20.3 226.68,20.3 226.7,20.3 226.71,20.3 226.73,20.3 226.74,20.3 226.75,20.3 226.76,20.3 226.77,20.3 226.79,20.3 226.8,20.3 226.81,20.3 226.82,20.3 226.83,20.3 226.83,20.29 226.84,20.29 226.85,20.29 226.86,20.29 226.86,20.29 226.87,20.29 226.87,20.29 226.88,20.29 226.87,20.29 226.87,20.29 226.86,20.29 226.86,20.29 226.85,20.29 226.84,20.29 226.83,20.29 226.83,20.29 226.82,20.29 226.81,20.29 226.8,20.29 226.79,20.29 226.77,20.29 226.76,20.29 226.75,20.29 226.74,20.29 226.73,20.29 226.71,20.29 226.7,20.29 226.68,20.3 226.66,20.3 226.65,20.3 226.63,20.3 226.61,20.3 226.59,20.3 226.58,20.3 226.56,20.3 226.53,20.3 226.51,20.3 226.49,20.3 226.47,20.3 226.45,20.3 226.42,20.3 226.4,20.3 226.37,20.3 226.35,20.3 226.32,20.3 226.3,20.3 226.27,20.3 226.24,20.3 226.21,20.3 226.18,20.3 226.15,20.3 226.12,20.3 226.09,20.3 226.06,20.3 226.03,20.3 225.99,20.3 225.96,20.3 225.92,20.3 225.89,20.3 225.85,20.3 225.82,20.3 225.78,20.3 225.74,20.3 225.71,20.3 225.67,20.31 225.63,20.31 225.59,20.31 225.55,20.31 225.51,20.31 225.46,20.31 225.42,20.31 225.38,20.31 225.33,20.31 225.29,20.31 225.25,20.31 225.2,20.31 225.15,20.31 225.11,20.31 225.06,20.31 225.01,20.31 224.97,20.31 224.91,20.31 224.87,20.31 224.81,20.31 224.76,20.31 224.71,20.31 224.66,20.31 224.6,20.31 224.55,20.31 224.5,20.31 224.44,20.31 224.39,20.31 224.33,20.31 224.28,20.31 224.22,20.31 224.16,20.31 224.1,20.31 224.04,20.31 223.98,20.31 223.92,20.31 223.86,20.31 223.8,20.31 223.73,20.32 223.68,20.32 223.61,20.32 223.55,20.32 223.48,20.32 223.42,20.32 223.35,20.32 223.28,20.32 223.21,20.32 223.15,20.32 223.08,20.32 223.01,20.32 222.94,20.32 222.87,20.32 222.8,20.32 222.73,20.32 222.66,20.32 222.58,20.32 222.51,20.32 222.44,20.32 222.36,20.32 222.29,20.32 222.22,20.32 222.14,20.32 222.06,20.32 221.98,20.32 221.91,20.33 221.83,20.33 221.75,20.33 221.67,20.33 221.59,20.33 221.51,20.33 221.43,20.33 221.35,20.33 221.26,20.33 221.18,20.33 221.1,20.33 221.01,20.34 220.93,20.34 220.84,20.34 220.75,20.34 220.66,20.34 220.58,20.34 220.49,20.34 220.4,20.34 220.31,20.34 220.22,20.34 220.13,20.34 220.04,20.34 219.95,20.34 219.86,20.34 219.77,20.34 219.67,20.34 219.58,20.35 219.48,20.35 219.39,20.35 219.29,20.35 219.2,20.35 219.1,20.35 219,20.35 218.91,20.35 218.81,20.35 218.71,20.35 218.61,20.35 218.5,20.36 218.41,20.36 218.31,20.36 218.2,20.36 218.1,20.36 218,20.37 217.89,20.37 217.79,20.37 217.69,20.37 217.58,20.37 217.47,20.37 217.37,20.37 217.26,20.37 217.15,20.38 217.05,20.38 216.93,20.38 216.82,20.38 216.72,20.38 216.61,20.38 216.5,20.38 216.38,20.39 216.27,20.39 216.16,20.39 216.05,20.4 215.93,20.4 215.81,20.4 215.7,20.4 215.59,20.4 215.47,20.4 215.35,20.41 215.24,20.41 215.12,20.41 215,20.41 214.88,20.41 214.76,20.41 214.64,20.42 214.52,20.42 214.4,20.42 214.28,20.43 214.16,20.43 214.03,20.43 213.91,20.43 213.79,20.43 213.66,20.44 213.54,20.44 213.42,20.44 213.29,20.44 213.16,20.45 213.04,20.45 212.91,20.45 212.78,20.46 212.65,20.46 212.52,20.46 212.39,20.46 212.26,20.47 212.13,20.47 212,20.48 211.87,20.48 211.73,20.48 211.6,20.48 211.47,20.49 211.33,20.49 211.2,20.49 211.06,20.49 210.93,20.5 210.8,20.5 210.66,20.51 210.52,20.51 210.38,20.51 210.25,20.51 210.11,20.52 209.97,20.52 209.83,20.52 209.69,20.52 209.55,20.53 209.41,20.54 209.27,20.54 209.12,20.54 208.98,20.54 208.83,20.55 208.69,20.55 208.55,20.55 208.4,20.56 208.26,20.56 208.11,20.57 207.96,20.57 207.82,20.57 207.67,20.58 207.52,20.58 207.38,20.58 207.23,20.59 207.08,20.59 206.93,20.6 206.78,20.6 206.63,20.6 206.48,20.61 206.32,20.62 206.17,20.62 206.02,20.62 205.86,20.63 205.71,20.63 205.56,20.63 205.4,20.64 205.25,20.65 205.09,20.65 204.94,20.65 204.78,20.66 204.62,20.66 204.46,20.67 204.31,20.67 204.15,20.68 203.99,20.68 203.83,20.69 203.67,20.69 203.51,20.69 203.35,20.7 203.18,20.71 203.03,20.71 202.86,20.71 202.7,20.72 202.54,20.72 202.37,20.73 202.21,20.74 202.05,20.74 201.88,20.74 201.71,20.75 201.55,20.75 201.38,20.76 201.21,20.77 201.05,20.77 200.88,20.78 200.71,20.79 200.54,20.79 200.37,20.79 200.2,20.8 200.03,20.8 199.86,20.81 199.7,20.82 199.52,20.82 199.35,20.83 199.18,20.83 199.01,20.84 198.83,20.85 198.66,20.85 198.48,20.86 198.31,20.86 198.13,20.87 197.96,20.88 197.78,20.88 197.61,20.89 197.43,20.89 197.25,20.9 197.07,20.91 196.9,20.91 196.72,20.92 196.54,20.92 196.36,20.93 196.18,20.94 196,20.95 195.82,20.96 195.64,20.96 195.46,20.97 195.28,20.97 195.1,20.98 194.91,20.99 194.73,21 194.55,21 194.36,21.01 194.17,21.02 193.99,21.02 193.81,21.03 193.62,21.04 193.43,21.05 193.25,21.05 193.07,21.06 192.88,21.07 192.69,21.08 192.5,21.08 192.31,21.09 192.12,21.1 191.93,21.11 191.75,21.12 191.56,21.13 191.37,21.13 191.17,21.14 190.98,21.15 190.79,21.16 190.6,21.17 190.41,21.17 190.22,21.19 190.02,21.19 189.83,21.2 189.64,21.21 189.44,21.22 189.25,21.23 189.05,21.23 188.86,21.25 188.66,21.25 188.47,21.27 188.27,21.27 188.07,21.28 187.88,21.29 187.68,21.3 187.48,21.31 187.28,21.32 187.08,21.33 186.89,21.34 186.69,21.35 186.49,21.36 186.29,21.37 186.09,21.38 185.89,21.39 185.69,21.4 185.48,21.41 185.28,21.42 185.08,21.44 184.88,21.44 184.67,21.45 184.47,21.47 184.27,21.48 184.06,21.49 183.86,21.5 183.66,21.51 183.45,21.52 183.25,21.53 183.04,21.54 182.84,21.56 182.63,21.57 182.42,21.58 182.22,21.59 182.01,21.61 181.8,21.62 181.59,21.63 181.39,21.64 181.18,21.65 180.97,21.67 180.76,21.68 180.55,21.69 180.34,21.71 180.13,21.72 179.92,21.73 179.71,21.74 179.5,21.76 179.29,21.78 179.08,21.79 178.87,21.8 178.65,21.82 178.44,21.83 178.23,21.84 178.02,21.86 177.8,21.87 177.59,21.88 177.37,21.9 177.16,21.91 176.95,21.93 176.73,21.95 176.52,21.96 176.3,21.98 176.09,21.99 175.87,22.01 175.65,22.03 175.44,22.04 175.22,22.06 175,22.08 174.79,22.09 174.57,22.11 174.35,22.13 174.13,22.15 173.91,22.16 173.7,22.18 173.48,22.2 173.26,22.22 173.04,22.24 172.82,22.26 172.6,22.27 172.38,22.29 172.16,22.31 171.94,22.33 171.72,22.35 171.49,22.37 171.27,22.39 171.05,22.41 170.83,22.43 170.61,22.45 170.38,22.47 170.16,22.49 169.94,22.52 169.72,22.53 169.49,22.56 169.27,22.58 169.04,22.6 168.82,22.63 168.6,22.65 168.37,22.67 168.15,22.69 167.92,22.72 167.7,22.74 167.47,22.77 167.24,22.79 167.02,22.82 166.79,22.84 166.57,22.87 166.34,22.89 166.11,22.92 165.89,22.95 165.66,22.97 165.43,23 165.2,23.03 164.97,23.06 164.75,23.09 164.52,23.11 164.29,23.14 164.06,23.17 163.83,23.2 163.6,23.23 163.37,23.26 163.14,23.29 162.91,23.32 162.68,23.36 162.45,23.39 162.22,23.42 161.99,23.46 161.76,23.49 161.53,23.52 161.3,23.56 161.07,23.6 160.84,23.63 160.61,23.67 160.37,23.71 160.14,23.74 159.91,23.78 159.68,23.82 159.45,23.86 159.21,23.9 158.98,23.94 158.75,23.98 158.51,24.02 158.28,24.07 158.05,24.11 157.81,24.15 157.58,24.2 157.35,24.24 157.11,24.29 156.88,24.33 156.64,24.38 156.41,24.43 156.17,24.48 155.94,24.53 155.7,24.58 155.47,24.63 155.23,24.68 155,24.74 154.76,24.79 154.53,24.85 154.29,24.91 154.05,24.96 153.82,25.02 153.58,25.09 153.35,25.15 153.11,25.21 152.87,25.27 152.64,25.33 152.4,25.4 152.16,25.47 151.92,25.54 151.69,25.61 151.45,25.68 151.21,25.75 150.97,25.83 150.74,25.91 150.5,25.98 150.26,26.06 150.02,26.15 149.79,26.23 149.55,26.32 149.31,26.4 149.07,26.49 148.83,26.59 148.59,26.68 148.35,26.77 148.11,26.88 147.88,26.97 147.64,27.08 147.4,27.19 147.16,27.3 146.92,27.41 146.68,27.53 146.44,27.64 146.2,27.76 145.96,27.89 145.72,28.02 145.48,28.15 145.24,28.29 145,28.43 144.76,28.58 144.52,28.73 144.28,28.89 144.04,29.05 143.8,29.22 143.56,29.39 143.32,29.56 143.08,29.75 142.84,29.94 142.6,30.14 142.36,30.34 142.12,30.56 141.88,30.78 141.64,31.01 141.4,31.25 141.16,31.5 140.91,31.77 140.67,32.04 140.43,32.33 140.19,32.63 139.95,32.95 139.71,33.28 139.47,33.63 139.23,33.99 138.99,34.38 138.74,34.79 138.5,35.23 138.26,35.69 138.02,36.18 137.78,36.7 137.54,37.26 137.3,37.86 137.06,38.5 136.81,39.18 136.57,39.92 136.33,40.73 136.09,41.59 135.85,42.54 135.61,43.57 135.37,44.7 135.12,45.94 134.88,47.31 134.64,48.83 134.4,50.53 134.16,52.42 133.92,54.54 133.67,56.93 133.43,59.62 133.19,62.67 132.95,66.09 132.71,69.9 132.47,74.09 132.23,78.56 131.98,83.18 131.74,87.78 131.5,92.21 131.26,96.35 131.02,100.18 130.78,103.68 130.54,106.88 130.3,109.8 130.05,112.46 129.81,114.91 129.57,117.17 129.33,119.25 129.09,121.18 128.85,122.97 128.61,124.64 128.37,126.2 128.13,127.67 127.89,129.04 127.64,130.33 127.4,131.55 127.16,132.7 126.92,133.79 126.68,134.82 126.44,135.8 126.2,136.72 125.96,137.6 125.72,138.44 125.48,139.24 125.24,140 125,140.73 124.76,141.42 124.52,142.09 124.28,142.72 124.04,143.33 123.8,143.91 123.56,144.47 123.32,145 123.08,145.52 122.84,146.01 122.6,146.48 122.36,146.94 122.12,147.38 121.88,147.8 121.64,148.2 121.41,148.59 121.17,148.97 120.93,149.33 120.69,149.68 120.45,150.02 120.21,150.35 119.97,150.66 119.73,150.97 119.5,151.26 119.26,151.54 119.02,151.82 118.78,152.08 118.54,152.34 118.31,152.59 118.07,152.83 117.83,153.06 117.59,153.29 117.36,153.51 117.12,153.72 116.88,153.93 116.65,154.13 116.41,154.32 116.17,154.5 115.94,154.69 115.7,154.87 115.46,155.04 115.23,155.2 114.99,155.37 114.76,155.52 114.52,155.68 114.28,155.83 114.05,155.97 113.81,156.11 113.58,156.25 113.34,156.38 113.11,156.51 112.87,156.64 112.64,156.76 112.4,156.88 112.17,156.99 111.94,157.11 111.7,157.22 111.47,157.33 111.23,157.44 111,157.53 110.77,157.64 110.53,157.73 110.3,157.83 110.07,157.92 109.84,158.01 109.6,158.11 109.37,158.19 109.14,158.28 108.91,158.36 108.68,158.44 108.44,158.52 108.21,158.6 107.98,158.67 107.75,158.75 107.52,158.82 107.29,158.89 107.06,158.96 106.83,159.03 106.6,159.1 106.37,159.16 106.14,159.22 105.91,159.28 105.68,159.34 105.45,159.41 105.22,159.47 104.99,159.52 104.76,159.58 104.53,159.64 104.31,159.69 104.08,159.75 103.85,159.79 103.62,159.85 103.4,159.9 103.17,159.95 102.94,159.99 102.72,160.04 102.49,160.09 102.26,160.13 102.04,160.18 101.81,160.23 101.59,160.27 101.36,160.31 101.13,160.35 100.91,160.4 100.69,160.43 100.46,160.47 100.24,160.51 100.01,160.55 99.79,160.59 99.57,160.63 99.34,160.66 99.12,160.7 98.9,160.74 98.67,160.77 98.45,160.81 98.23,160.84 98.01,160.88 97.79,160.91 97.57,160.94 97.34,160.97 97.12,161 96.9,161.03 96.68,161.06 96.46,161.09 96.24,161.12 96.02,161.15 95.8,161.18 95.59,161.21 95.37,161.24 95.15,161.26 94.93,161.29 94.71,161.32 94.5,161.34 94.28,161.37 94.06,161.4 93.84,161.42 93.63,161.45 93.41,161.47 93.2,161.49 92.98,161.52 92.77,161.54 92.55,161.57 92.34,161.59 92.12,161.62 91.91,161.63 91.69,161.66 91.48,161.68 91.27,161.7 91.05,161.73 90.84,161.74 90.63,161.77 90.42,161.79 90.2,161.81 89.99,161.83 89.78,161.85 89.57,161.87 89.36,161.89 89.15,161.91 88.94,161.93 88.73,161.94 88.52,161.96 88.31,161.98 88.1,162 87.9,162.02 87.69,162.04 87.48,162.05 87.27,162.07 87.07,162.09 86.86,162.1 86.65,162.12 86.45,162.14 86.24,162.16 86.04,162.17 85.83,162.19 85.63,162.21 85.42,162.22 85.22,162.24 85.01,162.25 84.81,162.27 84.61,162.28 84.4,162.3 84.2,162.31 84,162.33 83.8,162.34 83.6,162.35 83.4,162.37 83.19,162.38 82.99,162.39 82.8,162.41 82.6,162.42 82.4,162.44 82.2,162.45 82,162.46 81.8,162.48 81.6,162.49 81.41,162.5 81.21,162.52 81.01,162.53 80.82,162.54 80.62,162.55 80.42,162.56 80.23,162.58 80.03,162.59 79.84,162.6 79.65,162.61 79.45,162.62 79.26,162.64 79.07,162.65 78.87,162.66 78.68,162.67 78.49,162.68 78.3,162.69 78.11,162.7 77.92,162.72 77.73,162.73 77.54,162.73 77.35,162.75 77.16,162.76 76.97,162.77 76.78,162.78 76.59,162.79 76.41,162.8 76.22,162.81 76.03,162.82 75.85,162.83 75.66,162.84 75.47,162.85 75.29,162.86 75.11,162.87 74.92,162.87 74.73,162.89 74.55,162.89 74.37,162.9 74.19,162.91 74,162.92 73.82,162.93 73.64,162.94 73.46,162.95 73.28,162.96 73.1,162.96 72.92,162.98 72.74,162.98 72.56,162.99 72.38,163 72.21,163.01 72.03,163.02 71.85,163.03 71.68,163.03 71.5,163.04 71.33,163.05 71.15,163.06 70.98,163.07 70.8,163.07 70.63,163.08 70.45,163.09 70.28,163.1 70.11,163.1 69.93,163.11 69.76,163.12 69.59,163.12 69.42,163.13 69.25,163.14 69.08,163.15 68.91,163.15 68.74,163.16 68.57,163.17 68.4,163.18 68.23,163.18 68.07,163.19 67.9,163.2 67.73,163.2 67.57,163.21 67.4,163.21 67.23,163.23 67.07,163.23 66.91,163.24 66.74,163.24 66.58,163.25 66.42,163.26 66.25,163.26 66.1,163.27 65.93,163.27 65.77,163.28 65.61,163.29 65.45,163.29 65.29,163.3 65.13,163.31 64.98,163.31 64.82,163.32 64.66,163.32 64.5,163.33 64.35,163.34 64.19,163.34 64.04,163.35 63.88,163.35 63.72,163.35 63.57,163.36 63.42,163.37 63.26,163.37 63.11,163.38 62.96,163.38 62.8,163.39 62.65,163.4 62.5,163.4 62.36,163.4 62.2,163.41 62.05,163.41 61.91,163.42 61.76,163.43 61.61,163.43 61.46,163.43 61.32,163.44 61.17,163.44 61.02,163.45 60.88,163.46 60.73,163.46 60.59,163.46 60.45,163.47 60.3,163.48 60.16,163.48 60.02,163.48 59.88,163.49 59.74,163.49 59.6,163.5 59.46,163.5 59.32,163.51 59.17,163.51 59.03,163.52 58.9,163.52 58.76,163.52 58.63,163.53 58.49,163.53 58.35,163.54 58.22,163.54 58.08,163.54 57.95,163.55 57.82,163.55 57.68,163.55 57.55,163.56 57.41,163.57 57.28,163.57 57.15,163.57 57.02,163.58 56.89,163.58 56.76,163.58 56.63,163.59 56.5,163.59 56.37,163.6 56.25,163.6 56.12,163.6 55.99,163.61 55.87,163.61 55.74,163.61 55.62,163.62 55.49,163.62 55.37,163.63 55.25,163.63 55.12,163.63 55,163.63 54.88,163.64 54.76,163.65 54.64,163.65 54.52,163.65 54.4,163.65 54.28,163.66 54.16,163.66 54.05,163.66 53.93,163.66 53.81,163.67 53.69,163.68 53.58,163.68 53.47,163.68 53.35,163.68 53.23,163.69 53.12,163.69 53.01,163.69 52.9,163.69 52.78,163.7 52.67,163.7 52.56,163.71 52.46,163.71 52.35,163.71 52.24,163.71 52.13,163.72 52.02,163.72 51.91,163.72 51.81,163.72 51.7,163.72 51.59,163.73 51.49,163.73 51.39,163.74 51.28,163.74 51.18,163.74 51.08,163.74 50.98,163.75 50.88,163.75 50.78,163.75 50.67,163.75 50.57,163.75 50.47,163.76 50.37,163.76 50.28,163.76 50.18,163.77 50.08,163.77 49.99,163.77 49.9,163.77 49.8,163.77 49.7,163.78 49.61,163.78 49.52,163.78 49.42,163.78 49.33,163.78 49.24,163.79 49.15,163.79 49.06,163.79 48.97,163.8 48.88,163.8 48.79,163.8 48.71,163.8 48.62,163.8 48.53,163.81 48.44,163.81 48.35,163.81 48.27,163.82 48.19,163.82 48.1,163.82 48.02,163.82 47.93,163.82 47.85,163.82 47.77,163.83 47.7,163.83 47.61,163.83 47.53,163.83 47.46,163.83 47.37,163.83 47.3,163.84 47.22,163.84 47.14,163.84 47.07,163.84 46.99,163.85 46.92,163.85 46.84,163.85 46.77,163.85 46.7,163.85 46.62,163.85 46.55,163.85 46.48,163.86 46.41,163.86 46.34,163.86 46.27,163.86 46.2,163.86 46.13,163.86 46.07,163.86 46,163.87 45.93,163.87 45.86,163.87 45.8,163.87 45.73,163.88 45.67,163.88 45.61,163.88 45.55,163.88 45.48,163.88 45.42,163.88 45.36,163.88 45.3,163.88 45.24,163.88 45.18,163.89 45.12,163.89 45.06,163.89 45.01,163.89 44.95,163.89 44.89,163.89 44.84,163.89 44.78,163.89 44.73,163.89 44.68,163.89 44.63,163.9 44.57,163.9 44.52,163.9 44.47,163.9 44.42,163.9 44.37,163.91 44.32,163.91 44.27,163.91 44.22,163.91 44.18,163.91 44.13,163.91 44.08,163.91 44.04,163.91 43.99,163.91 43.95,163.91 43.9,163.91 43.86,163.91 43.82,163.92 43.77,163.92 43.73,163.92 43.69,163.92 43.65,163.92 43.62,163.92 43.58,163.92 43.54,163.92 43.5,163.92 43.46,163.92 43.43,163.92 43.39,163.92 43.36,163.92 43.32,163.92 43.29,163.93 43.25,163.93 43.23,163.93 43.19,163.93 43.16,163.93 43.13,163.93 43.1,163.93 43.07,163.93 43.04,163.93 43.01,163.93 42.99,163.94 42.96,163.94 42.93,163.94 42.91,163.94 42.88,163.94 42.86,163.94 42.83,163.94 42.81,163.94 42.79,163.94 42.77,163.94 42.75,163.94 42.72,163.94 42.71,163.94 42.69,163.94 42.67,163.94 42.65,163.94 42.63,163.94 42.62,163.94 42.6,163.94 42.58,163.94 42.57,163.94 42.55,163.94 42.54,163.94 42.53,163.94 42.52,163.94 42.51,163.94 42.5,163.94 42.48,163.94 42.47,163.94 42.47,163.94 42.45,163.94 42.45,163.95 42.44,163.95 42.43,163.95 42.43,163.95 42.42,163.95 42.41,163.95 42.41,163.95 42.4,163.95 42.41,163.95 42.41,163.95 42.42,163.95 42.43,163.95 42.43,163.95 42.44,163.95 42.45,163.95 42.45,163.95 42.47,163.95 42.47,163.95 42.48,163.95 42.5,163.95 42.51,163.95 42.52,163.95 42.53,163.95 42.54,163.95 42.55,163.95 42.57,163.95 42.58,163.95 42.6,163.94 42.62,163.94 42.63,163.94 42.65,163.94 42.67,163.94 42.69,163.94 42.71,163.94 42.72,163.94 42.75,163.94 42.77,163.94 42.79,163.94 42.81,163.94 42.83,163.94 42.86,163.94 42.88,163.94 42.91,163.94 42.93,163.94 42.96,163.94 42.99,163.94 43.01,163.94 43.04,163.94 43.07,163.94 43.1,163.94 43.13,163.94 43.16,163.94 43.19,163.94 43.23,163.94 43.25,163.94 43.29,163.94 43.32,163.94 43.36,163.94 43.39,163.94 43.43,163.94 43.46,163.94 43.5,163.94 43.54,163.94 43.58,163.94 43.62,163.94 43.65,163.94 43.69,163.94 43.73,163.94 43.77,163.94 43.82,163.94 43.86,163.94 43.9,163.94 43.95,163.94 43.99,163.94 44.04,163.94 44.08,163.94 44.13,163.94 44.18,163.94 44.22,163.94 44.27,163.94 44.32,163.94 44.37,163.94 44.42,163.94 44.47,163.94 44.52,163.94 44.57,163.93 44.63,163.93 44.68,163.93 44.73,163.93 44.78,163.93 44.84,163.93 44.89,163.93 44.95,163.93 45.01,163.93 45.06,163.93 45.12,163.93 45.18,163.93 45.24,163.93 45.3,163.93 45.36,163.93 45.42,163.93 45.48,163.93 45.55,163.92 45.61,163.92 45.67,163.92 45.73,163.92 45.8,163.92 45.86,163.92 45.93,163.92 46,163.92 46.07,163.92 46.13,163.92 46.2,163.92 46.27,163.92 46.34,163.92 46.41,163.92 46.48,163.92 46.55,163.92 46.62,163.92 46.7,163.92 46.77,163.92 46.84,163.92 46.92,163.92 46.99,163.92 47.07,163.92 47.14,163.92 47.22,163.92 47.3,163.92 47.37,163.91 47.46,163.91 47.53,163.91 47.61,163.91 47.7,163.91 47.77,163.91 47.85,163.91 47.93,163.91 48.02,163.91 48.1,163.91 48.19,163.91 48.27,163.91 48.35,163.91 48.44,163.91 48.53,163.91 48.62,163.91 48.71,163.91 48.79,163.91 48.88,163.91 48.97,163.91 49.06,163.9 49.15,163.9 49.24,163.9 49.33,163.9 49.42,163.9 49.52,163.9 49.61,163.9 49.7,163.89 49.8,163.89 49.9,163.89 49.99,163.89 50.08,163.89 50.18,163.89 50.28,163.89 50.37,163.89 50.47,163.89 50.57,163.89 50.67,163.89 50.78,163.88 50.88,163.88 50.98,163.88 51.08,163.88 51.18,163.88 51.28,163.88 51.39,163.88 51.49,163.88 51.59,163.88 51.7,163.87 51.81,163.87 51.91,163.87 52.02,163.87 52.13,163.86 52.24,163.86 52.35,163.86 52.46,163.86 52.56,163.86 52.67,163.86 52.78,163.86 52.9,163.85 53.01,163.85 53.12,163.85 53.23,163.85 53.35,163.85 53.47,163.85 53.58,163.84 53.69,163.84 53.81,163.84 53.93,163.83 54.05,163.83 54.16,163.83 54.28,163.83 54.4,163.83 54.52,163.83 54.64,163.82 54.76,163.82 54.88,163.82 55,163.82 55.12,163.82 55.25,163.81 55.37,163.81 55.49,163.81 55.62,163.8 55.74,163.8 55.87,163.8 55.99,163.8 56.12,163.79 56.25,163.79 56.37,163.79 56.5,163.78 56.63,163.78 56.76,163.78 56.89,163.78 57.02,163.77 57.15,163.77 57.28,163.77 57.41,163.77 57.55,163.76 57.68,163.76 57.82,163.75 57.95,163.75 58.08,163.75 58.22,163.75 58.35,163.74 58.49,163.74 58.63,163.74 58.76,163.74 58.9,163.73 59.03,163.73 59.17,163.72 59.32,163.72 59.46,163.72 59.6,163.72 59.74,163.71 59.88,163.71 60.02,163.71 60.16,163.7 60.3,163.7 60.45,163.69 60.59,163.69 60.73,163.69 60.88,163.68 61.02,163.68 61.17,163.68 61.32,163.67 61.46,163.67 61.61,163.66 61.76,163.66 61.91,163.66 62.05,163.65 62.2,163.65 62.36,163.65 62.5,163.64 62.65,163.64 62.8,163.63 62.96,163.63 63.11,163.62 63.26,163.62 63.42,163.61 63.57,163.61 63.72,163.61 63.88,163.6 64.04,163.6 64.19,163.59 64.35,163.59 64.5,163.58 64.66,163.58 64.82,163.57 64.98,163.57 65.13,163.57 65.29,163.56 65.45,163.55 65.61,163.55 65.77,163.55 65.93,163.54 66.1,163.54 66.25,163.53 66.42,163.53 66.58,163.52 66.74,163.52 66.91,163.51 67.07,163.51 67.23,163.5 67.4,163.5 67.57,163.49 67.73,163.49 67.9,163.48 68.07,163.48 68.23,163.47 68.4,163.46 68.57,163.46 68.74,163.46 68.91,163.45 69.08,163.44 69.25,163.44 69.42,163.43 69.59,163.43 69.76,163.42 69.93,163.41 70.11,163.41 70.28,163.4 70.45,163.4 70.63,163.39 70.8,163.38 70.98,163.38 71.15,163.37 71.33,163.37 71.5,163.36 71.68,163.35 71.85,163.35 72.03,163.34 72.21,163.34 72.38,163.33 72.56,163.32 72.74,163.32 72.92,163.31 73.1,163.3 73.28,163.29 73.46,163.29 73.64,163.28 73.82,163.27 74,163.27 74.19,163.26 74.37,163.26 74.55,163.24 74.73,163.24 74.92,163.23 75.11,163.23 75.29,163.22 75.47,163.21 75.66,163.2 75.85,163.2 76.03,163.19 76.22,163.18 76.41,163.17 76.59,163.17 76.78,163.16 76.97,163.15 77.16,163.14 77.35,163.13 77.54,163.12 77.73,163.12 77.92,163.11 78.11,163.1 78.3,163.09 78.49,163.09 78.68,163.07 78.87,163.07 79.07,163.06 79.26,163.05 79.45,163.04 79.65,163.03 79.84,163.03 80.03,163.01 80.23,163.01 80.42,163 80.62,162.99 80.82,162.98 81.01,162.97 81.21,162.96 81.41,162.95 81.6,162.94 81.8,162.93 82,162.92 82.2,162.91 82.4,162.9 82.6,162.89 82.8,162.88 82.99,162.87 83.19,162.86 83.4,162.85 83.6,162.84 83.8,162.83 84,162.82 84.2,162.81 84.4,162.8 84.61,162.79 84.81,162.78 85.01,162.76 85.22,162.75 85.42,162.74 85.63,162.73 85.83,162.72 86.04,162.71 86.24,162.7 86.45,162.69 86.65,162.67 86.86,162.66 87.07,162.65 87.27,162.64 87.48,162.62 87.69,162.61 87.9,162.6 88.1,162.59 88.31,162.58 88.52,162.56 88.73,162.55 88.94,162.53 89.15,162.52 89.36,162.51 89.57,162.5 89.78,162.49 89.99,162.47 90.2,162.45 90.42,162.44 90.63,162.42 90.84,162.41 91.05,162.4 91.27,162.38 91.48,162.37 91.69,162.36 91.91,162.34 92.12,162.33 92.34,162.31 92.55,162.3 92.77,162.28 92.98,162.26 93.2,162.25 93.41,162.23 93.63,162.21 93.84,162.2 94.06,162.18 94.28,162.16 94.5,162.15 94.71,162.13 94.93,162.11 95.15,162.1 95.37,162.08 95.59,162.06 95.8,162.04 96.02,162.02 96.24,162.01 96.46,161.99 96.68,161.97 96.9,161.95 97.12,161.93 97.34,161.91 97.57,161.89 97.79,161.87 98.01,161.85 98.23,161.84 98.45,161.81 98.67,161.79 98.9,161.77 99.12,161.75 99.34,161.73 99.57,161.71 99.79,161.68 100.01,161.66 100.24,161.64 100.46,161.62 100.69,161.59 100.91,161.57 101.13,161.55 101.36,161.53 101.59,161.5 101.81,161.48 102.04,161.45 102.26,161.42 102.49,161.4 102.72,161.37 102.94,161.35 103.17,161.32 103.4,161.29 103.62,161.27 103.85,161.24 104.08,161.22 104.31,161.19 104.53,161.15 104.76,161.13 104.99,161.1 105.22,161.07 105.45,161.04 105.68,161.01 105.91,160.98 106.14,160.95 106.37,160.92 106.6,160.88 106.83,160.85 107.06,160.82 107.29,160.78 107.52,160.75 107.75,160.72 107.98,160.68 108.21,160.64 108.44,160.61 108.68,160.57 108.91,160.54 109.14,160.5 109.37,160.46 109.6,160.42 109.84,160.38 110.07,160.34 110.3,160.3 110.53,160.26 110.77,160.22 111,160.18 111.23,160.13 111.47,160.09 111.7,160.04 111.94,160 112.17,159.95 112.4,159.91 112.64,159.86 112.87,159.81 113.11,159.76 113.34,159.72 113.58,159.66 113.81,159.61 114.05,159.56 114.28,159.5 114.52,159.45 114.76,159.39 114.99,159.33 115.23,159.28 115.46,159.22 115.7,159.16 115.94,159.1 116.17,159.03 116.41,158.97 116.65,158.91 116.88,158.84 117.12,158.77 117.36,158.7 117.59,158.63 117.83,158.56 118.07,158.49 118.31,158.42 118.54,158.34 118.78,158.26 119.02,158.18 119.26,158.09 119.5,158.01 119.73,157.92 119.97,157.84 120.21,157.75 120.45,157.66 120.69,157.56 120.93,157.47 121.17,157.36 121.41,157.27 121.64,157.16 121.88,157.05 122.12,156.95 122.36,156.83 122.6,156.71 122.84,156.6 123.08,156.48 123.32,156.35 123.56,156.22 123.8,156.09 124.04,155.95 124.28,155.81 124.52,155.66 124.76,155.51 125,155.35 125.24,155.2 125.48,155.03 125.72,154.86 125.96,154.68 126.2,154.49 126.44,154.3 126.68,154.1 126.92,153.9 127.16,153.68 127.4,153.46 127.64,153.23 127.89,152.99 128.13,152.74 128.37,152.48 128.61,152.2 128.85,151.91 129.09,151.61 129.33,151.3 129.57,150.96 129.81,150.62 130.05,150.25 130.3,149.86 130.54,149.45 130.78,149.01 131.02,148.55 131.26,148.06 131.5,147.54 131.74,146.98 131.98,146.39 132.23,145.75 132.47,145.06 132.71,144.32 132.95,143.52 133.19,142.65 133.43,141.7 133.67,140.67 133.92,139.54 134.16,138.3 134.4,136.93 134.64,135.41"/>
</g>
<g fill="#ffffff" stroke-linejoin="miter" stroke-width="0.62">
<use xlink:href="#p0" x="42.62" y="164.4"/>
<use xlink:href="#p0" x="55.91" y="163.8"/>
<use xlink:href="#p0" x="71.11" y="163.19"/>
<use xlink:href="#p0" x="101.5" y="158.94"/>
<use xlink:href="#p0" x="107.52" y="161.97"/>
<use xlink:href="#p0" x="121.13" y="150.16"/>
<use xlink:href="#p0" x="125.88" y="156.51"/>
<use xlink:href="#p0" x="126.51" y="139.26"/>
<use xlink:href="#p0" x="128.73" y="125.35"/>
<use xlink:href="#p0" x="130.31" y="111.44"/>
<use xlink:href="#p0" x="130.95" y="97.16"/>
<use xlink:href="#p0" x="131.58" y="83.25"/>
<use xlink:href="#p0" x="132.85" y="69.34"/>
<use xlink:href="#p0" x="133.8" y="140.01"/>
<use xlink:href="#p0" x="135.06" y="128.73"/>
<use xlink:href="#p0" x="135.7" y="45.66"/>
<use xlink:href="#p0" x="136.33" y="116.33"/>
<use xlink:href="#p0" x="137.28" y="102.8"/>
<use xlink:href="#p0" x="138.23" y="36.64"/>
<use xlink:href="#p0" x="139.18" y="74.23"/>
<use xlink:href="#p0" x="140.13" y="59.95"/>
<use xlink:href="#p0" x="142.66" y="47.54"/>
<use xlink:href="#p0" x="143.29" y="29.56"/>
<use xlink:href="#p0" x="147.73" y="35.51"/>
<use xlink:href="#p0" x="161.66" y="24.7"/>
<use xlink:href="#p0" x="173.7" y="21.05"/>
<use xlink:href="#p0" x="198.07" y="22.27"/>
<use xlink:href="#p0" x="212.95" y="21.66"/>
<use xlink:href="#p0" x="226.88" y="20.44"/>
</g>
</g>
</g>
</svg>
