<?xml version="1.0" encoding="UTF-8" standalone="no"?>
<!-- Created with Inkscape (http://www.inkscape.org/) -->

<svg
   xmlns:dc="http://purl.org/dc/elements/1.1/"
   xmlns:cc="http://creativecommons.org/ns#"
   xmlns:rdf="http://www.w3.org/1999/02/22-rdf-syntax-ns#"
   xmlns:svg="http://www.w3.org/2000/svg"
   xmlns="http://www.w3.org/2000/svg"
   xmlns:sodipodi="http://sodipodi.sourceforge.net/DTD/sodipodi-0.dtd"
   xmlns:inkscape="http://www.inkscape.org/namespaces/inkscape"
   version="1.1"
   id="svg1619"
   xml:space="preserve"
   width="528"
   height="432"
   viewBox="0 0 528 432"
   sodipodi:docname="EIT_1.svg"
   inkscape:version="0.92.2 (5c3e80d, 2017-08-06)"><metadata
     id="metadata1625"><rdf:RDF><cc:Work
         rdf:about=""><dc:format>image/svg+xml</dc:format><dc:type
           rdf:resource="http://purl.org/dc/dcmitype/StillImage" /><dc:title /></cc:Work></rdf:RDF></metadata><defs
     id="defs1623"><clipPath
       clipPathUnits="userSpaceOnUse"
       id="clipPath1637"><path
         d="M 960,5527.51 V 2377.5 h 4200.01 v 3150.01 z"
         id="path1635"
         inkscape:connector-curvature="0" /></clipPath><clipPath
       clipPathUnits="userSpaceOnUse"
       id="clipPath1837"><path
         d="M 1507.5,5287.51 V 2715 h 3262.51 v 2572.51 z"
         id="path1835"
         inkscape:connector-curvature="0" /></clipPath><clipPath
       clipPathUnits="userSpaceOnUse"
       id="clipPath1855"><path
         d="M 960,5527.51 V 2377.5 h 4200.01 v 3150.01 z"
         id="path1853"
         inkscape:connector-curvature="0" /></clipPath></defs><sodipodi:namedview
     pagecolor="#ffffff"
     bordercolor="#666666"
     borderopacity="1"
     objecttolerance="10"
     gridtolerance="10"
     guidetolerance="10"
     inkscape:pageopacity="0"
     inkscape:pageshadow="2"
     inkscape:window-width="2520"
     inkscape:window-height="1481"
     id="namedview1621"
     showgrid="false"
     inkscape:zoom="2.1851852"
     inkscape:cx="57.928662"
     inkscape:cy="232.4238"
     inkscape:window-x="-11"
     inkscape:window-y="-11"
     inkscape:window-maximized="1"
     inkscape:current-layer="g1627" /><g
     id="g1627"
     inkscape:groupmode="layer"
     inkscape:label="Fig3a"
     transform="matrix(1.3333333,0,0,-1.3333333,-144,744)"><g
       id="g1629"
       transform="matrix(0.1,0,0,0.1,0.6864407,8.923729)"><g
         id="g1631"><g
           id="g1633"
           clip-path="url(#clipPath1637)"><path
             d="M 1507.5,2722.5 V 5287.51 H 4762.51 V 2722.5 H 1507.5"
             style="fill:none;stroke:#ffffff;stroke-width:5.00001001;stroke-linecap:butt;stroke-linejoin:round;stroke-miterlimit:10;stroke-dasharray:none;stroke-opacity:1"
             id="path1639"
             inkscape:connector-curvature="0" /><path
             d="M 1507.5,5287.51 H 4762.51"
             style="fill:none;stroke:#000000;stroke-width:5.00001001;stroke-linecap:butt;stroke-linejoin:round;stroke-miterlimit:10;stroke-dasharray:none;stroke-opacity:1"
             id="path1641"
             inkscape:connector-curvature="0" /><path
             d="M 1507.5,2722.5 H 4762.51"
             style="fill:none;stroke:#000000;stroke-width:5.00001001;stroke-linecap:butt;stroke-linejoin:round;stroke-miterlimit:10;stroke-dasharray:none;stroke-opacity:1"
             id="path1643"
             inkscape:connector-curvature="0" /><path
             d="M 4762.51,2722.5 V 5287.51"
             style="fill:none;stroke:#000000;stroke-width:5.00001001;stroke-linecap:butt;stroke-linejoin:round;stroke-miterlimit:10;stroke-dasharray:none;stroke-opacity:1"
             id="path1645"
             inkscape:connector-curvature="0" /><path
             d="M 1507.5,2722.5 V 5287.51"
             style="fill:none;stroke:#000000;stroke-width:5.00001001;stroke-linecap:butt;stroke-linejoin:round;stroke-miterlimit:10;stroke-dasharray:none;stroke-opacity:1"
             id="path1647"
             inkscape:connector-curvature="0" /><path
             d="M 1507.5,2722.5 H 4762.51"
             style="fill:none;stroke:#000000;stroke-width:5.00001001;stroke-linecap:butt;stroke-linejoin:round;stroke-miterlimit:10;stroke-dasharray:none;stroke-opacity:1"
             id="path1649"
             inkscape:connector-curvature="0" /><path
             d="M 1507.5,2722.5 V 5287.51"
             style="fill:none;stroke:#000000;stroke-width:5.00001001;stroke-linecap:butt;stroke-linejoin:round;stroke-miterlimit:10;stroke-dasharray:none;stroke-opacity:1"
             id="path1651"
             inkscape:connector-curvature="0" /><path
             d="M 1507.5,2722.5 V 2760"
             style="fill:none;stroke:#000000;stroke-width:5.00001001;stroke-linecap:butt;stroke-linejoin:round;stroke-miterlimit:10;stroke-dasharray:none;stroke-opacity:1"
             id="path1653"
             inkscape:connector-curvature="0" /><path
             d="m 1507.5,5287.51 v -30"
             style="fill:none;stroke:#000000;stroke-width:5.00001001;stroke-linecap:butt;stroke-linejoin:round;stroke-miterlimit:10;stroke-dasharray:none;stroke-opacity:1"
             id="path1655"
             inkscape:connector-curvature="0" /><g
             id="g1657"
             transform="scale(10)"><text
               transform="scale(1,-1)"
               style="font-variant:normal;font-weight:normal;font-size:14.39999962px;font-family:Helvetica;-inkscape-font-specification:Helvetica;writing-mode:lr-tb;fill:#000000;fill-opacity:1;fill-rule:nonzero;stroke:none;stroke-width:1.20000005"
               id="text1661"
               x="139.007"
               y="-257.90216"><tspan
                 x="139.007 147.01341 155.01981"
                 y="-257.90216"
                 sodipodi:role="line"
                 id="tspan1659"
                 style="stroke-width:1.20000005">800</tspan></text>
</g><path
             d="M 2047.5,2722.5 V 2760"
             style="fill:none;stroke:#000000;stroke-width:5.00001001;stroke-linecap:butt;stroke-linejoin:round;stroke-miterlimit:10;stroke-dasharray:none;stroke-opacity:1"
             id="path1663"
             inkscape:connector-curvature="0" /><path
             d="m 2047.5,5287.51 v -30"
             style="fill:none;stroke:#000000;stroke-width:5.00001001;stroke-linecap:butt;stroke-linejoin:round;stroke-miterlimit:10;stroke-dasharray:none;stroke-opacity:1"
             id="path1665"
             inkscape:connector-curvature="0" /><g
             id="g1667"
             transform="scale(10)"><text
               transform="scale(1,-1)"
               style="font-variant:normal;font-weight:normal;font-size:14.39999962px;font-family:Helvetica;-inkscape-font-specification:Helvetica;writing-mode:lr-tb;fill:#000000;fill-opacity:1;fill-rule:nonzero;stroke:none;stroke-width:1.20000005"
               id="text1671"
               x="193.00583"
               y="-257.90216"><tspan
                 x="193.00583 201.01224 209.01863"
                 y="-257.90216"
                 sodipodi:role="line"
                 id="tspan1669"
                 style="stroke-width:1.20000005">900</tspan></text>
</g><path
             d="M 2587.5,2722.5 V 2760"
             style="fill:none;stroke:#000000;stroke-width:5.00001001;stroke-linecap:butt;stroke-linejoin:round;stroke-miterlimit:10;stroke-dasharray:none;stroke-opacity:1"
             id="path1673"
             inkscape:connector-curvature="0" /><path
             d="m 2587.5,5287.51 v -30"
             style="fill:none;stroke:#000000;stroke-width:5.00001001;stroke-linecap:butt;stroke-linejoin:round;stroke-miterlimit:10;stroke-dasharray:none;stroke-opacity:1"
             id="path1675"
             inkscape:connector-curvature="0" /><g
             id="g1677"
             transform="scale(10)"><text
               transform="scale(1,-1)"
               style="font-variant:normal;font-weight:normal;font-size:14.39999962px;font-family:Helvetica;-inkscape-font-specification:Helvetica;writing-mode:lr-tb;fill:#000000;fill-opacity:1;fill-rule:nonzero;stroke:none;stroke-width:1.20000005"
               id="text1681"
               x="242.50778"
               y="-257.90216"><tspan
                 x="242.50778 250.51418 258.52057 266.52698"
                 y="-257.90216"
                 sodipodi:role="line"
                 id="tspan1679"
                 style="stroke-width:1.20000005">1000</tspan></text>
</g><path
             d="M 3135,2722.5 V 2760"
             style="fill:none;stroke:#000000;stroke-width:5.00001001;stroke-linecap:butt;stroke-linejoin:round;stroke-miterlimit:10;stroke-dasharray:none;stroke-opacity:1"
             id="path1683"
             inkscape:connector-curvature="0" /><path
             d="m 3135,5287.51 v -30"
             style="fill:none;stroke:#000000;stroke-width:5.00001001;stroke-linecap:butt;stroke-linejoin:round;stroke-miterlimit:10;stroke-dasharray:none;stroke-opacity:1"
             id="path1685"
             inkscape:connector-curvature="0" /><g
             id="g1687"
             transform="scale(10)"><text
               transform="scale(1,-1)"
               style="font-variant:normal;font-weight:normal;font-size:14.39999962px;font-family:Helvetica;-inkscape-font-specification:Helvetica;writing-mode:lr-tb;fill:#000000;fill-opacity:1;fill-rule:nonzero;stroke:none;stroke-width:1.20000005"
               id="text1691"
               x="297.25778"
               y="-257.90216"><tspan
                 x="297.25778 305.26416 313.27057 321.27698"
                 y="-257.90216"
                 sodipodi:role="line"
                 id="tspan1689"
                 style="stroke-width:1.20000005">1100</tspan></text>
</g><path
             d="M 3675.01,2722.5 V 2760"
             style="fill:none;stroke:#000000;stroke-width:5.00001001;stroke-linecap:butt;stroke-linejoin:round;stroke-miterlimit:10;stroke-dasharray:none;stroke-opacity:1"
             id="path1693"
             inkscape:connector-curvature="0" /><path
             d="m 3675.01,5287.51 v -30"
             style="fill:none;stroke:#000000;stroke-width:5.00001001;stroke-linecap:butt;stroke-linejoin:round;stroke-miterlimit:10;stroke-dasharray:none;stroke-opacity:1"
             id="path1695"
             inkscape:connector-curvature="0" /><g
             id="g1697"
             transform="scale(10)"><text
               transform="scale(1,-1)"
               style="font-variant:normal;font-weight:normal;font-size:14.39999962px;font-family:Helvetica;-inkscape-font-specification:Helvetica;writing-mode:lr-tb;fill:#000000;fill-opacity:1;fill-rule:nonzero;stroke:none;stroke-width:1.20000005"
               id="text1701"
               x="351.25879"
               y="-257.90216"><tspan
                 x="351.25879 359.26517 367.27158 375.27798"
                 y="-257.90216"
                 sodipodi:role="line"
                 id="tspan1699"
                 style="stroke-width:1.20000005">1200</tspan></text>
</g><path
             d="M 4215.01,2722.5 V 2760"
             style="fill:none;stroke:#000000;stroke-width:5.00001001;stroke-linecap:butt;stroke-linejoin:round;stroke-miterlimit:10;stroke-dasharray:none;stroke-opacity:1"
             id="path1703"
             inkscape:connector-curvature="0" /><path
             d="m 4215.01,5287.51 v -30"
             style="fill:none;stroke:#000000;stroke-width:5.00001001;stroke-linecap:butt;stroke-linejoin:round;stroke-miterlimit:10;stroke-dasharray:none;stroke-opacity:1"
             id="path1705"
             inkscape:connector-curvature="0" /><g
             id="g1707"
             transform="scale(10)"><text
               transform="scale(1,-1)"
               style="font-variant:normal;font-weight:normal;font-size:14.39999962px;font-family:Helvetica;-inkscape-font-specification:Helvetica;writing-mode:lr-tb;fill:#000000;fill-opacity:1;fill-rule:nonzero;stroke:none;stroke-width:1.20000005"
               id="text1711"
               x="405.25879"
               y="-257.90274"><tspan
                 x="405.25879 413.26517 421.27158 429.27798"
                 y="-257.90274"
                 sodipodi:role="line"
                 id="tspan1709"
                 style="stroke-width:1.20000005">1300</tspan></text>
</g><path
             d="M 4762.51,2722.5 V 2760"
             style="fill:none;stroke:#000000;stroke-width:5.00001001;stroke-linecap:butt;stroke-linejoin:round;stroke-miterlimit:10;stroke-dasharray:none;stroke-opacity:1"
             id="path1713"
             inkscape:connector-curvature="0" /><path
             d="m 4762.51,5287.51 v -30"
             style="fill:none;stroke:#000000;stroke-width:5.00001001;stroke-linecap:butt;stroke-linejoin:round;stroke-miterlimit:10;stroke-dasharray:none;stroke-opacity:1"
             id="path1715"
             inkscape:connector-curvature="0" /><g
             id="g1717"
             transform="scale(10)"><text
               transform="scale(1,-1)"
               style="font-variant:normal;font-weight:normal;font-size:14.39999962px;font-family:Helvetica;-inkscape-font-specification:Helvetica;writing-mode:lr-tb;fill:#000000;fill-opacity:1;fill-rule:nonzero;stroke:none;stroke-width:1.20000005"
               id="text1721"
               x="460.00879"
               y="-257.90216"><tspan
                 x="460.00879 468.01517 476.02158 484.02798"
                 y="-257.90216"
                 sodipodi:role="line"
                 id="tspan1719"
                 style="stroke-width:1.20000005">1400</tspan></text>
</g><path
             d="m 1507.5,2722.5 h 30"
             style="fill:none;stroke:#000000;stroke-width:5.00001001;stroke-linecap:butt;stroke-linejoin:round;stroke-miterlimit:10;stroke-dasharray:none;stroke-opacity:1"
             id="path1723"
             inkscape:connector-curvature="0" /><path
             d="m 4762.51,2722.5 h -37.5"
             style="fill:none;stroke:#000000;stroke-width:5.00001001;stroke-linecap:butt;stroke-linejoin:round;stroke-miterlimit:10;stroke-dasharray:none;stroke-opacity:1"
             id="path1725"
             inkscape:connector-curvature="0" /><g
             id="g1727"
             transform="scale(10)" /><path
             d="m 1507.5,3007.5 h 30"
             style="fill:none;stroke:#000000;stroke-width:5.00001001;stroke-linecap:butt;stroke-linejoin:round;stroke-miterlimit:10;stroke-dasharray:none;stroke-opacity:1"
             id="path1733"
             inkscape:connector-curvature="0" /><path
             d="m 4762.51,3007.5 h -37.5"
             style="fill:none;stroke:#000000;stroke-width:5.00001001;stroke-linecap:butt;stroke-linejoin:round;stroke-miterlimit:10;stroke-dasharray:none;stroke-opacity:1"
             id="path1735"
             inkscape:connector-curvature="0" /><g
             id="g1737"
             transform="scale(10)"><text
               transform="scale(1,-1)"
               style="font-variant:normal;font-weight:normal;font-size:14.39999962px;font-family:Helvetica;-inkscape-font-specification:Helvetica;writing-mode:lr-tb;fill:#000000;fill-opacity:1;fill-rule:nonzero;stroke:none;stroke-width:1.20000005"
               id="text1741"
               x="129.59529"
               y="-295.40216"><tspan
                 x="129.59529 137.6017 141.60489"
                 y="-295.40216"
                 sodipodi:role="line"
                 id="tspan1739"
                 style="stroke-width:1.20000005">0.2</tspan></text>
</g><path
             d="m 1507.5,3292.51 h 30"
             style="fill:none;stroke:#000000;stroke-width:5.00001001;stroke-linecap:butt;stroke-linejoin:round;stroke-miterlimit:10;stroke-dasharray:none;stroke-opacity:1"
             id="path1743"
             inkscape:connector-curvature="0" /><path
             d="m 4762.51,3292.51 h -37.5"
             style="fill:none;stroke:#000000;stroke-width:5.00001001;stroke-linecap:butt;stroke-linejoin:round;stroke-miterlimit:10;stroke-dasharray:none;stroke-opacity:1"
             id="path1745"
             inkscape:connector-curvature="0" /><g
             id="g1747"
             transform="scale(10)" /><path
             d="m 1507.5,3577.51 h 30"
             style="fill:none;stroke:#000000;stroke-width:5.00001001;stroke-linecap:butt;stroke-linejoin:round;stroke-miterlimit:10;stroke-dasharray:none;stroke-opacity:1"
             id="path1753"
             inkscape:connector-curvature="0" /><path
             d="m 4762.51,3577.51 h -37.5"
             style="fill:none;stroke:#000000;stroke-width:5.00001001;stroke-linecap:butt;stroke-linejoin:round;stroke-miterlimit:10;stroke-dasharray:none;stroke-opacity:1"
             id="path1755"
             inkscape:connector-curvature="0" /><g
             id="g1757"
             transform="scale(10)"><text
               transform="scale(1,-1)"
               style="font-variant:normal;font-weight:normal;font-size:14.39999962px;font-family:Helvetica;-inkscape-font-specification:Helvetica;writing-mode:lr-tb;fill:#000000;fill-opacity:1;fill-rule:nonzero;stroke:none;stroke-width:1.20000005"
               id="text1761"
               x="129.59003"
               y="-352.40314"><tspan
                 x="129.59003 137.59642 141.59962"
                 y="-352.40314"
                 sodipodi:role="line"
                 id="tspan1759"
                 style="stroke-width:1.20000005">0.4</tspan></text>
</g><path
             d="m 1507.5,3862.51 h 30"
             style="fill:none;stroke:#000000;stroke-width:5.00001001;stroke-linecap:butt;stroke-linejoin:round;stroke-miterlimit:10;stroke-dasharray:none;stroke-opacity:1"
             id="path1763"
             inkscape:connector-curvature="0" /><path
             d="m 4762.51,3862.51 h -37.5"
             style="fill:none;stroke:#000000;stroke-width:5.00001001;stroke-linecap:butt;stroke-linejoin:round;stroke-miterlimit:10;stroke-dasharray:none;stroke-opacity:1"
             id="path1765"
             inkscape:connector-curvature="0" /><g
             id="g1767"
             transform="scale(10)" /><path
             d="m 1507.5,4147.51 h 30"
             style="fill:none;stroke:#000000;stroke-width:5.00001001;stroke-linecap:butt;stroke-linejoin:round;stroke-miterlimit:10;stroke-dasharray:none;stroke-opacity:1"
             id="path1773"
             inkscape:connector-curvature="0" /><path
             d="m 4762.51,4147.51 h -37.5"
             style="fill:none;stroke:#000000;stroke-width:5.00001001;stroke-linecap:butt;stroke-linejoin:round;stroke-miterlimit:10;stroke-dasharray:none;stroke-opacity:1"
             id="path1775"
             inkscape:connector-curvature="0" /><g
             id="g1777"
             transform="scale(10)"><text
               transform="scale(1,-1)"
               style="font-variant:normal;font-weight:normal;font-size:14.39999962px;font-family:Helvetica;-inkscape-font-specification:Helvetica;writing-mode:lr-tb;fill:#000000;fill-opacity:1;fill-rule:nonzero;stroke:none;stroke-width:1.20000005"
               id="text1781"
               x="129.5871"
               y="-409.40314"><tspan
                 x="129.5871 137.59349 141.59669"
                 y="-409.40314"
                 sodipodi:role="line"
                 id="tspan1779"
                 style="stroke-width:1.20000005">0.6</tspan></text>
</g><path
             d="m 1507.5,4440.01 h 30"
             style="fill:none;stroke:#000000;stroke-width:5.00001001;stroke-linecap:butt;stroke-linejoin:round;stroke-miterlimit:10;stroke-dasharray:none;stroke-opacity:1"
             id="path1783"
             inkscape:connector-curvature="0" /><path
             d="m 4762.51,4440.01 h -37.5"
             style="fill:none;stroke:#000000;stroke-width:5.00001001;stroke-linecap:butt;stroke-linejoin:round;stroke-miterlimit:10;stroke-dasharray:none;stroke-opacity:1"
             id="path1785"
             inkscape:connector-curvature="0" /><g
             id="g1787"
             transform="scale(10)" /><path
             d="m 1507.5,4717.51 h 30"
             style="fill:none;stroke:#000000;stroke-width:5.00001001;stroke-linecap:butt;stroke-linejoin:round;stroke-miterlimit:10;stroke-dasharray:none;stroke-opacity:1"
             id="path1793"
             inkscape:connector-curvature="0" /><path
             d="m 4762.51,4717.51 h -37.5"
             style="fill:none;stroke:#000000;stroke-width:5.00001001;stroke-linecap:butt;stroke-linejoin:round;stroke-miterlimit:10;stroke-dasharray:none;stroke-opacity:1"
             id="path1795"
             inkscape:connector-curvature="0" /><g
             id="g1797"
             transform="scale(10)"><text
               transform="scale(1,-1)"
               style="font-variant:normal;font-weight:normal;font-size:14.39999962px;font-family:Helvetica;-inkscape-font-specification:Helvetica;writing-mode:lr-tb;fill:#000000;fill-opacity:1;fill-rule:nonzero;stroke:none;stroke-width:1.20000005"
               id="text1801"
               x="129.58475"
               y="-466.40314"><tspan
                 x="129.58475 137.59114 141.59435"
                 y="-466.40314"
                 sodipodi:role="line"
                 id="tspan1799"
                 style="stroke-width:1.20000005">0.8</tspan></text>
</g><path
             d="m 1507.5,5002.51 h 30"
             style="fill:none;stroke:#000000;stroke-width:5.00001001;stroke-linecap:butt;stroke-linejoin:round;stroke-miterlimit:10;stroke-dasharray:none;stroke-opacity:1"
             id="path1803"
             inkscape:connector-curvature="0" /><path
             d="m 4762.51,5002.51 h -37.5"
             style="fill:none;stroke:#000000;stroke-width:5.00001001;stroke-linecap:butt;stroke-linejoin:round;stroke-miterlimit:10;stroke-dasharray:none;stroke-opacity:1"
             id="path1805"
             inkscape:connector-curvature="0" /><g
             id="g1807"
             transform="scale(10)" /><path
             d="m 1507.5,5287.51 h 30"
             style="fill:none;stroke:#000000;stroke-width:5.00001001;stroke-linecap:butt;stroke-linejoin:round;stroke-miterlimit:10;stroke-dasharray:none;stroke-opacity:1"
             id="path1813"
             inkscape:connector-curvature="0" /><path
             d="m 4762.51,5287.51 h -37.5"
             style="fill:none;stroke:#000000;stroke-width:5.00001001;stroke-linecap:butt;stroke-linejoin:round;stroke-miterlimit:10;stroke-dasharray:none;stroke-opacity:1"
             id="path1815"
             inkscape:connector-curvature="0" /><g
             id="g1817"
             transform="scale(10)"><text
               transform="scale(1,-1)"
               style="font-variant:normal;font-weight:normal;font-size:14.39999962px;font-family:Helvetica;-inkscape-font-specification:Helvetica;writing-mode:lr-tb;fill:#000000;fill-opacity:1;fill-rule:nonzero;stroke:none;stroke-width:1.20000005"
               id="text1821"
               x="140.42227"
               y="-523.38849"><tspan
                 x="140.42227"
                 y="-523.38849"
                 id="tspan1819"
                 style="stroke-width:1.20000005">1</tspan></text>
</g><path
             d="M 1507.5,5287.51 H 4762.51"
             style="fill:none;stroke:#000000;stroke-width:5.00001001;stroke-linecap:butt;stroke-linejoin:round;stroke-miterlimit:10;stroke-dasharray:none;stroke-opacity:1"
             id="path1823"
             inkscape:connector-curvature="0" /><path
             d="M 1507.5,2722.5 H 4762.51"
             style="fill:none;stroke:#000000;stroke-width:5.00001001;stroke-linecap:butt;stroke-linejoin:round;stroke-miterlimit:10;stroke-dasharray:none;stroke-opacity:1"
             id="path1825"
             inkscape:connector-curvature="0" /><path
             d="M 4762.51,2722.5 V 5287.51"
             style="fill:none;stroke:#000000;stroke-width:5.00001001;stroke-linecap:butt;stroke-linejoin:round;stroke-miterlimit:10;stroke-dasharray:none;stroke-opacity:1"
             id="path1827"
             inkscape:connector-curvature="0" /><path
             d="M 1507.5,2722.5 V 5287.51"
             style="fill:none;stroke:#000000;stroke-width:5.00001001;stroke-linecap:butt;stroke-linejoin:round;stroke-miterlimit:10;stroke-dasharray:none;stroke-opacity:1"
             id="path1829"
             inkscape:connector-curvature="0" /></g></g><g
         id="g1831"><g
           id="g1833"
           clip-path="url(#clipPath1837)"><path
             d="m 2250,5227.51 h -15 l -7.5,-7.5 -7.5,7.5 h -15 l -7.5,-7.5 -7.5,7.5 h -7.5 l -7.5,-7.5 h -7.5 l -7.5,7.5 h -15 l -7.5,-7.5 h -7.5 l -7.5,7.5 -7.5,-7.5 h -15 l -7.5,7.5 -7.5,-7.5 h -15 l -7.5,7.5 -7.5,-7.5 h -217.5 l -7.5,-7.5 -7.5,7.5 h -7.5 l -7.5,-7.5 h -150 l -7.5,-7.5 h -105 l -7.5,-7.5 h -30"
             style="fill:none;stroke:#000000;stroke-width:20.00009918;stroke-linecap:butt;stroke-linejoin:round;stroke-miterlimit:10;stroke-dasharray:none;stroke-opacity:1"
             id="path1839"
             inkscape:connector-curvature="0" /><path
             d="m 2865,2880 -7.5,112.5 v 187.51 l -7.5,232.5 v 240 l -7.5,232.5 -7.5,210 v 165 l -7.5,127.5 v 97.5 l -7.5,75 v 75 l -7.5,60 v 67.5 l -7.5,60 v 52.5 l -7.5,45 v 30 l -7.5,15 v 15 l -7.5,15 v 7.5 l -7.5,22.5 v 15 l -7.5,22.5 v 22.5 l -7.5,7.5 v 15 h -15 l -7.5,7.5 v 7.5 l -7.5,7.5 v 7.5 l -15,22.5 h 7.5 -22.5 l -7.5,7.5 v 7.5 l -7.5,7.5 h -22.5 l -7.5,7.5 -7.5,7.5 H 2625 l -7.5,7.5 h -30 l -7.5,7.5 h -15 l -7.5,-7.5 -7.5,7.5 -7.5,7.5 -7.5,-7.5 h -15 l -7.5,7.5 h -15 l -7.5,-7.5 -7.5,7.5 H 2415 l -7.5,7.5 -7.5,-7.5 h -22.5 l -7.5,7.5 -7.5,-7.5 h -7.5 l -7.5,7.5 h -7.5 l -7.5,-7.5 h -15 l -7.5,7.5 h -7.5 l -7.5,-7.5 h -7.5 l -7.5,7.5 h -7.5 l -7.5,-7.5 h -7.5 l -7.5,7.5"
             style="fill:none;stroke:#000000;stroke-width:20.00009918;stroke-linecap:butt;stroke-linejoin:round;stroke-miterlimit:10;stroke-dasharray:none;stroke-opacity:1"
             id="path1841"
             inkscape:connector-curvature="0" /><path
             d="m 3480.01,5167.51 v 7.5 l -7.5,7.5 -7.5,7.5 h -7.5 l -7.5,-7.5 h -7.5 l -7.5,7.5 -7.5,7.5 -7.5,7.5 h -7.5 l -7.5,-7.5 h -15 l -7.5,7.5 -7.5,7.5 h -15 l -7.5,-7.5 h -7.5 l -7.5,7.5 -7.5,7.5 -7.51,-7.5 h -7.5 l -7.5,-7.5 h -7.5 l -7.5,7.5 -7.5,7.5 h -7.5 l -7.5,-7.5 -7.5,-7.5 h -7.5 l -7.5,7.5 -7.5,7.5 h -7.5 l -7.5,-7.5 h -7.5 l -7.5,-7.5 -7.5,7.5 -7.5,7.5 h -7.5 l -7.5,-7.5 -7.5,-7.5 h -7.5 l -7.5,7.5 -7.5,7.5 -7.5,-7.5 -7.5,-7.5 -7.5,-7.5 -7.5,7.5 h -7.5 l -7.5,7.5 -7.5,-7.5 -7.5,-7.5 -7.5,-7.5 h -7.5 l -7.5,7.5 h -7.5 l -7.5,-7.5 -15,-15 h 7.5 -15 l -7.5,7.5 -7.5,-7.5 -7.5,-15 v -7.5 l -7.5,-7.5 v -7.5 l -7.5,-7.5 h -7.5 l -7.5,-7.5 -7.5,-7.5 v -22.5 l -7.5,-15 v -22.5 l -7.5,-15 v -15 l -7.5,-7.5 -7.5,-7.5 v -15 l -7.5,-30 v -37.5 l -7.5,-52.5 v -60 l -7.5,-60 v -60 l -7.5,-67.5 v -75 l -7.5,-90 -7.5,-120 v -157.5 l -7.5,-195 v -232.5 l -7.5,-247.5 v -247.5 l -7.5,-210.01 V 2910 l -7.5,-60 v 30"
             style="fill:none;stroke:#000000;stroke-width:20.00009918;stroke-linecap:butt;stroke-linejoin:round;stroke-miterlimit:10;stroke-dasharray:none;stroke-opacity:1"
             id="path1843"
             inkscape:connector-curvature="0" /><path
             d="m 4117.51,5100.01 h -7.5 l -7.5,7.5 h -15 l -7.5,7.5 h -22.5 l -7.5,7.5 h -7.5 l -7.5,7.5 h -30 l -7.5,7.5 h -15 l -7.5,7.5 h -30 l -7.5,7.5 h -15 l -7.5,7.5 h -15 l -7.5,-7.5 -7.5,7.5 h -15 l -7.5,7.5 -7.5,-7.5 h -60 l -7.5,-7.5 h -30 l -7.5,-7.5 h -7.5 l -7.5,-7.5 -7.5,-7.5 v -7.5 l -7.5,-7.5 h -7.5 l -7.5,-7.5 -7.5,-7.5 v -15 l -7.5,-15 -7.5,-15 -7.5,-22.5 v -22.5 l -7.5,-22.5 -7.5,-22.5 v -30 l -7.5,-37.5 -7.5,-45 v -67.5 l -7.5,-82.5 -7.5,-97.5 v -105 l -7.5,-105 -7.5,-82.5 -7.5,-60 v -15 l -7.5,15 -7.5,60 v 82.5 l -7.5,105 -7.5,112.5 v 105 l -7.5,90 -7.5,67.5 v 52.5 l -7.5,37.5 -7.5,30 v 22.5 l -7.5,22.5 -7.5,22.5 v 22.5 l -7.5,22.5 -7.5,15 v 15 h -7.5 l -7.5,7.5 h -7.5 l -7.5,7.5 v 7.5 l -7.5,7.5"
             style="fill:none;stroke:#000000;stroke-width:20.00009918;stroke-linecap:butt;stroke-linejoin:round;stroke-miterlimit:10;stroke-dasharray:none;stroke-opacity:1"
             id="path1845"
             inkscape:connector-curvature="0" /><path
             d="m 4770.01,5190.01 -7.5,-7.5 h -75 l -7.5,-7.5 h -52.5 l -7.5,-7.5 h -45 l -7.5,-7.5 h -30 l -7.5,-7.5 h -22.5 l -7.5,-7.5 h -22.5 l -7.5,-7.5 h -22.5 l -7.5,-7.5 h -7.5 l -7.5,-7.5 h -22.5 l -7.5,-7.5 h -7.5 l -7.5,-7.5 h -15 l -7.5,-7.5 h -22.5 l -7.5,-7.5 h -15 l -7.5,-7.5 h -37.5 l -7.5,-7.5 h -82.5 l -7.5,7.5 h -7.5 l -7.5,7.5 h -30 l -7.5,7.5"
             style="fill:none;stroke:#000000;stroke-width:20.00009918;stroke-linecap:butt;stroke-linejoin:round;stroke-miterlimit:10;stroke-dasharray:none;stroke-opacity:1"
             id="path1847"
             inkscape:connector-curvature="0" /></g></g><g
         id="g1849"><g
           id="g1851"
           clip-path="url(#clipPath1855)"><g
             id="g1857"
             transform="scale(10)" /></g></g></g><text
       xml:space="preserve"
       style="font-style:normal;font-weight:normal;font-size:10px;line-height:1.25;font-family:sans-serif;letter-spacing:0px;word-spacing:0px;fill:#000000;fill-opacity:1;stroke:none;stroke-width:0.75"
       x="241.16949"
       y="-246.01273"
       id="text2460"
       transform="scale(1,-1)"><tspan
         sodipodi:role="line"
         id="tspan2458"
         x="241.16949"
         y="-246.01273"
         style="font-size:16px;stroke-width:0.75">Wavelength, λ (nm)</tspan></text>
<text
       xml:space="preserve"
       style="font-style:normal;font-weight:normal;font-size:10px;line-height:1.25;font-family:sans-serif;letter-spacing:0px;word-spacing:0px;fill:#000000;fill-opacity:1;stroke:none;stroke-width:0.75"
       x="354.64304"
       y="123.79173"
       id="text2460-7"
       transform="matrix(0,1,1,0,0,0)"><tspan
         sodipodi:role="line"
         id="tspan2458-1"
         x="354.64304"
         y="123.79173"
         style="font-size:15.99999905px;stroke-width:0.75">Transmission</tspan></text>
</g></svg>